<svg xmlns="http://www.w3.org/2000/svg" xmlns:xlink="http://www.w3.org/1999/xlink" width="1128" height="228" viewBox="0 0 1128 228" font-family="ui-monospace, 'SF Mono', Menlo, Consolas, 'DejaVu Sans Mono', monospace" font-size="14">
<rect width="1128" height="228" rx="10" fill="#0d1117"/>
<path d="M0 30 V10 a10 10 0 0 1 10 -10 H1118 a10 10 0 0 1 10 10 V30 Z" fill="#161b22"/>
<circle cx="18" cy="15" r="5.5" fill="#ff5f56"/>
<circle cx="36" cy="15" r="5.5" fill="#ffbd2e"/>
<circle cx="54" cy="15" r="5.5" fill="#27c93f"/>
<text x="564" y="19" text-anchor="middle" fill="#8b949e" font-size="12">Pikachu — ccsidekick</text>
<text x="34.8" y="62.4" fill="#d7af00">⠸</text>
<text x="43.2" y="62.4" fill="#d7af00">⣿</text>
<text x="51.6" y="62.4" fill="#d7af00">⡿</text>
<text x="60.0" y="62.4" fill="#d7d700">⢦</text>
<text x="68.4" y="62.4" fill="#d7d700">⣀</text>
<text x="160.8" y="62.4" fill="#ffd700">⣀</text>
<text x="169.2" y="62.4" fill="#ffd700">⡴</text>
<text x="177.6" y="62.4" fill="#ffd700">⢿</text>
<text x="186.0" y="62.4" fill="#ffd700">⣿</text>
<text x="194.4" y="62.4" fill="#ffd700">⠇</text>
<text x="244.8" y="62.4" fill="#c9d1d9">⚠️</text>
<text x="270.0" y="62.4" fill="#ffffff">5</text>
<text x="278.4" y="62.4" fill="#ffffff">h</text>
<text x="295.2" y="62.4" fill="#ffffff">l</text>
<text x="303.6" y="62.4" fill="#ffffff">i</text>
<text x="312.0" y="62.4" fill="#ffffff">m</text>
<text x="320.4" y="62.4" fill="#ffffff">i</text>
<text x="328.8" y="62.4" fill="#ffffff">t</text>
<text x="345.6" y="62.4" fill="#ffffff">a</text>
<text x="354.0" y="62.4" fill="#ffffff">t</text>
<text x="370.8" y="62.4" fill="#ffffff">8</text>
<text x="379.2" y="62.4" fill="#ffffff">6</text>
<text x="387.6" y="62.4" fill="#ffffff">%</text>
<text x="396.0" y="62.4" fill="#ffffff">,</text>
<text x="412.8" y="62.4" fill="#ffffff">2</text>
<text x="421.2" y="62.4" fill="#ffffff">h</text>
<text x="438.0" y="62.4" fill="#ffffff">1</text>
<text x="446.4" y="62.4" fill="#ffffff">3</text>
<text x="454.8" y="62.4" fill="#ffffff">m</text>
<text x="471.6" y="62.4" fill="#ffffff">t</text>
<text x="480.0" y="62.4" fill="#ffffff">o</text>
<text x="496.8" y="62.4" fill="#ffffff">r</text>
<text x="505.2" y="62.4" fill="#ffffff">e</text>
<text x="513.6" y="62.4" fill="#ffffff">s</text>
<text x="522.0" y="62.4" fill="#ffffff">e</text>
<text x="530.4" y="62.4" fill="#ffffff">t</text>
<text x="538.8" y="62.4" fill="#ffffff">.</text>
<text x="555.6" y="62.4" fill="#ffffff">S</text>
<text x="564.0" y="62.4" fill="#ffffff">a</text>
<text x="572.4" y="62.4" fill="#ffffff">v</text>
<text x="580.8" y="62.4" fill="#ffffff">e</text>
<text x="597.6" y="62.4" fill="#ffffff">h</text>
<text x="606.0" y="62.4" fill="#ffffff">e</text>
<text x="614.4" y="62.4" fill="#ffffff">a</text>
<text x="622.8" y="62.4" fill="#ffffff">v</text>
<text x="631.2" y="62.4" fill="#ffffff">y</text>
<text x="648.0" y="62.4" fill="#ffffff">a</text>
<text x="656.4" y="62.4" fill="#ffffff">s</text>
<text x="664.8" y="62.4" fill="#ffffff">k</text>
<text x="673.2" y="62.4" fill="#ffffff">s</text>
<text x="690.0" y="62.4" fill="#ffffff">f</text>
<text x="698.4" y="62.4" fill="#ffffff">o</text>
<text x="706.8" y="62.4" fill="#ffffff">r</text>
<text x="723.6" y="62.4" fill="#ffffff">a</text>
<text x="732.0" y="62.4" fill="#ffffff">f</text>
<text x="740.4" y="62.4" fill="#ffffff">t</text>
<text x="748.8" y="62.4" fill="#ffffff">e</text>
<text x="757.2" y="62.4" fill="#ffffff">r</text>
<text x="765.6" y="62.4" fill="#ffffff">.</text>
<text x="43.2" y="80.4" fill="#d7d700">⠹</text>
<text x="51.6" y="80.4" fill="#ffd700">⡇</text>
<text x="68.4" y="80.4" fill="#ffff00">⠙</text>
<text x="76.8" y="80.4" fill="#ffff00">⢦</text>
<text x="85.2" y="80.4" fill="#ffff00">⡀</text>
<text x="144.0" y="80.4" fill="#ffd700">⢀</text>
<text x="152.4" y="80.4" fill="#ffd700">⡴</text>
<text x="160.8" y="80.4" fill="#ffd700">⠋</text>
<text x="177.6" y="80.4" fill="#ffd700">⢸</text>
<text x="186.0" y="80.4" fill="#ffd700">⠏</text>
<text x="51.6" y="98.4" fill="#ffff00">⠙</text>
<text x="60.0" y="98.4" fill="#ffff00">⢦</text>
<text x="68.4" y="98.4" fill="#ffff00">⡀</text>
<text x="85.2" y="98.4" fill="#ffff00">⠻</text>
<text x="93.6" y="98.4" fill="#ffff00">⣤</text>
<text x="102.0" y="98.4" fill="#ffff00">⡤</text>
<text x="110.4" y="98.4" fill="#ffd700">⠤</text>
<text x="118.8" y="98.4" fill="#ffd700">⠤</text>
<text x="127.2" y="98.4" fill="#ffd700">⢤</text>
<text x="135.6" y="98.4" fill="#ffd700">⣤</text>
<text x="144.0" y="98.4" fill="#ffd700">⠟</text>
<text x="160.8" y="98.4" fill="#ffd700">⢀</text>
<text x="169.2" y="98.4" fill="#ffd700">⡴</text>
<text x="177.6" y="98.4" fill="#ffd700">⠋</text>
<text x="244.8" y="98.4" fill="#ffff00">📁</text>
<text x="270.0" y="98.4" fill="#ffff00">~</text>
<text x="278.4" y="98.4" fill="#ffff00">/</text>
<text x="286.8" y="98.4" fill="#ffff00">d</text>
<text x="295.2" y="98.4" fill="#ffff00">e</text>
<text x="303.6" y="98.4" fill="#ffff00">v</text>
<text x="312.0" y="98.4" fill="#ffff00">/</text>
<text x="320.4" y="98.4" fill="#ffff00">c</text>
<text x="328.8" y="98.4" fill="#ffff00">c</text>
<text x="337.2" y="98.4" fill="#ffff00">s</text>
<text x="345.6" y="98.4" fill="#ffff00">i</text>
<text x="354.0" y="98.4" fill="#ffff00">d</text>
<text x="362.4" y="98.4" fill="#ffff00">e</text>
<text x="370.8" y="98.4" fill="#ffff00">k</text>
<text x="379.2" y="98.4" fill="#ffff00">i</text>
<text x="387.6" y="98.4" fill="#ffff00">c</text>
<text x="396.0" y="98.4" fill="#ffff00">k</text>
<text x="412.8" y="98.4" fill="#af8700">│</text>
<text x="429.6" y="98.4" fill="#ffff00">O</text>
<text x="438.0" y="98.4" fill="#ffff00">p</text>
<text x="446.4" y="98.4" fill="#ffff00">u</text>
<text x="454.8" y="98.4" fill="#ffff00">s</text>
<text x="471.6" y="98.4" fill="#ffff00">4</text>
<text x="480.0" y="98.4" fill="#ffff00">.</text>
<text x="488.4" y="98.4" fill="#ffff00">8</text>
<text x="505.2" y="98.4" fill="#ffff00">(</text>
<text x="513.6" y="98.4" fill="#ffff00">1</text>
<text x="522.0" y="98.4" fill="#ffff00">M</text>
<text x="530.4" y="98.4" fill="#ffff00">)</text>
<text x="547.2" y="98.4" fill="#ffff00">✦</text>
<text x="564.0" y="98.4" fill="#ffff00">h</text>
<text x="572.4" y="98.4" fill="#ffff00">i</text>
<text x="580.8" y="98.4" fill="#ffff00">g</text>
<text x="589.2" y="98.4" fill="#ffff00">h</text>
<text x="606.0" y="98.4" fill="#af8700">│</text>
<text x="622.8" y="98.4" fill="#ffff00">⚡</text>
<text x="648.0" y="98.4" fill="#ffff00">F</text>
<text x="656.4" y="98.4" fill="#ffff00">a</text>
<text x="664.8" y="98.4" fill="#ffff00">s</text>
<text x="673.2" y="98.4" fill="#ffff00">t</text>
<text x="68.4" y="116.4" fill="#ffff00">⢹</text>
<text x="76.8" y="116.4" fill="#ffff00">⡶</text>
<text x="93.6" y="116.4" fill="#ffd700">⠁</text>
<text x="135.6" y="116.4" fill="#ffd700">⠈</text>
<text x="152.4" y="116.4" fill="#ffd700">⢶</text>
<text x="160.8" y="116.4" fill="#ffd700">⡏</text>
<text x="244.8" y="116.4" fill="#ffd700">🌿</text>
<text x="270.0" y="116.4" fill="#ffd700">f</text>
<text x="278.4" y="116.4" fill="#ffd700">e</text>
<text x="286.8" y="116.4" fill="#ffd700">a</text>
<text x="295.2" y="116.4" fill="#ffd700">t</text>
<text x="303.6" y="116.4" fill="#ffd700">/</text>
<text x="312.0" y="116.4" fill="#ffd700">w</text>
<text x="320.4" y="116.4" fill="#ffd700">i</text>
<text x="328.8" y="116.4" fill="#ffd700">d</text>
<text x="337.2" y="116.4" fill="#ffd700">g</text>
<text x="345.6" y="116.4" fill="#ffd700">e</text>
<text x="354.0" y="116.4" fill="#ffd700">t</text>
<text x="362.4" y="116.4" fill="#ffd700">-</text>
<text x="370.8" y="116.4" fill="#ffd700">l</text>
<text x="379.2" y="116.4" fill="#ffd700">a</text>
<text x="387.6" y="116.4" fill="#ffd700">y</text>
<text x="396.0" y="116.4" fill="#ffd700">e</text>
<text x="404.4" y="116.4" fill="#ffd700">r</text>
<text x="421.2" y="116.4" fill="#af8700">│</text>
<text x="438.0" y="116.4" fill="#ffd700">🔗</text>
<text x="463.2" y="116.4" fill="#ffd700">P</text>
<text x="471.6" y="116.4" fill="#ffd700">R</text>
<text x="480.0" y="116.4" fill="#ffd700">:</text>
<a xlink:href="https://github.com/krayong/ccsidekick/pull/42"><text x="496.8" y="116.4" fill="#ffd700">#</text></a>
<a xlink:href="https://github.com/krayong/ccsidekick/pull/42"><text x="505.2" y="116.4" fill="#ffd700">4</text></a>
<a xlink:href="https://github.com/krayong/ccsidekick/pull/42"><text x="513.6" y="116.4" fill="#ffd700">2</text></a>
<text x="530.4" y="116.4" fill="#ffd700">·</text>
<text x="547.2" y="116.4" fill="#5fd700">a</text>
<text x="555.6" y="116.4" fill="#5fd700">p</text>
<text x="564.0" y="116.4" fill="#5fd700">p</text>
<text x="572.4" y="116.4" fill="#5fd700">r</text>
<text x="580.8" y="116.4" fill="#5fd700">o</text>
<text x="589.2" y="116.4" fill="#5fd700">v</text>
<text x="597.6" y="116.4" fill="#5fd700">e</text>
<text x="606.0" y="116.4" fill="#5fd700">d</text>
<text x="622.8" y="116.4" fill="#af8700">│</text>
<text x="639.6" y="116.4" fill="#5fd700">+</text>
<text x="648.0" y="116.4" fill="#5fd700">3</text>
<text x="664.8" y="116.4" fill="#ffaf00">2</text>
<text x="681.6" y="116.4" fill="#ffaf00">f</text>
<text x="690.0" y="116.4" fill="#ffaf00">i</text>
<text x="698.4" y="116.4" fill="#ffaf00">l</text>
<text x="706.8" y="116.4" fill="#ffaf00">e</text>
<text x="715.2" y="116.4" fill="#ffaf00">s</text>
<text x="732.0" y="116.4" fill="#af8700">│</text>
<text x="748.8" y="116.4" fill="#5fd700">↑</text>
<text x="757.2" y="116.4" fill="#5fd700">1</text>
<text x="774.0" y="116.4" fill="#af8700">│</text>
<text x="790.8" y="116.4" fill="#ffd700">(</text>
<text x="799.2" y="116.4" fill="#ffd700">+</text>
<text x="807.6" y="116.4" fill="#ffd700">1</text>
<text x="824.4" y="116.4" fill="#ffd700">!</text>
<text x="832.8" y="116.4" fill="#ffd700">1</text>
<text x="849.6" y="116.4" fill="#ffd700">?</text>
<text x="858.0" y="116.4" fill="#ffd700">1</text>
<text x="866.4" y="116.4" fill="#ffd700">)</text>
<text x="68.4" y="134.4" fill="#ffd700">⣾</text>
<text x="76.8" y="134.4" fill="#ffd700">⢀</text>
<text x="85.2" y="134.4" fill="#ffd700">⣤</text>
<text x="93.6" y="134.4" fill="#ffd700">⣄</text>
<text x="135.6" y="134.4" fill="#ffd700">⣠</text>
<text x="144.0" y="134.4" fill="#ffd700">⣤</text>
<text x="152.4" y="134.4" fill="#ffaf00">⡀</text>
<text x="160.8" y="134.4" fill="#ffaf00">⣷</text>
<text x="244.8" y="134.4" fill="#ffaf00">🧾</text>
<text x="270.0" y="134.4" fill="#ffaf00">C</text>
<text x="278.4" y="134.4" fill="#ffaf00">h</text>
<text x="286.8" y="134.4" fill="#ffaf00">a</text>
<text x="295.2" y="134.4" fill="#ffaf00">t</text>
<text x="312.0" y="134.4" fill="#ffaf00">C</text>
<text x="320.4" y="134.4" fill="#ffaf00">o</text>
<text x="328.8" y="134.4" fill="#ffaf00">s</text>
<text x="337.2" y="134.4" fill="#ffaf00">t</text>
<text x="345.6" y="134.4" fill="#ffaf00">:</text>
<text x="362.4" y="134.4" fill="#ffaf00">$</text>
<text x="370.8" y="134.4" fill="#ffaf00">0</text>
<text x="379.2" y="134.4" fill="#ffaf00">.</text>
<text x="387.6" y="134.4" fill="#ffaf00">4</text>
<text x="396.0" y="134.4" fill="#ffaf00">8</text>
<text x="412.8" y="134.4" fill="#af8700">│</text>
<text x="429.6" y="134.4" fill="#ffaf00">🏗️</text>
<text x="454.8" y="134.4" fill="#ffaf00">P</text>
<text x="463.2" y="134.4" fill="#ffaf00">r</text>
<text x="471.6" y="134.4" fill="#ffaf00">o</text>
<text x="480.0" y="134.4" fill="#ffaf00">j</text>
<text x="488.4" y="134.4" fill="#ffaf00">e</text>
<text x="496.8" y="134.4" fill="#ffaf00">c</text>
<text x="505.2" y="134.4" fill="#ffaf00">t</text>
<text x="522.0" y="134.4" fill="#ffaf00">C</text>
<text x="530.4" y="134.4" fill="#ffaf00">o</text>
<text x="538.8" y="134.4" fill="#ffaf00">s</text>
<text x="547.2" y="134.4" fill="#ffaf00">t</text>
<text x="555.6" y="134.4" fill="#ffaf00">:</text>
<text x="572.4" y="134.4" fill="#ffaf00">$</text>
<text x="580.8" y="134.4" fill="#ffaf00">1</text>
<text x="589.2" y="134.4" fill="#ffaf00">.</text>
<text x="597.6" y="134.4" fill="#ffaf00">1</text>
<text x="606.0" y="134.4" fill="#ffaf00">8</text>
<text x="622.8" y="134.4" fill="#af8700">│</text>
<text x="639.6" y="134.4" fill="#ffaf00">🏦</text>
<text x="664.8" y="134.4" fill="#ffaf00">T</text>
<text x="673.2" y="134.4" fill="#ffaf00">o</text>
<text x="681.6" y="134.4" fill="#ffaf00">t</text>
<text x="690.0" y="134.4" fill="#ffaf00">a</text>
<text x="698.4" y="134.4" fill="#ffaf00">l</text>
<text x="715.2" y="134.4" fill="#ffaf00">C</text>
<text x="723.6" y="134.4" fill="#ffaf00">o</text>
<text x="732.0" y="134.4" fill="#ffaf00">s</text>
<text x="740.4" y="134.4" fill="#ffaf00">t</text>
<text x="748.8" y="134.4" fill="#ffaf00">:</text>
<text x="765.6" y="134.4" fill="#ffaf00">$</text>
<text x="774.0" y="134.4" fill="#ffaf00">1</text>
<text x="782.4" y="134.4" fill="#ffaf00">.</text>
<text x="790.8" y="134.4" fill="#ffaf00">5</text>
<text x="799.2" y="134.4" fill="#ffaf00">8</text>
<text x="68.4" y="152.4" fill="#ffd700">⣿</text>
<text x="76.8" y="152.4" fill="#ffd700">⡘</text>
<text x="85.2" y="152.4" fill="#ffd700">⢿</text>
<text x="93.6" y="152.4" fill="#ffd700">⡿</text>
<text x="110.4" y="152.4" fill="#ffd700">⢀</text>
<text x="118.8" y="152.4" fill="#ffd700">⡀</text>
<text x="135.6" y="152.4" fill="#ffaf00">⢿</text>
<text x="144.0" y="152.4" fill="#ffaf00">⡿</text>
<text x="152.4" y="152.4" fill="#ffaf00">⢃</text>
<text x="160.8" y="152.4" fill="#ffaf00">⣿</text>
<text x="244.8" y="152.4" fill="#d7af00">📊</text>
<text x="270.0" y="152.4" fill="#d7af00">C</text>
<text x="278.4" y="152.4" fill="#d7af00">o</text>
<text x="286.8" y="152.4" fill="#d7af00">n</text>
<text x="295.2" y="152.4" fill="#d7af00">t</text>
<text x="303.6" y="152.4" fill="#d7af00">e</text>
<text x="312.0" y="152.4" fill="#d7af00">x</text>
<text x="320.4" y="152.4" fill="#d7af00">t</text>
<text x="337.2" y="152.4" fill="#d7af00">U</text>
<text x="345.6" y="152.4" fill="#d7af00">s</text>
<text x="354.0" y="152.4" fill="#d7af00">a</text>
<text x="362.4" y="152.4" fill="#d7af00">g</text>
<text x="370.8" y="152.4" fill="#d7af00">e</text>
<text x="379.2" y="152.4" fill="#d7af00">:</text>
<text x="396.0" y="152.4" fill="#ffaf00">4</text>
<text x="404.4" y="152.4" fill="#ffaf00">3</text>
<text x="412.8" y="152.4" fill="#ffaf00">%</text>
<text x="429.6" y="152.4" fill="#ffaf00">(</text>
<text x="438.0" y="152.4" fill="#ffaf00">4</text>
<text x="446.4" y="152.4" fill="#ffaf00">3</text>
<text x="454.8" y="152.4" fill="#ffaf00">0</text>
<text x="463.2" y="152.4" fill="#ffaf00">k</text>
<text x="471.6" y="152.4" fill="#ffaf00">/</text>
<text x="480.0" y="152.4" fill="#ffaf00">1</text>
<text x="488.4" y="152.4" fill="#ffaf00">M</text>
<text x="496.8" y="152.4" fill="#ffaf00">)</text>
<text x="513.6" y="152.4" fill="#af8700">│</text>
<text x="530.4" y="152.4" fill="#d7af00">⏱️</text>
<text x="555.6" y="152.4" fill="#d7af00">B</text>
<text x="564.0" y="152.4" fill="#d7af00">l</text>
<text x="572.4" y="152.4" fill="#d7af00">o</text>
<text x="580.8" y="152.4" fill="#d7af00">c</text>
<text x="589.2" y="152.4" fill="#d7af00">k</text>
<text x="606.0" y="152.4" fill="#d7af00">U</text>
<text x="614.4" y="152.4" fill="#d7af00">s</text>
<text x="622.8" y="152.4" fill="#d7af00">a</text>
<text x="631.2" y="152.4" fill="#d7af00">g</text>
<text x="639.6" y="152.4" fill="#d7af00">e</text>
<text x="648.0" y="152.4" fill="#d7af00">:</text>
<text x="664.8" y="152.4" fill="#ff0000">8</text>
<text x="673.2" y="152.4" fill="#ff0000">6</text>
<text x="681.6" y="152.4" fill="#ff0000">%</text>
<text x="698.4" y="152.4" fill="#ff0000">(</text>
<text x="706.8" y="152.4" fill="#ff0000">2</text>
<text x="715.2" y="152.4" fill="#ff0000">h</text>
<text x="732.0" y="152.4" fill="#ff0000">1</text>
<text x="740.4" y="152.4" fill="#ff0000">3</text>
<text x="748.8" y="152.4" fill="#ff0000">m</text>
<text x="765.6" y="152.4" fill="#ff0000">l</text>
<text x="774.0" y="152.4" fill="#ff0000">e</text>
<text x="782.4" y="152.4" fill="#ff0000">f</text>
<text x="790.8" y="152.4" fill="#ff0000">t</text>
<text x="799.2" y="152.4" fill="#ff0000">)</text>
<text x="816.0" y="152.4" fill="#af8700">│</text>
<text x="832.8" y="152.4" fill="#d7af00">📅</text>
<text x="858.0" y="152.4" fill="#d7af00">W</text>
<text x="866.4" y="152.4" fill="#d7af00">e</text>
<text x="874.8" y="152.4" fill="#d7af00">e</text>
<text x="883.2" y="152.4" fill="#d7af00">k</text>
<text x="891.6" y="152.4" fill="#d7af00">l</text>
<text x="900.0" y="152.4" fill="#d7af00">y</text>
<text x="916.8" y="152.4" fill="#d7af00">U</text>
<text x="925.2" y="152.4" fill="#d7af00">s</text>
<text x="933.6" y="152.4" fill="#d7af00">a</text>
<text x="942.0" y="152.4" fill="#d7af00">g</text>
<text x="950.4" y="152.4" fill="#d7af00">e</text>
<text x="958.8" y="152.4" fill="#d7af00">:</text>
<text x="975.6" y="152.4" fill="#ffaf00">6</text>
<text x="984.0" y="152.4" fill="#ffaf00">3</text>
<text x="992.4" y="152.4" fill="#ffaf00">%</text>
<text x="1009.2" y="152.4" fill="#ffaf00">(</text>
<text x="1017.6" y="152.4" fill="#ffaf00">3</text>
<text x="1026.0" y="152.4" fill="#ffaf00">d</text>
<text x="1042.8" y="152.4" fill="#ffaf00">4</text>
<text x="1051.2" y="152.4" fill="#ffaf00">h</text>
<text x="1068.0" y="152.4" fill="#ffaf00">l</text>
<text x="1076.4" y="152.4" fill="#ffaf00">e</text>
<text x="1084.8" y="152.4" fill="#ffaf00">f</text>
<text x="1093.2" y="152.4" fill="#ffaf00">t</text>
<text x="1101.6" y="152.4" fill="#ffaf00">)</text>
<text x="68.4" y="170.4" fill="#ffd700">⣇</text>
<text x="76.8" y="170.4" fill="#ffd700">⠈</text>
<text x="85.2" y="170.4" fill="#ffd700">⡆</text>
<text x="102.0" y="170.4" fill="#ffd700">⣷</text>
<text x="110.4" y="170.4" fill="#ffaf00">⡶</text>
<text x="118.8" y="170.4" fill="#ffaf00">⢶</text>
<text x="127.2" y="170.4" fill="#ffaf00">⣾</text>
<text x="144.0" y="170.4" fill="#ffaf00">⢰</text>
<text x="152.4" y="170.4" fill="#ffaf00">⠁</text>
<text x="160.8" y="170.4" fill="#ffaf00">⣸</text>
<text x="68.4" y="188.4" fill="#ffd700">⠙</text>
<text x="76.8" y="188.4" fill="#ffd700">⠾</text>
<text x="85.2" y="188.4" fill="#ffd700">⣅</text>
<text x="93.6" y="188.4" fill="#ffaf00">⣀</text>
<text x="102.0" y="188.4" fill="#ffaf00">⣘</text>
<text x="110.4" y="188.4" fill="#ffaf00">⢦</text>
<text x="118.8" y="188.4" fill="#ffaf00">⡴</text>
<text x="127.2" y="188.4" fill="#ffaf00">⣃</text>
<text x="135.6" y="188.4" fill="#ffaf00">⣀</text>
<text x="144.0" y="188.4" fill="#ffaf00">⣨</text>
<text x="152.4" y="188.4" fill="#ffaf00">⠷</text>
<text x="160.8" y="188.4" fill="#ffaf00">⠋</text>
<text x="244.8" y="188.4" fill="#ffff00">✨</text>
<text x="270.0" y="188.4" fill="#ffff00">C</text>
<text x="278.4" y="188.4" fill="#ffff00">h</text>
<text x="286.8" y="188.4" fill="#ffff00">a</text>
<text x="295.2" y="188.4" fill="#ffff00">!</text>
<text x="312.0" y="188.4" fill="#ffff00">(</text>
<text x="320.4" y="188.4" fill="#ffff00">c</text>
<text x="328.8" y="188.4" fill="#ffff00">h</text>
<text x="337.2" y="188.4" fill="#ffff00">a</text>
<text x="345.6" y="188.4" fill="#ffff00">r</text>
<text x="354.0" y="188.4" fill="#ffff00">g</text>
<text x="362.4" y="188.4" fill="#ffff00">e</text>
<text x="379.2" y="188.4" fill="#ffff00">b</text>
<text x="387.6" y="188.4" fill="#ffff00">u</text>
<text x="396.0" y="188.4" fill="#ffff00">i</text>
<text x="404.4" y="188.4" fill="#ffff00">l</text>
<text x="412.8" y="188.4" fill="#ffff00">d</text>
<text x="421.2" y="188.4" fill="#ffff00">i</text>
<text x="429.6" y="188.4" fill="#ffff00">n</text>
<text x="438.0" y="188.4" fill="#ffff00">g</text>
<text x="454.8" y="188.4" fill="#ffd700">f</text>
<text x="463.2" y="188.4" fill="#ffd700">o</text>
<text x="471.6" y="188.4" fill="#ffd700">r</text>
<text x="488.4" y="188.4" fill="#ffd700">t</text>
<text x="496.8" y="188.4" fill="#ffd700">h</text>
<text x="505.2" y="188.4" fill="#ffd700">e</text>
<text x="522.0" y="188.4" fill="#ffd700">h</text>
<text x="530.4" y="188.4" fill="#ffd700">o</text>
<text x="538.8" y="188.4" fill="#ffd700">u</text>
<text x="547.2" y="188.4" fill="#ffd700">r</text>
<text x="555.6" y="188.4" fill="#ffd700">,</text>
<text x="572.4" y="188.4" fill="#ffd700">e</text>
<text x="580.8" y="188.4" fill="#ffd700">a</text>
<text x="589.2" y="188.4" fill="#ffd700">s</text>
<text x="597.6" y="188.4" fill="#ffd700">y</text>
<text x="614.4" y="188.4" fill="#ffd700">p</text>
<text x="622.8" y="188.4" fill="#ffd700">a</text>
<text x="631.2" y="188.4" fill="#ffd700">c</text>
<text x="639.6" y="188.4" fill="#ffd700">e</text>
<text x="648.0" y="188.4" fill="#ffd700">)</text>
<text x="93.6" y="206.4" fill="#ffaf00">⠙</text>
<text x="102.0" y="206.4" fill="#ffaf00">⠻</text>
<text x="110.4" y="206.4" fill="#ffaf00">⠷</text>
<text x="118.8" y="206.4" fill="#ffaf00">⠾</text>
<text x="127.2" y="206.4" fill="#ffaf00">⠟</text>
<text x="135.6" y="206.4" fill="#ffaf00">⠋</text>
</svg>
