<svg xmlns="http://www.w3.org/2000/svg" xmlns:xlink="http://www.w3.org/1999/xlink" width="1128"
     height="228" viewBox="0 0 1128 228"
     font-family="ui-monospace, 'SF Mono', Menlo, Consolas, 'DejaVu Sans Mono', monospace"
     font-size="14">
	<rect width="1128" height="228" rx="10" fill="#0d1117"/>
	<path d="M0 30 V10 a10 10 0 0 1 10 -10 H1118 a10 10 0 0 1 10 10 V30 Z" fill="#161b22"/>
	<circle cx="18" cy="15" r="5.5" fill="#ff5f56"/>
	<circle cx="36" cy="15" r="5.5" fill="#ffbd2e"/>
	<circle cx="54" cy="15" r="5.5" fill="#27c93f"/>
	<text x="564" y="19" text-anchor="middle" fill="#8b949e" font-size="12">Shin-chan — ccsidekick
	</text>
	<text x="93.6" y="62.4" fill="#ff8700">⣴</text>
	<text x="102.0" y="62.4" fill="#ff8700">⡾</text>
	<text x="110.4" y="62.4" fill="#ff8700">⣿</text>
	<text x="118.8" y="62.4" fill="#ffaf00">⡛</text>
	<text x="127.2" y="62.4" fill="#ffaf00">⣻</text>
	<text x="135.6" y="62.4" fill="#ffaf00">⣿</text>
	<text x="144.0" y="62.4" fill="#ffd700">⣶</text>
	<text x="152.4" y="62.4" fill="#ffd700">⣄</text>
	<text x="244.8" y="62.4" fill="#c9d1d9">⚠️</text>
	<text x="270.0" y="62.4" fill="#ffffff">5</text>
	<text x="278.4" y="62.4" fill="#ffffff">h</text>
	<text x="295.2" y="62.4" fill="#ffffff">l</text>
	<text x="303.6" y="62.4" fill="#ffffff">i</text>
	<text x="312.0" y="62.4" fill="#ffffff">m</text>
	<text x="320.4" y="62.4" fill="#ffffff">i</text>
	<text x="328.8" y="62.4" fill="#ffffff">t</text>
	<text x="345.6" y="62.4" fill="#ffffff">a</text>
	<text x="354.0" y="62.4" fill="#ffffff">t</text>
	<text x="370.8" y="62.4" fill="#ffffff">8</text>
	<text x="379.2" y="62.4" fill="#ffffff">6</text>
	<text x="387.6" y="62.4" fill="#ffffff">%</text>
	<text x="396.0" y="62.4" fill="#ffffff">,</text>
	<text x="412.8" y="62.4" fill="#ffffff">2</text>
	<text x="421.2" y="62.4" fill="#ffffff">h</text>
	<text x="438.0" y="62.4" fill="#ffffff">1</text>
	<text x="446.4" y="62.4" fill="#ffffff">4</text>
	<text x="454.8" y="62.4" fill="#ffffff">m</text>
	<text x="471.6" y="62.4" fill="#ffffff">t</text>
	<text x="480.0" y="62.4" fill="#ffffff">o</text>
	<text x="496.8" y="62.4" fill="#ffffff">r</text>
	<text x="505.2" y="62.4" fill="#ffffff">e</text>
	<text x="513.6" y="62.4" fill="#ffffff">s</text>
	<text x="522.0" y="62.4" fill="#ffffff">e</text>
	<text x="530.4" y="62.4" fill="#ffffff">t</text>
	<text x="538.8" y="62.4" fill="#ffffff">.</text>
	<text x="555.6" y="62.4" fill="#ffffff">S</text>
	<text x="564.0" y="62.4" fill="#ffffff">a</text>
	<text x="572.4" y="62.4" fill="#ffffff">v</text>
	<text x="580.8" y="62.4" fill="#ffffff">e</text>
	<text x="597.6" y="62.4" fill="#ffffff">h</text>
	<text x="606.0" y="62.4" fill="#ffffff">e</text>
	<text x="614.4" y="62.4" fill="#ffffff">a</text>
	<text x="622.8" y="62.4" fill="#ffffff">v</text>
	<text x="631.2" y="62.4" fill="#ffffff">y</text>
	<text x="648.0" y="62.4" fill="#ffffff">a</text>
	<text x="656.4" y="62.4" fill="#ffffff">s</text>
	<text x="664.8" y="62.4" fill="#ffffff">k</text>
	<text x="673.2" y="62.4" fill="#ffffff">s</text>
	<text x="690.0" y="62.4" fill="#ffffff">f</text>
	<text x="698.4" y="62.4" fill="#ffffff">o</text>
	<text x="706.8" y="62.4" fill="#ffffff">r</text>
	<text x="723.6" y="62.4" fill="#ffffff">a</text>
	<text x="732.0" y="62.4" fill="#ffffff">f</text>
	<text x="740.4" y="62.4" fill="#ffffff">t</text>
	<text x="748.8" y="62.4" fill="#ffffff">e</text>
	<text x="757.2" y="62.4" fill="#ffffff">r</text>
	<text x="765.6" y="62.4" fill="#ffffff">.</text>
	<text x="51.6" y="80.4" fill="#ff0000">⢠</text>
	<text x="60.0" y="80.4" fill="#ff5f00">⡴</text>
	<text x="68.4" y="80.4" fill="#ff5f00">⢦</text>
	<text x="85.2" y="80.4" fill="#ff8700">⣸</text>
	<text x="93.6" y="80.4" fill="#ff8700">⢝</text>
	<text x="102.0" y="80.4" fill="#ff8700">⣭</text>
	<text x="110.4" y="80.4" fill="#ffaf00">⣽</text>
	<text x="118.8" y="80.4" fill="#ffaf00">⡄</text>
	<text x="127.2" y="80.4" fill="#ffd700">⣼</text>
	<text x="135.6" y="80.4" fill="#ffd700">⣭</text>
	<text x="144.0" y="80.4" fill="#ffd700">⡙</text>
	<text x="152.4" y="80.4" fill="#ffd700">⠏</text>
	<text x="160.8" y="80.4" fill="#ffd700">⣷</text>
	<text x="169.2" y="80.4" fill="#ffff5f">⡀</text>
	<text x="51.6" y="98.4" fill="#ff5f00">⠈</text>
	<text x="60.0" y="98.4" fill="#ff8700">⠗</text>
	<text x="68.4" y="98.4" fill="#ff8700">⣮</text>
	<text x="76.8" y="98.4" fill="#ff8700">⠋</text>
	<text x="93.6" y="98.4" fill="#ffaf00">⠸</text>
	<text x="102.0" y="98.4" fill="#ffaf00">⢷</text>
	<text x="110.4" y="98.4" fill="#ffd700">⡾</text>
	<text x="118.8" y="98.4" fill="#ffd700">⠃</text>
	<text x="127.2" y="98.4" fill="#ffd700">⢿</text>
	<text x="135.6" y="98.4" fill="#ffd700">⣾</text>
	<text x="144.0" y="98.4" fill="#ffd700">⠟</text>
	<text x="160.8" y="98.4" fill="#ffff5f">⠛</text>
	<text x="169.2" y="98.4" fill="#ffff5f">⠙</text>
	<text x="177.6" y="98.4" fill="#ffff5f">⡆</text>
	<text x="244.8" y="98.4" fill="#ff0000">📁</text>
	<text x="270.0" y="98.4" fill="#ff0000">~</text>
	<text x="278.4" y="98.4" fill="#ff0000">/</text>
	<text x="286.8" y="98.4" fill="#ff0000">d</text>
	<text x="295.2" y="98.4" fill="#ff0000">e</text>
	<text x="303.6" y="98.4" fill="#ff0000">v</text>
	<text x="312.0" y="98.4" fill="#ff0000">/</text>
	<text x="320.4" y="98.4" fill="#ff0000">c</text>
	<text x="328.8" y="98.4" fill="#ff0000">c</text>
	<text x="337.2" y="98.4" fill="#ff0000">s</text>
	<text x="345.6" y="98.4" fill="#ff0000">i</text>
	<text x="354.0" y="98.4" fill="#ff0000">d</text>
	<text x="362.4" y="98.4" fill="#ff0000">e</text>
	<text x="370.8" y="98.4" fill="#ff0000">k</text>
	<text x="379.2" y="98.4" fill="#ff0000">i</text>
	<text x="387.6" y="98.4" fill="#ff0000">c</text>
	<text x="396.0" y="98.4" fill="#ff0000">k</text>
	<text x="412.8" y="98.4" fill="#ffd700">│</text>
	<text x="429.6" y="98.4" fill="#ff0000">O</text>
	<text x="438.0" y="98.4" fill="#ff0000">p</text>
	<text x="446.4" y="98.4" fill="#ff0000">u</text>
	<text x="454.8" y="98.4" fill="#ff0000">s</text>
	<text x="471.6" y="98.4" fill="#ff0000">4</text>
	<text x="480.0" y="98.4" fill="#ff0000">.</text>
	<text x="488.4" y="98.4" fill="#ff0000">8</text>
	<text x="505.2" y="98.4" fill="#ff0000">(</text>
	<text x="513.6" y="98.4" fill="#ff0000">1</text>
	<text x="522.0" y="98.4" fill="#ff0000">M</text>
	<text x="530.4" y="98.4" fill="#ff0000">)</text>
	<text x="547.2" y="98.4" fill="#ff0000">✦</text>
	<text x="564.0" y="98.4" fill="#ff0000">h</text>
	<text x="572.4" y="98.4" fill="#ff0000">i</text>
	<text x="580.8" y="98.4" fill="#ff0000">g</text>
	<text x="589.2" y="98.4" fill="#ff0000">h</text>
	<text x="606.0" y="98.4" fill="#ffd700">│</text>
	<text x="622.8" y="98.4" fill="#ff0000">⚡</text>
	<text x="648.0" y="98.4" fill="#ff0000">F</text>
	<text x="656.4" y="98.4" fill="#ff0000">a</text>
	<text x="664.8" y="98.4" fill="#ff0000">s</text>
	<text x="673.2" y="98.4" fill="#ff0000">t</text>
	<text x="68.4" y="116.4" fill="#ff8700">⠘</text>
	<text x="76.8" y="116.4" fill="#ffaf00">⣄</text>
	<text x="127.2" y="116.4" fill="#ffd700">⢀</text>
	<text x="135.6" y="116.4" fill="#ffff5f">⣀</text>
	<text x="144.0" y="116.4" fill="#ffff5f">⣤</text>
	<text x="152.4" y="116.4" fill="#ffff5f">⣴</text>
	<text x="160.8" y="116.4" fill="#ffff5f">⣶</text>
	<text x="169.2" y="116.4" fill="#ffff5f">⡴</text>
	<text x="177.6" y="116.4" fill="#ffff87">⠃</text>
	<text x="244.8" y="116.4" fill="#ff8700">🌿</text>
	<text x="270.0" y="116.4" fill="#ff8700">f</text>
	<text x="278.4" y="116.4" fill="#ff8700">e</text>
	<text x="286.8" y="116.4" fill="#ff8700">a</text>
	<text x="295.2" y="116.4" fill="#ff8700">t</text>
	<text x="303.6" y="116.4" fill="#ff8700">/</text>
	<text x="312.0" y="116.4" fill="#ff8700">w</text>
	<text x="320.4" y="116.4" fill="#ff8700">i</text>
	<text x="328.8" y="116.4" fill="#ff8700">d</text>
	<text x="337.2" y="116.4" fill="#ff8700">g</text>
	<text x="345.6" y="116.4" fill="#ff8700">e</text>
	<text x="354.0" y="116.4" fill="#ff8700">t</text>
	<text x="362.4" y="116.4" fill="#ff8700">-</text>
	<text x="370.8" y="116.4" fill="#ff8700">l</text>
	<text x="379.2" y="116.4" fill="#ff8700">a</text>
	<text x="387.6" y="116.4" fill="#ff8700">y</text>
	<text x="396.0" y="116.4" fill="#ff8700">e</text>
	<text x="404.4" y="116.4" fill="#ff8700">r</text>
	<text x="421.2" y="116.4" fill="#ffd700">│</text>
	<text x="438.0" y="116.4" fill="#ff8700">🔗</text>
	<text x="463.2" y="116.4" fill="#ff8700">P</text>
	<text x="471.6" y="116.4" fill="#ff8700">R</text>
	<text x="480.0" y="116.4" fill="#ff8700">:</text>
	<a xlink:href="https://github.com/krayong/ccsidekick/pull/42">
		<text x="496.8" y="116.4" fill="#ff8700">#</text>
	</a>
	<a xlink:href="https://github.com/krayong/ccsidekick/pull/42">
		<text x="505.2" y="116.4" fill="#ff8700">4</text>
	</a>
	<a xlink:href="https://github.com/krayong/ccsidekick/pull/42">
		<text x="513.6" y="116.4" fill="#ff8700">2</text>
	</a>
	<text x="530.4" y="116.4" fill="#ff8700">·</text>
	<text x="547.2" y="116.4" fill="#00ff00">a</text>
	<text x="555.6" y="116.4" fill="#00ff00">p</text>
	<text x="564.0" y="116.4" fill="#00ff00">p</text>
	<text x="572.4" y="116.4" fill="#00ff00">r</text>
	<text x="580.8" y="116.4" fill="#00ff00">o</text>
	<text x="589.2" y="116.4" fill="#00ff00">v</text>
	<text x="597.6" y="116.4" fill="#00ff00">e</text>
	<text x="606.0" y="116.4" fill="#00ff00">d</text>
	<text x="622.8" y="116.4" fill="#ffd700">│</text>
	<text x="639.6" y="116.4" fill="#00ff00">+</text>
	<text x="648.0" y="116.4" fill="#00ff00">3</text>
	<text x="664.8" y="116.4" fill="#ffd700">2</text>
	<text x="681.6" y="116.4" fill="#ffd700">f</text>
	<text x="690.0" y="116.4" fill="#ffd700">i</text>
	<text x="698.4" y="116.4" fill="#ffd700">l</text>
	<text x="706.8" y="116.4" fill="#ffd700">e</text>
	<text x="715.2" y="116.4" fill="#ffd700">s</text>
	<text x="732.0" y="116.4" fill="#ffd700">│</text>
	<text x="748.8" y="116.4" fill="#00ff00">↑</text>
	<text x="757.2" y="116.4" fill="#00ff00">1</text>
	<text x="774.0" y="116.4" fill="#ffd700">│</text>
	<text x="790.8" y="116.4" fill="#ff8700">(</text>
	<text x="799.2" y="116.4" fill="#ff8700">+</text>
	<text x="807.6" y="116.4" fill="#ff8700">1</text>
	<text x="824.4" y="116.4" fill="#ff8700">!</text>
	<text x="832.8" y="116.4" fill="#ff8700">1</text>
	<text x="849.6" y="116.4" fill="#ff8700">?</text>
	<text x="858.0" y="116.4" fill="#ff8700">1</text>
	<text x="866.4" y="116.4" fill="#ff8700">)</text>
	<text x="76.8" y="134.4" fill="#ffd700">⠛</text>
	<text x="85.2" y="134.4" fill="#ffd700">⢿</text>
	<text x="93.6" y="134.4" fill="#ffd700">⣶</text>
	<text x="102.0" y="134.4" fill="#ffd700">⣶</text>
	<text x="110.4" y="134.4" fill="#ffd700">⣶</text>
	<text x="118.8" y="134.4" fill="#ffff5f">⣿</text>
	<text x="127.2" y="134.4" fill="#ffff5f">⣿</text>
	<text x="135.6" y="134.4" fill="#ffff5f">⣿</text>
	<text x="144.0" y="134.4" fill="#ffff5f">⣿</text>
	<text x="152.4" y="134.4" fill="#ffff5f">⣿</text>
	<text x="160.8" y="134.4" fill="#ffff87">⣿</text>
	<text x="169.2" y="134.4" fill="#ffd787">⣧</text>
	<text x="244.8" y="134.4" fill="#ffd700">🧾</text>
	<text x="270.0" y="134.4" fill="#ffd700">C</text>
	<text x="278.4" y="134.4" fill="#ffd700">h</text>
	<text x="286.8" y="134.4" fill="#ffd700">a</text>
	<text x="295.2" y="134.4" fill="#ffd700">t</text>
	<text x="312.0" y="134.4" fill="#ffd700">C</text>
	<text x="320.4" y="134.4" fill="#ffd700">o</text>
	<text x="328.8" y="134.4" fill="#ffd700">s</text>
	<text x="337.2" y="134.4" fill="#ffd700">t</text>
	<text x="345.6" y="134.4" fill="#ffd700">:</text>
	<text x="362.4" y="134.4" fill="#ffd700">$</text>
	<text x="370.8" y="134.4" fill="#ffd700">0</text>
	<text x="379.2" y="134.4" fill="#ffd700">.</text>
	<text x="387.6" y="134.4" fill="#ffd700">4</text>
	<text x="396.0" y="134.4" fill="#ffd700">8</text>
	<text x="412.8" y="134.4" fill="#ffd700">│</text>
	<text x="429.6" y="134.4" fill="#ffd700">🏗️</text>
	<text x="454.8" y="134.4" fill="#ffd700">P</text>
	<text x="463.2" y="134.4" fill="#ffd700">r</text>
	<text x="471.6" y="134.4" fill="#ffd700">o</text>
	<text x="480.0" y="134.4" fill="#ffd700">j</text>
	<text x="488.4" y="134.4" fill="#ffd700">e</text>
	<text x="496.8" y="134.4" fill="#ffd700">c</text>
	<text x="505.2" y="134.4" fill="#ffd700">t</text>
	<text x="522.0" y="134.4" fill="#ffd700">C</text>
	<text x="530.4" y="134.4" fill="#ffd700">o</text>
	<text x="538.8" y="134.4" fill="#ffd700">s</text>
	<text x="547.2" y="134.4" fill="#ffd700">t</text>
	<text x="555.6" y="134.4" fill="#ffd700">:</text>
	<text x="572.4" y="134.4" fill="#ffd700">$</text>
	<text x="580.8" y="134.4" fill="#ffd700">1</text>
	<text x="589.2" y="134.4" fill="#ffd700">.</text>
	<text x="597.6" y="134.4" fill="#ffd700">1</text>
	<text x="606.0" y="134.4" fill="#ffd700">8</text>
	<text x="622.8" y="134.4" fill="#ffd700">│</text>
	<text x="639.6" y="134.4" fill="#ffd700">🏦</text>
	<text x="664.8" y="134.4" fill="#ffd700">T</text>
	<text x="673.2" y="134.4" fill="#ffd700">o</text>
	<text x="681.6" y="134.4" fill="#ffd700">t</text>
	<text x="690.0" y="134.4" fill="#ffd700">a</text>
	<text x="698.4" y="134.4" fill="#ffd700">l</text>
	<text x="715.2" y="134.4" fill="#ffd700">C</text>
	<text x="723.6" y="134.4" fill="#ffd700">o</text>
	<text x="732.0" y="134.4" fill="#ffd700">s</text>
	<text x="740.4" y="134.4" fill="#ffd700">t</text>
	<text x="748.8" y="134.4" fill="#ffd700">:</text>
	<text x="765.6" y="134.4" fill="#ffd700">$</text>
	<text x="774.0" y="134.4" fill="#ffd700">1</text>
	<text x="782.4" y="134.4" fill="#ffd700">.</text>
	<text x="790.8" y="134.4" fill="#ffd700">5</text>
	<text x="799.2" y="134.4" fill="#ffd700">8</text>
	<text x="85.2" y="152.4" fill="#ffd700">⣸</text>
	<text x="93.6" y="152.4" fill="#ffd700">⣿</text>
	<text x="102.0" y="152.4" fill="#ffff5f">⣿</text>
	<text x="110.4" y="152.4" fill="#ffff5f">⣿</text>
	<text x="118.8" y="152.4" fill="#ffff5f">⣿</text>
	<text x="127.2" y="152.4" fill="#ffff5f">⣿</text>
	<text x="135.6" y="152.4" fill="#ffff5f">⣿</text>
	<text x="144.0" y="152.4" fill="#ffff87">⣿</text>
	<text x="152.4" y="152.4" fill="#ffd787">⣿</text>
	<text x="160.8" y="152.4" fill="#ffd7af">⣍</text>
	<text x="169.2" y="152.4" fill="#ffd7af">⠇</text>
	<text x="244.8" y="152.4" fill="#ffff5f">📊</text>
	<text x="270.0" y="152.4" fill="#ffff5f">C</text>
	<text x="278.4" y="152.4" fill="#ffff5f">o</text>
	<text x="286.8" y="152.4" fill="#ffff5f">n</text>
	<text x="295.2" y="152.4" fill="#ffff5f">t</text>
	<text x="303.6" y="152.4" fill="#ffff5f">e</text>
	<text x="312.0" y="152.4" fill="#ffff5f">x</text>
	<text x="320.4" y="152.4" fill="#ffff5f">t</text>
	<text x="337.2" y="152.4" fill="#ffff5f">U</text>
	<text x="345.6" y="152.4" fill="#ffff5f">s</text>
	<text x="354.0" y="152.4" fill="#ffff5f">a</text>
	<text x="362.4" y="152.4" fill="#ffff5f">g</text>
	<text x="370.8" y="152.4" fill="#ffff5f">e</text>
	<text x="379.2" y="152.4" fill="#ffff5f">:</text>
	<text x="396.0" y="152.4" fill="#ffd700">4</text>
	<text x="404.4" y="152.4" fill="#ffd700">3</text>
	<text x="412.8" y="152.4" fill="#ffd700">%</text>
	<text x="429.6" y="152.4" fill="#ffd700">(</text>
	<text x="438.0" y="152.4" fill="#ffd700">4</text>
	<text x="446.4" y="152.4" fill="#ffd700">3</text>
	<text x="454.8" y="152.4" fill="#ffd700">0</text>
	<text x="463.2" y="152.4" fill="#ffd700">k</text>
	<text x="471.6" y="152.4" fill="#ffd700">/</text>
	<text x="480.0" y="152.4" fill="#ffd700">1</text>
	<text x="488.4" y="152.4" fill="#ffd700">M</text>
	<text x="496.8" y="152.4" fill="#ffd700">)</text>
	<text x="513.6" y="152.4" fill="#ffd700">│</text>
	<text x="530.4" y="152.4" fill="#ffff5f">⏱️</text>
	<text x="555.6" y="152.4" fill="#ffff5f">B</text>
	<text x="564.0" y="152.4" fill="#ffff5f">l</text>
	<text x="572.4" y="152.4" fill="#ffff5f">o</text>
	<text x="580.8" y="152.4" fill="#ffff5f">c</text>
	<text x="589.2" y="152.4" fill="#ffff5f">k</text>
	<text x="606.0" y="152.4" fill="#ffff5f">U</text>
	<text x="614.4" y="152.4" fill="#ffff5f">s</text>
	<text x="622.8" y="152.4" fill="#ffff5f">a</text>
	<text x="631.2" y="152.4" fill="#ffff5f">g</text>
	<text x="639.6" y="152.4" fill="#ffff5f">e</text>
	<text x="648.0" y="152.4" fill="#ffff5f">:</text>
	<text x="664.8" y="152.4" fill="#ff0000">8</text>
	<text x="673.2" y="152.4" fill="#ff0000">6</text>
	<text x="681.6" y="152.4" fill="#ff0000">%</text>
	<text x="698.4" y="152.4" fill="#ff0000">(</text>
	<text x="706.8" y="152.4" fill="#ff0000">2</text>
	<text x="715.2" y="152.4" fill="#ff0000">h</text>
	<text x="732.0" y="152.4" fill="#ff0000">1</text>
	<text x="740.4" y="152.4" fill="#ff0000">4</text>
	<text x="748.8" y="152.4" fill="#ff0000">m</text>
	<text x="765.6" y="152.4" fill="#ff0000">l</text>
	<text x="774.0" y="152.4" fill="#ff0000">e</text>
	<text x="782.4" y="152.4" fill="#ff0000">f</text>
	<text x="790.8" y="152.4" fill="#ff0000">t</text>
	<text x="799.2" y="152.4" fill="#ff0000">)</text>
	<text x="816.0" y="152.4" fill="#ffd700">│</text>
	<text x="832.8" y="152.4" fill="#ffff5f">📅</text>
	<text x="858.0" y="152.4" fill="#ffff5f">W</text>
	<text x="866.4" y="152.4" fill="#ffff5f">e</text>
	<text x="874.8" y="152.4" fill="#ffff5f">e</text>
	<text x="883.2" y="152.4" fill="#ffff5f">k</text>
	<text x="891.6" y="152.4" fill="#ffff5f">l</text>
	<text x="900.0" y="152.4" fill="#ffff5f">y</text>
	<text x="916.8" y="152.4" fill="#ffff5f">U</text>
	<text x="925.2" y="152.4" fill="#ffff5f">s</text>
	<text x="933.6" y="152.4" fill="#ffff5f">a</text>
	<text x="942.0" y="152.4" fill="#ffff5f">g</text>
	<text x="950.4" y="152.4" fill="#ffff5f">e</text>
	<text x="958.8" y="152.4" fill="#ffff5f">:</text>
	<text x="975.6" y="152.4" fill="#ffd700">6</text>
	<text x="984.0" y="152.4" fill="#ffd700">3</text>
	<text x="992.4" y="152.4" fill="#ffd700">%</text>
	<text x="1009.2" y="152.4" fill="#ffd700">(</text>
	<text x="1017.6" y="152.4" fill="#ffd700">3</text>
	<text x="1026.0" y="152.4" fill="#ffd700">d</text>
	<text x="1042.8" y="152.4" fill="#ffd700">5</text>
	<text x="1051.2" y="152.4" fill="#ffd700">h</text>
	<text x="1068.0" y="152.4" fill="#ffd700">l</text>
	<text x="1076.4" y="152.4" fill="#ffd700">e</text>
	<text x="1084.8" y="152.4" fill="#ffd700">f</text>
	<text x="1093.2" y="152.4" fill="#ffd700">t</text>
	<text x="1101.6" y="152.4" fill="#ffd700">)</text>
	<text x="85.2" y="170.4" fill="#ffff5f">⡝</text>
	<text x="93.6" y="170.4" fill="#ffff5f">⠛</text>
	<text x="102.0" y="170.4" fill="#ffff5f">⠉</text>
	<text x="110.4" y="170.4" fill="#ffff5f">⠙</text>
	<text x="118.8" y="170.4" fill="#ffff5f">⠉</text>
	<text x="127.2" y="170.4" fill="#ffff87">⠙</text>
	<text x="135.6" y="170.4" fill="#ffd787">⠋</text>
	<text x="144.0" y="170.4" fill="#ffd7af">⠉</text>
	<text x="152.4" y="170.4" fill="#ffd7af">⠙</text>
	<text x="160.8" y="170.4" fill="#ffd7af">⡞</text>
	<text x="85.2" y="188.4" fill="#ffff5f">⠑</text>
	<text x="93.6" y="188.4" fill="#ffff5f">⢲</text>
	<text x="102.0" y="188.4" fill="#ffff5f">⢒</text>
	<text x="110.4" y="188.4" fill="#ffff87">⡖</text>
	<text x="118.8" y="188.4" fill="#ffd787">⠚</text>
	<text x="127.2" y="188.4" fill="#ffd7af">⠒</text>
	<text x="135.6" y="188.4" fill="#ffd7af">⢲</text>
	<text x="144.0" y="188.4" fill="#ffd7af">⣲</text>
	<text x="152.4" y="188.4" fill="#ffafaf">⠒</text>
	<text x="160.8" y="188.4" fill="#ff8787">⠁</text>
	<text x="244.8" y="188.4" fill="#ffd787">🖍</text>
	<text x="270.0" y="188.4" fill="#ffd787">N</text>
	<text x="278.4" y="188.4" fill="#ffd787">e</text>
	<text x="286.8" y="188.4" fill="#ffd787">a</text>
	<text x="295.2" y="188.4" fill="#ffd787">r</text>
	<text x="312.0" y="188.4" fill="#ffd787">t</text>
	<text x="320.4" y="188.4" fill="#ffd787">h</text>
	<text x="328.8" y="188.4" fill="#ffd787">e</text>
	<text x="345.6" y="188.4" fill="#ffd787">e</text>
	<text x="354.0" y="188.4" fill="#ffd787">n</text>
	<text x="362.4" y="188.4" fill="#ffd787">d</text>
	<text x="379.2" y="188.4" fill="#ffd787">o</text>
	<text x="387.6" y="188.4" fill="#ffd787">f</text>
	<text x="404.4" y="188.4" fill="#ffff87">t</text>
	<text x="412.8" y="188.4" fill="#ffff87">h</text>
	<text x="421.2" y="188.4" fill="#ffff87">i</text>
	<text x="429.6" y="188.4" fill="#ffff87">s</text>
	<text x="446.4" y="188.4" fill="#ffff87">b</text>
	<text x="454.8" y="188.4" fill="#ffff87">l</text>
	<text x="463.2" y="188.4" fill="#ffff87">o</text>
	<text x="471.6" y="188.4" fill="#ffff87">c</text>
	<text x="480.0" y="188.4" fill="#ffff87">k</text>
	<text x="488.4" y="188.4" fill="#ffff87">.</text>
	<text x="505.2" y="188.4" fill="#ffff87">S</text>
	<text x="513.6" y="188.4" fill="#ffff87">a</text>
	<text x="522.0" y="188.4" fill="#ffff87">v</text>
	<text x="530.4" y="188.4" fill="#ffff87">i</text>
	<text x="538.8" y="188.4" fill="#ffff87">n</text>
	<text x="547.2" y="188.4" fill="#ffff87">g</text>
	<text x="564.0" y="188.4" fill="#ffff87">e</text>
	<text x="572.4" y="188.4" fill="#ffff87">n</text>
	<text x="580.8" y="188.4" fill="#ffff87">e</text>
	<text x="589.2" y="188.4" fill="#ffffaf">r</text>
	<text x="597.6" y="188.4" fill="#ffffaf">g</text>
	<text x="606.0" y="188.4" fill="#ffffaf">y</text>
	<text x="622.8" y="188.4" fill="#ffffaf">f</text>
	<text x="631.2" y="188.4" fill="#ffffaf">o</text>
	<text x="639.6" y="188.4" fill="#ffffaf">r</text>
	<text x="656.4" y="188.4" fill="#ffffaf">t</text>
	<text x="664.8" y="188.4" fill="#ffffaf">h</text>
	<text x="673.2" y="188.4" fill="#ffffaf">e</text>
	<text x="690.0" y="188.4" fill="#ffffaf">b</text>
	<text x="698.4" y="188.4" fill="#ffffaf">i</text>
	<text x="706.8" y="188.4" fill="#ffffaf">g</text>
	<text x="723.6" y="188.4" fill="#ffffd7">f</text>
	<text x="732.0" y="188.4" fill="#ffffd7">i</text>
	<text x="740.4" y="188.4" fill="#ffffd7">n</text>
	<text x="748.8" y="188.4" fill="#ffffd7">i</text>
	<text x="757.2" y="188.4" fill="#ffffd7">s</text>
	<text x="765.6" y="188.4" fill="#ffffd7">h</text>
	<text x="774.0" y="188.4" fill="#ffffd7">.</text>
	<text x="85.2" y="206.4" fill="#ffff5f">⢠</text>
	<text x="93.6" y="206.4" fill="#ffff87">⣼</text>
	<text x="102.0" y="206.4" fill="#ffd787">⡥</text>
	<text x="110.4" y="206.4" fill="#ffd787">⠇</text>
	<text x="135.6" y="206.4" fill="#ffd7af">⠸</text>
	<text x="144.0" y="206.4" fill="#ffaf87">⠼</text>
	<text x="152.4" y="206.4" fill="#ff5f5f">⣦</text>
	<text x="160.8" y="206.4" fill="#ff5f00">⡄</text>
</svg>
