<svg xmlns="http://www.w3.org/2000/svg" xmlns:xlink="http://www.w3.org/1999/xlink" width="1128" height="228" viewBox="0 0 1128 228" font-family="ui-monospace, 'SF Mono', Menlo, Consolas, 'DejaVu Sans Mono', monospace" font-size="14">
<rect width="1128" height="228" rx="10" fill="#0d1117"/>
<path d="M0 30 V10 a10 10 0 0 1 10 -10 H1118 a10 10 0 0 1 10 10 V30 Z" fill="#161b22"/>
<circle cx="18" cy="15" r="5.5" fill="#ff5f56"/>
<circle cx="36" cy="15" r="5.5" fill="#ffbd2e"/>
<circle cx="54" cy="15" r="5.5" fill="#27c93f"/>
<text x="564" y="19" text-anchor="middle" fill="#8b949e" font-size="12">Sherlock Holmes — ccsidekick</text>
<text x="51.6" y="62.4" fill="#d7d7af">⢀</text>
<text x="60.0" y="62.4" fill="#d7d7af">⣤</text>
<text x="68.4" y="62.4" fill="#ffffd7">⣿</text>
<text x="76.8" y="62.4" fill="#ffffd7">⣿</text>
<text x="85.2" y="62.4" fill="#ffffd7">⣿</text>
<text x="93.6" y="62.4" fill="#ffffd7">⣿</text>
<text x="102.0" y="62.4" fill="#ffffd7">⣶</text>
<text x="110.4" y="62.4" fill="#dadada">⣦</text>
<text x="118.8" y="62.4" fill="#d7d7af">⣄</text>
<text x="244.8" y="62.4" fill="#c9d1d9">⚠️</text>
<text x="270.0" y="62.4" fill="#ffffff">5</text>
<text x="278.4" y="62.4" fill="#ffffff">h</text>
<text x="295.2" y="62.4" fill="#ffffff">l</text>
<text x="303.6" y="62.4" fill="#ffffff">i</text>
<text x="312.0" y="62.4" fill="#ffffff">m</text>
<text x="320.4" y="62.4" fill="#ffffff">i</text>
<text x="328.8" y="62.4" fill="#ffffff">t</text>
<text x="345.6" y="62.4" fill="#ffffff">a</text>
<text x="354.0" y="62.4" fill="#ffffff">t</text>
<text x="370.8" y="62.4" fill="#ffffff">8</text>
<text x="379.2" y="62.4" fill="#ffffff">6</text>
<text x="387.6" y="62.4" fill="#ffffff">%</text>
<text x="396.0" y="62.4" fill="#ffffff">,</text>
<text x="412.8" y="62.4" fill="#ffffff">2</text>
<text x="421.2" y="62.4" fill="#ffffff">h</text>
<text x="438.0" y="62.4" fill="#ffffff">1</text>
<text x="446.4" y="62.4" fill="#ffffff">3</text>
<text x="454.8" y="62.4" fill="#ffffff">m</text>
<text x="471.6" y="62.4" fill="#ffffff">t</text>
<text x="480.0" y="62.4" fill="#ffffff">o</text>
<text x="496.8" y="62.4" fill="#ffffff">r</text>
<text x="505.2" y="62.4" fill="#ffffff">e</text>
<text x="513.6" y="62.4" fill="#ffffff">s</text>
<text x="522.0" y="62.4" fill="#ffffff">e</text>
<text x="530.4" y="62.4" fill="#ffffff">t</text>
<text x="538.8" y="62.4" fill="#ffffff">.</text>
<text x="555.6" y="62.4" fill="#ffffff">S</text>
<text x="564.0" y="62.4" fill="#ffffff">a</text>
<text x="572.4" y="62.4" fill="#ffffff">v</text>
<text x="580.8" y="62.4" fill="#ffffff">e</text>
<text x="597.6" y="62.4" fill="#ffffff">h</text>
<text x="606.0" y="62.4" fill="#ffffff">e</text>
<text x="614.4" y="62.4" fill="#ffffff">a</text>
<text x="622.8" y="62.4" fill="#ffffff">v</text>
<text x="631.2" y="62.4" fill="#ffffff">y</text>
<text x="648.0" y="62.4" fill="#ffffff">a</text>
<text x="656.4" y="62.4" fill="#ffffff">s</text>
<text x="664.8" y="62.4" fill="#ffffff">k</text>
<text x="673.2" y="62.4" fill="#ffffff">s</text>
<text x="690.0" y="62.4" fill="#ffffff">f</text>
<text x="698.4" y="62.4" fill="#ffffff">o</text>
<text x="706.8" y="62.4" fill="#ffffff">r</text>
<text x="723.6" y="62.4" fill="#ffffff">a</text>
<text x="732.0" y="62.4" fill="#ffffff">f</text>
<text x="740.4" y="62.4" fill="#ffffff">t</text>
<text x="748.8" y="62.4" fill="#ffffff">e</text>
<text x="757.2" y="62.4" fill="#ffffff">r</text>
<text x="765.6" y="62.4" fill="#ffffff">.</text>
<text x="43.2" y="80.4" fill="#ffffd7">⣰</text>
<text x="51.6" y="80.4" fill="#ffffd7">⣿</text>
<text x="60.0" y="80.4" fill="#ffffd7">⣿</text>
<text x="68.4" y="80.4" fill="#ffffd7">⣿</text>
<text x="76.8" y="80.4" fill="#ffffd7">⣿</text>
<text x="85.2" y="80.4" fill="#dadada">⣿</text>
<text x="93.6" y="80.4" fill="#d7d7af">⣿</text>
<text x="102.0" y="80.4" fill="#d7d7af">⣿</text>
<text x="110.4" y="80.4" fill="#d7d7af">⣿</text>
<text x="118.8" y="80.4" fill="#afaf87">⣿</text>
<text x="127.2" y="80.4" fill="#afaf87">⣷</text>
<text x="135.6" y="80.4" fill="#afaf87">⡀</text>
<text x="34.8" y="98.4" fill="#ffffd7">⢠</text>
<text x="43.2" y="98.4" fill="#ffffd7">⣿</text>
<text x="51.6" y="98.4" fill="#ffffd7">⣿</text>
<text x="60.0" y="98.4" fill="#dadada">⣿</text>
<text x="68.4" y="98.4" fill="#d7d7af">⣿</text>
<text x="76.8" y="98.4" fill="#d7d7af">⣿</text>
<text x="85.2" y="98.4" fill="#d7d7af">⣿</text>
<text x="93.6" y="98.4" fill="#afaf87">⣿</text>
<text x="102.0" y="98.4" fill="#afaf87">⣿</text>
<text x="110.4" y="98.4" fill="#afaf87">⣿</text>
<text x="118.8" y="98.4" fill="#afaf87">⣿</text>
<text x="127.2" y="98.4" fill="#afaf87">⣿</text>
<text x="135.6" y="98.4" fill="#afaf87">⣷</text>
<text x="144.0" y="98.4" fill="#afaf87">⣤</text>
<text x="152.4" y="98.4" fill="#afaf87">⣀</text>
<text x="244.8" y="98.4" fill="#ffffd7">📁</text>
<text x="270.0" y="98.4" fill="#ffffd7">~</text>
<text x="278.4" y="98.4" fill="#ffffd7">/</text>
<text x="286.8" y="98.4" fill="#ffffd7">d</text>
<text x="295.2" y="98.4" fill="#ffffd7">e</text>
<text x="303.6" y="98.4" fill="#ffffd7">v</text>
<text x="312.0" y="98.4" fill="#ffffd7">/</text>
<text x="320.4" y="98.4" fill="#ffffd7">c</text>
<text x="328.8" y="98.4" fill="#ffffd7">c</text>
<text x="337.2" y="98.4" fill="#ffffd7">s</text>
<text x="345.6" y="98.4" fill="#ffffd7">i</text>
<text x="354.0" y="98.4" fill="#ffffd7">d</text>
<text x="362.4" y="98.4" fill="#ffffd7">e</text>
<text x="370.8" y="98.4" fill="#ffffd7">k</text>
<text x="379.2" y="98.4" fill="#ffffd7">i</text>
<text x="387.6" y="98.4" fill="#ffffd7">c</text>
<text x="396.0" y="98.4" fill="#ffffd7">k</text>
<text x="412.8" y="98.4" fill="#afaf87">│</text>
<text x="429.6" y="98.4" fill="#ffffd7">O</text>
<text x="438.0" y="98.4" fill="#ffffd7">p</text>
<text x="446.4" y="98.4" fill="#ffffd7">u</text>
<text x="454.8" y="98.4" fill="#ffffd7">s</text>
<text x="471.6" y="98.4" fill="#ffffd7">4</text>
<text x="480.0" y="98.4" fill="#ffffd7">.</text>
<text x="488.4" y="98.4" fill="#ffffd7">8</text>
<text x="505.2" y="98.4" fill="#ffffd7">(</text>
<text x="513.6" y="98.4" fill="#ffffd7">1</text>
<text x="522.0" y="98.4" fill="#ffffd7">M</text>
<text x="530.4" y="98.4" fill="#ffffd7">)</text>
<text x="547.2" y="98.4" fill="#ffffd7">✦</text>
<text x="564.0" y="98.4" fill="#ffffd7">h</text>
<text x="572.4" y="98.4" fill="#ffffd7">i</text>
<text x="580.8" y="98.4" fill="#ffffd7">g</text>
<text x="589.2" y="98.4" fill="#ffffd7">h</text>
<text x="606.0" y="98.4" fill="#afaf87">│</text>
<text x="622.8" y="98.4" fill="#ffffd7">⚡</text>
<text x="648.0" y="98.4" fill="#ffffd7">F</text>
<text x="656.4" y="98.4" fill="#ffffd7">a</text>
<text x="664.8" y="98.4" fill="#ffffd7">s</text>
<text x="673.2" y="98.4" fill="#ffffd7">t</text>
<text x="34.8" y="116.4" fill="#dadada">⠸</text>
<text x="43.2" y="116.4" fill="#d7d7af">⣿</text>
<text x="51.6" y="116.4" fill="#d7d7af">⣿</text>
<text x="60.0" y="116.4" fill="#d7d7af">⣿</text>
<text x="68.4" y="116.4" fill="#afaf87">⣿</text>
<text x="76.8" y="116.4" fill="#afaf87">⣿</text>
<text x="85.2" y="116.4" fill="#afaf87">⣿</text>
<text x="93.6" y="116.4" fill="#afaf87">⠋</text>
<text x="102.0" y="116.4" fill="#afaf87">⠉</text>
<text x="110.4" y="116.4" fill="#afaf87">⠛</text>
<text x="118.8" y="116.4" fill="#afaf87">⠿</text>
<text x="127.2" y="116.4" fill="#afaf87">⢿</text>
<text x="135.6" y="116.4" fill="#af8787">⣿</text>
<text x="144.0" y="116.4" fill="#af8787">⣿</text>
<text x="152.4" y="116.4" fill="#af8787">⠿</text>
<text x="160.8" y="116.4" fill="#af8787">⠓</text>
<text x="244.8" y="116.4" fill="#afaf87">🌿</text>
<text x="270.0" y="116.4" fill="#afaf87">f</text>
<text x="278.4" y="116.4" fill="#afaf87">e</text>
<text x="286.8" y="116.4" fill="#afaf87">a</text>
<text x="295.2" y="116.4" fill="#afaf87">t</text>
<text x="303.6" y="116.4" fill="#afaf87">/</text>
<text x="312.0" y="116.4" fill="#afaf87">w</text>
<text x="320.4" y="116.4" fill="#afaf87">i</text>
<text x="328.8" y="116.4" fill="#afaf87">d</text>
<text x="337.2" y="116.4" fill="#afaf87">g</text>
<text x="345.6" y="116.4" fill="#afaf87">e</text>
<text x="354.0" y="116.4" fill="#afaf87">t</text>
<text x="362.4" y="116.4" fill="#afaf87">-</text>
<text x="370.8" y="116.4" fill="#afaf87">l</text>
<text x="379.2" y="116.4" fill="#afaf87">a</text>
<text x="387.6" y="116.4" fill="#afaf87">y</text>
<text x="396.0" y="116.4" fill="#afaf87">e</text>
<text x="404.4" y="116.4" fill="#afaf87">r</text>
<text x="421.2" y="116.4" fill="#afaf87">│</text>
<text x="438.0" y="116.4" fill="#afaf87">🔗</text>
<text x="463.2" y="116.4" fill="#afaf87">P</text>
<text x="471.6" y="116.4" fill="#afaf87">R</text>
<text x="480.0" y="116.4" fill="#afaf87">:</text>
<a xlink:href="https://github.com/krayong/ccsidekick/pull/42"><text x="496.8" y="116.4" fill="#afaf87">#</text></a>
<a xlink:href="https://github.com/krayong/ccsidekick/pull/42"><text x="505.2" y="116.4" fill="#afaf87">4</text></a>
<a xlink:href="https://github.com/krayong/ccsidekick/pull/42"><text x="513.6" y="116.4" fill="#afaf87">2</text></a>
<text x="530.4" y="116.4" fill="#afaf87">·</text>
<text x="547.2" y="116.4" fill="#87af87">a</text>
<text x="555.6" y="116.4" fill="#87af87">p</text>
<text x="564.0" y="116.4" fill="#87af87">p</text>
<text x="572.4" y="116.4" fill="#87af87">r</text>
<text x="580.8" y="116.4" fill="#87af87">o</text>
<text x="589.2" y="116.4" fill="#87af87">v</text>
<text x="597.6" y="116.4" fill="#87af87">e</text>
<text x="606.0" y="116.4" fill="#87af87">d</text>
<text x="622.8" y="116.4" fill="#afaf87">│</text>
<text x="639.6" y="116.4" fill="#87af87">+</text>
<text x="648.0" y="116.4" fill="#87af87">3</text>
<text x="664.8" y="116.4" fill="#d7af5f">2</text>
<text x="681.6" y="116.4" fill="#d7af5f">f</text>
<text x="690.0" y="116.4" fill="#d7af5f">i</text>
<text x="698.4" y="116.4" fill="#d7af5f">l</text>
<text x="706.8" y="116.4" fill="#d7af5f">e</text>
<text x="715.2" y="116.4" fill="#d7af5f">s</text>
<text x="732.0" y="116.4" fill="#afaf87">│</text>
<text x="748.8" y="116.4" fill="#87af87">↑</text>
<text x="757.2" y="116.4" fill="#87af87">1</text>
<text x="774.0" y="116.4" fill="#afaf87">│</text>
<text x="790.8" y="116.4" fill="#afaf87">(</text>
<text x="799.2" y="116.4" fill="#afaf87">+</text>
<text x="807.6" y="116.4" fill="#afaf87">1</text>
<text x="824.4" y="116.4" fill="#afaf87">!</text>
<text x="832.8" y="116.4" fill="#afaf87">1</text>
<text x="849.6" y="116.4" fill="#afaf87">?</text>
<text x="858.0" y="116.4" fill="#afaf87">1</text>
<text x="866.4" y="116.4" fill="#afaf87">)</text>
<text x="34.8" y="134.4" fill="#d7d7af">⣸</text>
<text x="43.2" y="134.4" fill="#afaf87">⣿</text>
<text x="51.6" y="134.4" fill="#afaf87">⣿</text>
<text x="60.0" y="134.4" fill="#afaf87">⣿</text>
<text x="68.4" y="134.4" fill="#afaf87">⡏</text>
<text x="76.8" y="134.4" fill="#afaf87">⠁</text>
<text x="85.2" y="134.4" fill="#afaf87">⠁</text>
<text x="110.4" y="134.4" fill="#af8787">⠴</text>
<text x="118.8" y="134.4" fill="#af8787">⠦</text>
<text x="135.6" y="134.4" fill="#af8787">⢸</text>
<text x="144.0" y="134.4" fill="#af8787">⡆</text>
<text x="244.8" y="134.4" fill="#af8787">🧾</text>
<text x="270.0" y="134.4" fill="#af8787">C</text>
<text x="278.4" y="134.4" fill="#af8787">h</text>
<text x="286.8" y="134.4" fill="#af8787">a</text>
<text x="295.2" y="134.4" fill="#af8787">t</text>
<text x="312.0" y="134.4" fill="#af8787">C</text>
<text x="320.4" y="134.4" fill="#af8787">o</text>
<text x="328.8" y="134.4" fill="#af8787">s</text>
<text x="337.2" y="134.4" fill="#af8787">t</text>
<text x="345.6" y="134.4" fill="#af8787">:</text>
<text x="362.4" y="134.4" fill="#af8787">$</text>
<text x="370.8" y="134.4" fill="#af8787">0</text>
<text x="379.2" y="134.4" fill="#af8787">.</text>
<text x="387.6" y="134.4" fill="#af8787">4</text>
<text x="396.0" y="134.4" fill="#af8787">8</text>
<text x="412.8" y="134.4" fill="#afaf87">│</text>
<text x="429.6" y="134.4" fill="#af8787">🏗️</text>
<text x="454.8" y="134.4" fill="#af8787">P</text>
<text x="463.2" y="134.4" fill="#af8787">r</text>
<text x="471.6" y="134.4" fill="#af8787">o</text>
<text x="480.0" y="134.4" fill="#af8787">j</text>
<text x="488.4" y="134.4" fill="#af8787">e</text>
<text x="496.8" y="134.4" fill="#af8787">c</text>
<text x="505.2" y="134.4" fill="#af8787">t</text>
<text x="522.0" y="134.4" fill="#af8787">C</text>
<text x="530.4" y="134.4" fill="#af8787">o</text>
<text x="538.8" y="134.4" fill="#af8787">s</text>
<text x="547.2" y="134.4" fill="#af8787">t</text>
<text x="555.6" y="134.4" fill="#af8787">:</text>
<text x="572.4" y="134.4" fill="#af8787">$</text>
<text x="580.8" y="134.4" fill="#af8787">1</text>
<text x="589.2" y="134.4" fill="#af8787">.</text>
<text x="597.6" y="134.4" fill="#af8787">1</text>
<text x="606.0" y="134.4" fill="#af8787">8</text>
<text x="622.8" y="134.4" fill="#afaf87">│</text>
<text x="639.6" y="134.4" fill="#af8787">🏦</text>
<text x="664.8" y="134.4" fill="#af8787">T</text>
<text x="673.2" y="134.4" fill="#af8787">o</text>
<text x="681.6" y="134.4" fill="#af8787">t</text>
<text x="690.0" y="134.4" fill="#af8787">a</text>
<text x="698.4" y="134.4" fill="#af8787">l</text>
<text x="715.2" y="134.4" fill="#af8787">C</text>
<text x="723.6" y="134.4" fill="#af8787">o</text>
<text x="732.0" y="134.4" fill="#af8787">s</text>
<text x="740.4" y="134.4" fill="#af8787">t</text>
<text x="748.8" y="134.4" fill="#af8787">:</text>
<text x="765.6" y="134.4" fill="#af8787">$</text>
<text x="774.0" y="134.4" fill="#af8787">1</text>
<text x="782.4" y="134.4" fill="#af8787">.</text>
<text x="790.8" y="134.4" fill="#af8787">5</text>
<text x="799.2" y="134.4" fill="#af8787">8</text>
<text x="34.8" y="152.4" fill="#afaf87">⠛</text>
<text x="43.2" y="152.4" fill="#afaf87">⠋</text>
<text x="51.6" y="152.4" fill="#afaf87">⣹</text>
<text x="60.0" y="152.4" fill="#afaf87">⣿</text>
<text x="68.4" y="152.4" fill="#afaf87">⣿</text>
<text x="76.8" y="152.4" fill="#afaf87">⡆</text>
<text x="135.6" y="152.4" fill="#af8787">⡶</text>
<text x="144.0" y="152.4" fill="#af8787">⠿</text>
<text x="244.8" y="152.4" fill="#af875f">📊</text>
<text x="270.0" y="152.4" fill="#af875f">C</text>
<text x="278.4" y="152.4" fill="#af875f">o</text>
<text x="286.8" y="152.4" fill="#af875f">n</text>
<text x="295.2" y="152.4" fill="#af875f">t</text>
<text x="303.6" y="152.4" fill="#af875f">e</text>
<text x="312.0" y="152.4" fill="#af875f">x</text>
<text x="320.4" y="152.4" fill="#af875f">t</text>
<text x="337.2" y="152.4" fill="#af875f">U</text>
<text x="345.6" y="152.4" fill="#af875f">s</text>
<text x="354.0" y="152.4" fill="#af875f">a</text>
<text x="362.4" y="152.4" fill="#af875f">g</text>
<text x="370.8" y="152.4" fill="#af875f">e</text>
<text x="379.2" y="152.4" fill="#af875f">:</text>
<text x="396.0" y="152.4" fill="#d7af5f">4</text>
<text x="404.4" y="152.4" fill="#d7af5f">3</text>
<text x="412.8" y="152.4" fill="#d7af5f">%</text>
<text x="429.6" y="152.4" fill="#d7af5f">(</text>
<text x="438.0" y="152.4" fill="#d7af5f">4</text>
<text x="446.4" y="152.4" fill="#d7af5f">3</text>
<text x="454.8" y="152.4" fill="#d7af5f">0</text>
<text x="463.2" y="152.4" fill="#d7af5f">k</text>
<text x="471.6" y="152.4" fill="#d7af5f">/</text>
<text x="480.0" y="152.4" fill="#d7af5f">1</text>
<text x="488.4" y="152.4" fill="#d7af5f">M</text>
<text x="496.8" y="152.4" fill="#d7af5f">)</text>
<text x="513.6" y="152.4" fill="#afaf87">│</text>
<text x="530.4" y="152.4" fill="#af875f">⏱️</text>
<text x="555.6" y="152.4" fill="#af875f">B</text>
<text x="564.0" y="152.4" fill="#af875f">l</text>
<text x="572.4" y="152.4" fill="#af875f">o</text>
<text x="580.8" y="152.4" fill="#af875f">c</text>
<text x="589.2" y="152.4" fill="#af875f">k</text>
<text x="606.0" y="152.4" fill="#af875f">U</text>
<text x="614.4" y="152.4" fill="#af875f">s</text>
<text x="622.8" y="152.4" fill="#af875f">a</text>
<text x="631.2" y="152.4" fill="#af875f">g</text>
<text x="639.6" y="152.4" fill="#af875f">e</text>
<text x="648.0" y="152.4" fill="#af875f">:</text>
<text x="664.8" y="152.4" fill="#d75f5f">8</text>
<text x="673.2" y="152.4" fill="#d75f5f">6</text>
<text x="681.6" y="152.4" fill="#d75f5f">%</text>
<text x="698.4" y="152.4" fill="#d75f5f">(</text>
<text x="706.8" y="152.4" fill="#d75f5f">2</text>
<text x="715.2" y="152.4" fill="#d75f5f">h</text>
<text x="732.0" y="152.4" fill="#d75f5f">1</text>
<text x="740.4" y="152.4" fill="#d75f5f">3</text>
<text x="748.8" y="152.4" fill="#d75f5f">m</text>
<text x="765.6" y="152.4" fill="#d75f5f">l</text>
<text x="774.0" y="152.4" fill="#d75f5f">e</text>
<text x="782.4" y="152.4" fill="#d75f5f">f</text>
<text x="790.8" y="152.4" fill="#d75f5f">t</text>
<text x="799.2" y="152.4" fill="#d75f5f">)</text>
<text x="816.0" y="152.4" fill="#afaf87">│</text>
<text x="832.8" y="152.4" fill="#af875f">📅</text>
<text x="858.0" y="152.4" fill="#af875f">W</text>
<text x="866.4" y="152.4" fill="#af875f">e</text>
<text x="874.8" y="152.4" fill="#af875f">e</text>
<text x="883.2" y="152.4" fill="#af875f">k</text>
<text x="891.6" y="152.4" fill="#af875f">l</text>
<text x="900.0" y="152.4" fill="#af875f">y</text>
<text x="916.8" y="152.4" fill="#af875f">U</text>
<text x="925.2" y="152.4" fill="#af875f">s</text>
<text x="933.6" y="152.4" fill="#af875f">a</text>
<text x="942.0" y="152.4" fill="#af875f">g</text>
<text x="950.4" y="152.4" fill="#af875f">e</text>
<text x="958.8" y="152.4" fill="#af875f">:</text>
<text x="975.6" y="152.4" fill="#d7af5f">6</text>
<text x="984.0" y="152.4" fill="#d7af5f">3</text>
<text x="992.4" y="152.4" fill="#d7af5f">%</text>
<text x="1009.2" y="152.4" fill="#d7af5f">(</text>
<text x="1017.6" y="152.4" fill="#d7af5f">3</text>
<text x="1026.0" y="152.4" fill="#d7af5f">d</text>
<text x="1042.8" y="152.4" fill="#d7af5f">4</text>
<text x="1051.2" y="152.4" fill="#d7af5f">h</text>
<text x="1068.0" y="152.4" fill="#d7af5f">l</text>
<text x="1076.4" y="152.4" fill="#d7af5f">e</text>
<text x="1084.8" y="152.4" fill="#d7af5f">f</text>
<text x="1093.2" y="152.4" fill="#d7af5f">t</text>
<text x="1101.6" y="152.4" fill="#d7af5f">)</text>
<text x="34.8" y="170.4" fill="#afaf87">⢀</text>
<text x="43.2" y="170.4" fill="#afaf87">⣾</text>
<text x="51.6" y="170.4" fill="#afaf87">⣿</text>
<text x="60.0" y="170.4" fill="#af8787">⣿</text>
<text x="68.4" y="170.4" fill="#af8787">⣿</text>
<text x="76.8" y="170.4" fill="#af8787">⣿</text>
<text x="85.2" y="170.4" fill="#af8787">⣶</text>
<text x="93.6" y="170.4" fill="#af8787">⣤</text>
<text x="102.0" y="170.4" fill="#af8787">⣀</text>
<text x="135.6" y="170.4" fill="#af875f">⣿</text>
<text x="144.0" y="170.4" fill="#af875f">⡶</text>
<text x="152.4" y="170.4" fill="#af875f">⠶</text>
<text x="160.8" y="170.4" fill="#af875f">⢶</text>
<text x="169.2" y="170.4" fill="#af875f">⡄</text>
<text x="186.0" y="170.4" fill="#af875f">⣀</text>
<text x="194.4" y="170.4" fill="#af875f">⣀</text>
<text x="202.8" y="170.4" fill="#af875f">⡀</text>
<text x="26.4" y="188.4" fill="#afaf87">⠠</text>
<text x="34.8" y="188.4" fill="#af8787">⣾</text>
<text x="43.2" y="188.4" fill="#af8787">⣿</text>
<text x="51.6" y="188.4" fill="#af8787">⣿</text>
<text x="60.0" y="188.4" fill="#af8787">⣿</text>
<text x="68.4" y="188.4" fill="#af8787">⣿</text>
<text x="76.8" y="188.4" fill="#af8787">⣿</text>
<text x="85.2" y="188.4" fill="#af8787">⣿</text>
<text x="93.6" y="188.4" fill="#af8787">⣿</text>
<text x="102.0" y="188.4" fill="#af8787">⣿</text>
<text x="110.4" y="188.4" fill="#af875f">⣿</text>
<text x="118.8" y="188.4" fill="#af875f">⣿</text>
<text x="127.2" y="188.4" fill="#af875f">⠚</text>
<text x="135.6" y="188.4" fill="#af875f">⠃</text>
<text x="169.2" y="188.4" fill="#af875f">⢻</text>
<text x="177.6" y="188.4" fill="#af875f">⣶</text>
<text x="186.0" y="188.4" fill="#af875f">⣿</text>
<text x="194.4" y="188.4" fill="#87875f">⣿</text>
<text x="202.8" y="188.4" fill="#87875f">⡇</text>
<text x="244.8" y="188.4" fill="#ffffd7">🕵</text>
<text x="270.0" y="188.4" fill="#ffffd7">F</text>
<text x="278.4" y="188.4" fill="#ffffd7">i</text>
<text x="286.8" y="188.4" fill="#ffffd7">v</text>
<text x="295.2" y="188.4" fill="#ffffd7">e</text>
<text x="312.0" y="188.4" fill="#ffffd7">h</text>
<text x="320.4" y="188.4" fill="#ffffd7">o</text>
<text x="328.8" y="188.4" fill="#ffffd7">u</text>
<text x="337.2" y="188.4" fill="#ffffd7">r</text>
<text x="345.6" y="188.4" fill="#ffffd7">s</text>
<text x="362.4" y="188.4" fill="#ffffd7">i</text>
<text x="370.8" y="188.4" fill="#ffffd7">s</text>
<text x="387.6" y="188.4" fill="#ffffd7">a</text>
<text x="404.4" y="188.4" fill="#d7d7af">f</text>
<text x="412.8" y="188.4" fill="#d7d7af">a</text>
<text x="421.2" y="188.4" fill="#d7d7af">i</text>
<text x="429.6" y="188.4" fill="#d7d7af">r</text>
<text x="446.4" y="188.4" fill="#d7d7af">w</text>
<text x="454.8" y="188.4" fill="#d7d7af">a</text>
<text x="463.2" y="188.4" fill="#d7d7af">t</text>
<text x="471.6" y="188.4" fill="#d7d7af">c</text>
<text x="480.0" y="188.4" fill="#d7d7af">h</text>
<text x="488.4" y="188.4" fill="#d7d7af">.</text>
<text x="505.2" y="188.4" fill="#d7d7af">I</text>
<text x="522.0" y="188.4" fill="#d7d7af">s</text>
<text x="530.4" y="188.4" fill="#d7d7af">p</text>
<text x="538.8" y="188.4" fill="#d7d7af">e</text>
<text x="547.2" y="188.4" fill="#d7d7af">n</text>
<text x="555.6" y="188.4" fill="#d7d7af">d</text>
<text x="572.4" y="188.4" fill="#d7d7af">t</text>
<text x="580.8" y="188.4" fill="#d7d7af">h</text>
<text x="589.2" y="188.4" fill="#d7d7af">e</text>
<text x="606.0" y="188.4" fill="#d7d7af">l</text>
<text x="614.4" y="188.4" fill="#d7d7af">a</text>
<text x="622.8" y="188.4" fill="#d7d7af">s</text>
<text x="631.2" y="188.4" fill="#d7d7af">t</text>
<text x="648.0" y="188.4" fill="#b2b2b2">o</text>
<text x="656.4" y="188.4" fill="#afaf87">f</text>
<text x="673.2" y="188.4" fill="#afaf87">i</text>
<text x="681.6" y="188.4" fill="#afaf87">t</text>
<text x="698.4" y="188.4" fill="#afaf87">w</text>
<text x="706.8" y="188.4" fill="#afaf87">i</text>
<text x="715.2" y="188.4" fill="#afaf87">t</text>
<text x="723.6" y="188.4" fill="#afaf87">h</text>
<text x="740.4" y="188.4" fill="#afaf87">c</text>
<text x="748.8" y="188.4" fill="#afaf87">a</text>
<text x="757.2" y="188.4" fill="#afaf87">r</text>
<text x="765.6" y="188.4" fill="#afaf87">e</text>
<text x="774.0" y="188.4" fill="#afaf87">.</text>
<text x="43.2" y="206.4" fill="#af8787">⠉</text>
<text x="51.6" y="206.4" fill="#af8787">⠉</text>
<text x="60.0" y="206.4" fill="#af8787">⠉</text>
<text x="68.4" y="206.4" fill="#af8787">⠛</text>
<text x="76.8" y="206.4" fill="#af8787">⠛</text>
<text x="85.2" y="206.4" fill="#af875f">⠻</text>
<text x="93.6" y="206.4" fill="#af875f">⠿</text>
<text x="102.0" y="206.4" fill="#af875f">⢿</text>
<text x="110.4" y="206.4" fill="#af875f">⣿</text>
<text x="118.8" y="206.4" fill="#af875f">⣿</text>
<text x="127.2" y="206.4" fill="#af875f">⣷</text>
<text x="135.6" y="206.4" fill="#af875f">⣄</text>
<text x="177.6" y="206.4" fill="#87875f">⠉</text>
<text x="186.0" y="206.4" fill="#87875f">⠉</text>
<text x="194.4" y="206.4" fill="#87875f">⠉</text>
</svg>
