<svg xmlns:xlink="http://www.w3.org/1999/xlink"
     font-family="ui-monospace, 'SF Mono', Menlo, Consolas, 'DejaVu Sans Mono', monospace"
     font-size="14"
     height="228" viewBox="0 0 1128 228"
     width="1128"
     xmlns="http://www.w3.org/2000/svg">
	<rect fill="#0d1117" height="228" rx="10" width="1128"/>
	<path d="M0 30 V10 a10 10 0 0 1 10 -10 H1118 a10 10 0 0 1 10 10 V30 Z" fill="#161b22"/>
	<circle cx="18" cy="15" fill="#ff5f56" r="5.5"/>
	<circle cx="36" cy="15" fill="#ffbd2e" r="5.5"/>
	<circle cx="54" cy="15" fill="#27c93f" r="5.5"/>
	<text fill="#8b949e" font-size="12" text-anchor="middle" x="564" y="19">Sherlock Holmes —
		ccsidekick
	</text>
	<text fill="#af875f" x="51.6" y="62.4">⢀</text>
	<text fill="#af875f" x="60.0" y="62.4">⣤</text>
	<text fill="#af875f" x="68.4" y="62.4">⣿</text>
	<text fill="#af875f" x="76.8" y="62.4">⣿</text>
	<text fill="#af875f" x="85.2" y="62.4">⣿</text>
	<text fill="#af875f" x="93.6" y="62.4">⣿</text>
	<text fill="#af875f" x="102.0" y="62.4">⣶</text>
	<text fill="#af875f" x="110.4" y="62.4">⣦</text>
	<text fill="#af875f" x="118.8" y="62.4">⣄</text>
	<text fill="#c9d1d9" x="244.8" y="62.4">⚠️</text>
	<text fill="#ffffff" x="270.0" y="62.4">5</text>
	<text fill="#ffffff" x="278.4" y="62.4">h</text>
	<text fill="#ffffff" x="295.2" y="62.4">l</text>
	<text fill="#ffffff" x="303.6" y="62.4">i</text>
	<text fill="#ffffff" x="312.0" y="62.4">m</text>
	<text fill="#ffffff" x="320.4" y="62.4">i</text>
	<text fill="#ffffff" x="328.8" y="62.4">t</text>
	<text fill="#ffffff" x="345.6" y="62.4">a</text>
	<text fill="#ffffff" x="354.0" y="62.4">t</text>
	<text fill="#ffffff" x="370.8" y="62.4">8</text>
	<text fill="#ffffff" x="379.2" y="62.4">6</text>
	<text fill="#ffffff" x="387.6" y="62.4">%</text>
	<text fill="#ffffff" x="396.0" y="62.4">,</text>
	<text fill="#ffffff" x="412.8" y="62.4">2</text>
	<text fill="#ffffff" x="421.2" y="62.4">h</text>
	<text fill="#ffffff" x="438.0" y="62.4">1</text>
	<text fill="#ffffff" x="446.4" y="62.4">3</text>
	<text fill="#ffffff" x="454.8" y="62.4">m</text>
	<text fill="#ffffff" x="471.6" y="62.4">t</text>
	<text fill="#ffffff" x="480.0" y="62.4">o</text>
	<text fill="#ffffff" x="496.8" y="62.4">r</text>
	<text fill="#ffffff" x="505.2" y="62.4">e</text>
	<text fill="#ffffff" x="513.6" y="62.4">s</text>
	<text fill="#ffffff" x="522.0" y="62.4">e</text>
	<text fill="#ffffff" x="530.4" y="62.4">t</text>
	<text fill="#ffffff" x="538.8" y="62.4">.</text>
	<text fill="#ffffff" x="555.6" y="62.4">S</text>
	<text fill="#ffffff" x="564.0" y="62.4">a</text>
	<text fill="#ffffff" x="572.4" y="62.4">v</text>
	<text fill="#ffffff" x="580.8" y="62.4">e</text>
	<text fill="#ffffff" x="597.6" y="62.4">h</text>
	<text fill="#ffffff" x="606.0" y="62.4">e</text>
	<text fill="#ffffff" x="614.4" y="62.4">a</text>
	<text fill="#ffffff" x="622.8" y="62.4">v</text>
	<text fill="#ffffff" x="631.2" y="62.4">y</text>
	<text fill="#ffffff" x="648.0" y="62.4">a</text>
	<text fill="#ffffff" x="656.4" y="62.4">s</text>
	<text fill="#ffffff" x="664.8" y="62.4">k</text>
	<text fill="#ffffff" x="673.2" y="62.4">s</text>
	<text fill="#ffffff" x="690.0" y="62.4">f</text>
	<text fill="#ffffff" x="698.4" y="62.4">o</text>
	<text fill="#ffffff" x="706.8" y="62.4">r</text>
	<text fill="#ffffff" x="723.6" y="62.4">a</text>
	<text fill="#ffffff" x="732.0" y="62.4">f</text>
	<text fill="#ffffff" x="740.4" y="62.4">t</text>
	<text fill="#ffffff" x="748.8" y="62.4">e</text>
	<text fill="#ffffff" x="757.2" y="62.4">r</text>
	<text fill="#ffffff" x="765.6" y="62.4">.</text>
	<text fill="#af875f" x="43.2" y="80.4">⣰</text>
	<text fill="#af875f" x="51.6" y="80.4">⣿</text>
	<text fill="#af875f" x="60.0" y="80.4">⣿</text>
	<text fill="#af875f" x="68.4" y="80.4">⣿</text>
	<text fill="#af875f" x="76.8" y="80.4">⣿</text>
	<text fill="#af875f" x="85.2" y="80.4">⣿</text>
	<text fill="#af875f" x="93.6" y="80.4">⣿</text>
	<text fill="#87875f" x="102.0" y="80.4">⣿</text>
	<text fill="#87875f" x="110.4" y="80.4">⣿</text>
	<text fill="#87875f" x="118.8" y="80.4">⣿</text>
	<text fill="#87875f" x="127.2" y="80.4">⣷</text>
	<text fill="#87875f" x="135.6" y="80.4">⡀</text>
	<text fill="#af875f" x="34.8" y="98.4">⢠</text>
	<text fill="#af875f" x="43.2" y="98.4">⣿</text>
	<text fill="#af875f" x="51.6" y="98.4">⣿</text>
	<text fill="#af875f" x="60.0" y="98.4">⣿</text>
	<text fill="#af875f" x="68.4" y="98.4">⣿</text>
	<text fill="#87875f" x="76.8" y="98.4">⣿</text>
	<text fill="#87875f" x="85.2" y="98.4">⣿</text>
	<text fill="#87875f" x="93.6" y="98.4">⣿</text>
	<text fill="#87875f" x="102.0" y="98.4">⣿</text>
	<text fill="#87875f" x="110.4" y="98.4">⣿</text>
	<text fill="#87875f" x="118.8" y="98.4">⣿</text>
	<text fill="#87875f" x="127.2" y="98.4">⣿</text>
	<text fill="#87875f" x="135.6" y="98.4">⣷</text>
	<text fill="#afaf87" x="144.0" y="98.4">⣤</text>
	<text fill="#afaf87" x="152.4" y="98.4">⣀</text>
	<text fill="#ffffd7" x="244.8" y="98.4">📁</text>
	<text fill="#ffffd7" x="270.0" y="98.4">~</text>
	<text fill="#ffffd7" x="278.4" y="98.4">/</text>
	<text fill="#ffffd7" x="286.8" y="98.4">d</text>
	<text fill="#ffffd7" x="295.2" y="98.4">e</text>
	<text fill="#ffffd7" x="303.6" y="98.4">v</text>
	<text fill="#ffffd7" x="312.0" y="98.4">/</text>
	<text fill="#ffffd7" x="320.4" y="98.4">c</text>
	<text fill="#ffffd7" x="328.8" y="98.4">c</text>
	<text fill="#ffffd7" x="337.2" y="98.4">s</text>
	<text fill="#ffffd7" x="345.6" y="98.4">i</text>
	<text fill="#ffffd7" x="354.0" y="98.4">d</text>
	<text fill="#ffffd7" x="362.4" y="98.4">e</text>
	<text fill="#ffffd7" x="370.8" y="98.4">k</text>
	<text fill="#ffffd7" x="379.2" y="98.4">i</text>
	<text fill="#ffffd7" x="387.6" y="98.4">c</text>
	<text fill="#ffffd7" x="396.0" y="98.4">k</text>
	<text fill="#afaf87" x="412.8" y="98.4">│</text>
	<text fill="#ffffd7" x="429.6" y="98.4">O</text>
	<text fill="#ffffd7" x="438.0" y="98.4">p</text>
	<text fill="#ffffd7" x="446.4" y="98.4">u</text>
	<text fill="#ffffd7" x="454.8" y="98.4">s</text>
	<text fill="#ffffd7" x="471.6" y="98.4">4</text>
	<text fill="#ffffd7" x="480.0" y="98.4">.</text>
	<text fill="#ffffd7" x="488.4" y="98.4">8</text>
	<text fill="#ffffd7" x="505.2" y="98.4">(</text>
	<text fill="#ffffd7" x="513.6" y="98.4">1</text>
	<text fill="#ffffd7" x="522.0" y="98.4">M</text>
	<text fill="#ffffd7" x="530.4" y="98.4">)</text>
	<text fill="#ffffd7" x="547.2" y="98.4">✦</text>
	<text fill="#ffffd7" x="564.0" y="98.4">h</text>
	<text fill="#ffffd7" x="572.4" y="98.4">i</text>
	<text fill="#ffffd7" x="580.8" y="98.4">g</text>
	<text fill="#ffffd7" x="589.2" y="98.4">h</text>
	<text fill="#afaf87" x="606.0" y="98.4">│</text>
	<text fill="#ffffd7" x="622.8" y="98.4">⚡</text>
	<text fill="#ffffd7" x="648.0" y="98.4">F</text>
	<text fill="#ffffd7" x="656.4" y="98.4">a</text>
	<text fill="#ffffd7" x="664.8" y="98.4">s</text>
	<text fill="#ffffd7" x="673.2" y="98.4">t</text>
	<text fill="#af875f" x="34.8" y="116.4">⠸</text>
	<text fill="#af875f" x="43.2" y="116.4">⣿</text>
	<text fill="#87875f" x="51.6" y="116.4">⣿</text>
	<text fill="#87875f" x="60.0" y="116.4">⣿</text>
	<text fill="#87875f" x="68.4" y="116.4">⣿</text>
	<text fill="#87875f" x="76.8" y="116.4">⣿</text>
	<text fill="#87875f" x="85.2" y="116.4">⣿</text>
	<text fill="#87875f" x="93.6" y="116.4">⠋</text>
	<text fill="#87875f" x="102.0" y="116.4">⠉</text>
	<text fill="#87875f" x="110.4" y="116.4">⠛</text>
	<text fill="#afaf87" x="118.8" y="116.4">⠿</text>
	<text fill="#afaf87" x="127.2" y="116.4">⢿</text>
	<text fill="#d7d7af" x="135.6" y="116.4">⣿</text>
	<text fill="#d7d7af" x="144.0" y="116.4">⣿</text>
	<text fill="#ffffd7" x="152.4" y="116.4">⠿</text>
	<text fill="#ffffd7" x="160.8" y="116.4">⠓</text>
	<text fill="#afaf87" x="244.8" y="116.4">🌿</text>
	<text fill="#afaf87" x="270.0" y="116.4">f</text>
	<text fill="#afaf87" x="278.4" y="116.4">e</text>
	<text fill="#afaf87" x="286.8" y="116.4">a</text>
	<text fill="#afaf87" x="295.2" y="116.4">t</text>
	<text fill="#afaf87" x="303.6" y="116.4">/</text>
	<text fill="#afaf87" x="312.0" y="116.4">w</text>
	<text fill="#afaf87" x="320.4" y="116.4">i</text>
	<text fill="#afaf87" x="328.8" y="116.4">d</text>
	<text fill="#afaf87" x="337.2" y="116.4">g</text>
	<text fill="#afaf87" x="345.6" y="116.4">e</text>
	<text fill="#afaf87" x="354.0" y="116.4">t</text>
	<text fill="#afaf87" x="362.4" y="116.4">-</text>
	<text fill="#afaf87" x="370.8" y="116.4">l</text>
	<text fill="#afaf87" x="379.2" y="116.4">a</text>
	<text fill="#afaf87" x="387.6" y="116.4">y</text>
	<text fill="#afaf87" x="396.0" y="116.4">e</text>
	<text fill="#afaf87" x="404.4" y="116.4">r</text>
	<text fill="#afaf87" x="421.2" y="116.4">│</text>
	<text fill="#afaf87" x="438.0" y="116.4">🔗</text>
	<text fill="#afaf87" x="463.2" y="116.4">P</text>
	<text fill="#afaf87" x="471.6" y="116.4">R</text>
	<text fill="#afaf87" x="480.0" y="116.4">:</text>
	<a xlink:href="https://github.com/krayong/ccsidekick/pull/42">
		<text fill="#afaf87" x="496.8" y="116.4">#</text>
	</a>
	<a xlink:href="https://github.com/krayong/ccsidekick/pull/42">
		<text fill="#afaf87" x="505.2" y="116.4">4</text>
	</a>
	<a xlink:href="https://github.com/krayong/ccsidekick/pull/42">
		<text fill="#afaf87" x="513.6" y="116.4">2</text>
	</a>
	<text fill="#afaf87" x="530.4" y="116.4">·</text>
	<text fill="#87af87" x="547.2" y="116.4">a</text>
	<text fill="#87af87" x="555.6" y="116.4">p</text>
	<text fill="#87af87" x="564.0" y="116.4">p</text>
	<text fill="#87af87" x="572.4" y="116.4">r</text>
	<text fill="#87af87" x="580.8" y="116.4">o</text>
	<text fill="#87af87" x="589.2" y="116.4">v</text>
	<text fill="#87af87" x="597.6" y="116.4">e</text>
	<text fill="#87af87" x="606.0" y="116.4">d</text>
	<text fill="#afaf87" x="622.8" y="116.4">│</text>
	<text fill="#87af87" x="639.6" y="116.4">+</text>
	<text fill="#87af87" x="648.0" y="116.4">3</text>
	<text fill="#d7af5f" x="664.8" y="116.4">2</text>
	<text fill="#d7af5f" x="681.6" y="116.4">f</text>
	<text fill="#d7af5f" x="690.0" y="116.4">i</text>
	<text fill="#d7af5f" x="698.4" y="116.4">l</text>
	<text fill="#d7af5f" x="706.8" y="116.4">e</text>
	<text fill="#d7af5f" x="715.2" y="116.4">s</text>
	<text fill="#afaf87" x="732.0" y="116.4">│</text>
	<text fill="#87af87" x="748.8" y="116.4">↑</text>
	<text fill="#87af87" x="757.2" y="116.4">1</text>
	<text fill="#afaf87" x="774.0" y="116.4">│</text>
	<text fill="#afaf87" x="790.8" y="116.4">(</text>
	<text fill="#afaf87" x="799.2" y="116.4">+</text>
	<text fill="#afaf87" x="807.6" y="116.4">1</text>
	<text fill="#afaf87" x="824.4" y="116.4">!</text>
	<text fill="#afaf87" x="832.8" y="116.4">1</text>
	<text fill="#afaf87" x="849.6" y="116.4">?</text>
	<text fill="#afaf87" x="858.0" y="116.4">1</text>
	<text fill="#afaf87" x="866.4" y="116.4">)</text>
	<text fill="#87875f" x="34.8" y="134.4">⣸</text>
	<text fill="#87875f" x="43.2" y="134.4">⣿</text>
	<text fill="#87875f" x="51.6" y="134.4">⣿</text>
	<text fill="#87875f" x="60.0" y="134.4">⣿</text>
	<text fill="#87875f" x="68.4" y="134.4">⡏</text>
	<text fill="#87875f" x="76.8" y="134.4">⠁</text>
	<text fill="#87875f" x="85.2" y="134.4">⠁</text>
	<text fill="#d7d7af" x="110.4" y="134.4">⠴</text>
	<text fill="#d7d7af" x="118.8" y="134.4">⠦</text>
	<text fill="#ffffd7" x="135.6" y="134.4">⢸</text>
	<text fill="#ffffd7" x="144.0" y="134.4">⡆</text>
	<text fill="#af8787" x="244.8" y="134.4">🧾</text>
	<text fill="#af8787" x="270.0" y="134.4">C</text>
	<text fill="#af8787" x="278.4" y="134.4">h</text>
	<text fill="#af8787" x="286.8" y="134.4">a</text>
	<text fill="#af8787" x="295.2" y="134.4">t</text>
	<text fill="#af8787" x="312.0" y="134.4">C</text>
	<text fill="#af8787" x="320.4" y="134.4">o</text>
	<text fill="#af8787" x="328.8" y="134.4">s</text>
	<text fill="#af8787" x="337.2" y="134.4">t</text>
	<text fill="#af8787" x="345.6" y="134.4">:</text>
	<text fill="#af8787" x="362.4" y="134.4">$</text>
	<text fill="#af8787" x="370.8" y="134.4">0</text>
	<text fill="#af8787" x="379.2" y="134.4">.</text>
	<text fill="#af8787" x="387.6" y="134.4">4</text>
	<text fill="#af8787" x="396.0" y="134.4">8</text>
	<text fill="#afaf87" x="412.8" y="134.4">│</text>
	<text fill="#af8787" x="429.6" y="134.4">🏗️</text>
	<text fill="#af8787" x="454.8" y="134.4">P</text>
	<text fill="#af8787" x="463.2" y="134.4">r</text>
	<text fill="#af8787" x="471.6" y="134.4">o</text>
	<text fill="#af8787" x="480.0" y="134.4">j</text>
	<text fill="#af8787" x="488.4" y="134.4">e</text>
	<text fill="#af8787" x="496.8" y="134.4">c</text>
	<text fill="#af8787" x="505.2" y="134.4">t</text>
	<text fill="#af8787" x="522.0" y="134.4">C</text>
	<text fill="#af8787" x="530.4" y="134.4">o</text>
	<text fill="#af8787" x="538.8" y="134.4">s</text>
	<text fill="#af8787" x="547.2" y="134.4">t</text>
	<text fill="#af8787" x="555.6" y="134.4">:</text>
	<text fill="#af8787" x="572.4" y="134.4">$</text>
	<text fill="#af8787" x="580.8" y="134.4">1</text>
	<text fill="#af8787" x="589.2" y="134.4">.</text>
	<text fill="#af8787" x="597.6" y="134.4">1</text>
	<text fill="#af8787" x="606.0" y="134.4">8</text>
	<text fill="#afaf87" x="622.8" y="134.4">│</text>
	<text fill="#af8787" x="639.6" y="134.4">🏦</text>
	<text fill="#af8787" x="664.8" y="134.4">T</text>
	<text fill="#af8787" x="673.2" y="134.4">o</text>
	<text fill="#af8787" x="681.6" y="134.4">t</text>
	<text fill="#af8787" x="690.0" y="134.4">a</text>
	<text fill="#af8787" x="698.4" y="134.4">l</text>
	<text fill="#af8787" x="715.2" y="134.4">C</text>
	<text fill="#af8787" x="723.6" y="134.4">o</text>
	<text fill="#af8787" x="732.0" y="134.4">s</text>
	<text fill="#af8787" x="740.4" y="134.4">t</text>
	<text fill="#af8787" x="748.8" y="134.4">:</text>
	<text fill="#af8787" x="765.6" y="134.4">$</text>
	<text fill="#af8787" x="774.0" y="134.4">1</text>
	<text fill="#af8787" x="782.4" y="134.4">.</text>
	<text fill="#af8787" x="790.8" y="134.4">5</text>
	<text fill="#af8787" x="799.2" y="134.4">8</text>
	<text fill="#87875f" x="34.8" y="152.4">⠛</text>
	<text fill="#87875f" x="43.2" y="152.4">⠋</text>
	<text fill="#87875f" x="51.6" y="152.4">⣹</text>
	<text fill="#87875f" x="60.0" y="152.4">⣿</text>
	<text fill="#afaf87" x="68.4" y="152.4">⣿</text>
	<text fill="#afaf87" x="76.8" y="152.4">⡆</text>
	<text fill="#ffffd7" x="135.6" y="152.4">⡶</text>
	<text fill="#ffffd7" x="144.0" y="152.4">⠿</text>
	<text fill="#af875f" x="244.8" y="152.4">📊</text>
	<text fill="#af875f" x="270.0" y="152.4">C</text>
	<text fill="#af875f" x="278.4" y="152.4">o</text>
	<text fill="#af875f" x="286.8" y="152.4">n</text>
	<text fill="#af875f" x="295.2" y="152.4">t</text>
	<text fill="#af875f" x="303.6" y="152.4">e</text>
	<text fill="#af875f" x="312.0" y="152.4">x</text>
	<text fill="#af875f" x="320.4" y="152.4">t</text>
	<text fill="#af875f" x="337.2" y="152.4">U</text>
	<text fill="#af875f" x="345.6" y="152.4">s</text>
	<text fill="#af875f" x="354.0" y="152.4">a</text>
	<text fill="#af875f" x="362.4" y="152.4">g</text>
	<text fill="#af875f" x="370.8" y="152.4">e</text>
	<text fill="#af875f" x="379.2" y="152.4">:</text>
	<text fill="#d7af5f" x="396.0" y="152.4">4</text>
	<text fill="#d7af5f" x="404.4" y="152.4">3</text>
	<text fill="#d7af5f" x="412.8" y="152.4">%</text>
	<text fill="#d7af5f" x="429.6" y="152.4">(</text>
	<text fill="#d7af5f" x="438.0" y="152.4">4</text>
	<text fill="#d7af5f" x="446.4" y="152.4">3</text>
	<text fill="#d7af5f" x="454.8" y="152.4">0</text>
	<text fill="#d7af5f" x="463.2" y="152.4">k</text>
	<text fill="#d7af5f" x="471.6" y="152.4">/</text>
	<text fill="#d7af5f" x="480.0" y="152.4">1</text>
	<text fill="#d7af5f" x="488.4" y="152.4">M</text>
	<text fill="#d7af5f" x="496.8" y="152.4">)</text>
	<text fill="#afaf87" x="513.6" y="152.4">│</text>
	<text fill="#af875f" x="530.4" y="152.4">⏱️</text>
	<text fill="#af875f" x="555.6" y="152.4">B</text>
	<text fill="#af875f" x="564.0" y="152.4">l</text>
	<text fill="#af875f" x="572.4" y="152.4">o</text>
	<text fill="#af875f" x="580.8" y="152.4">c</text>
	<text fill="#af875f" x="589.2" y="152.4">k</text>
	<text fill="#af875f" x="606.0" y="152.4">U</text>
	<text fill="#af875f" x="614.4" y="152.4">s</text>
	<text fill="#af875f" x="622.8" y="152.4">a</text>
	<text fill="#af875f" x="631.2" y="152.4">g</text>
	<text fill="#af875f" x="639.6" y="152.4">e</text>
	<text fill="#af875f" x="648.0" y="152.4">:</text>
	<text fill="#d75f5f" x="664.8" y="152.4">8</text>
	<text fill="#d75f5f" x="673.2" y="152.4">6</text>
	<text fill="#d75f5f" x="681.6" y="152.4">%</text>
	<text fill="#d75f5f" x="698.4" y="152.4">(</text>
	<text fill="#d75f5f" x="706.8" y="152.4">2</text>
	<text fill="#d75f5f" x="715.2" y="152.4">h</text>
	<text fill="#d75f5f" x="732.0" y="152.4">1</text>
	<text fill="#d75f5f" x="740.4" y="152.4">3</text>
	<text fill="#d75f5f" x="748.8" y="152.4">m</text>
	<text fill="#d75f5f" x="765.6" y="152.4">l</text>
	<text fill="#d75f5f" x="774.0" y="152.4">e</text>
	<text fill="#d75f5f" x="782.4" y="152.4">f</text>
	<text fill="#d75f5f" x="790.8" y="152.4">t</text>
	<text fill="#d75f5f" x="799.2" y="152.4">)</text>
	<text fill="#afaf87" x="816.0" y="152.4">│</text>
	<text fill="#af875f" x="832.8" y="152.4">📅</text>
	<text fill="#af875f" x="858.0" y="152.4">W</text>
	<text fill="#af875f" x="866.4" y="152.4">e</text>
	<text fill="#af875f" x="874.8" y="152.4">e</text>
	<text fill="#af875f" x="883.2" y="152.4">k</text>
	<text fill="#af875f" x="891.6" y="152.4">l</text>
	<text fill="#af875f" x="900.0" y="152.4">y</text>
	<text fill="#af875f" x="916.8" y="152.4">U</text>
	<text fill="#af875f" x="925.2" y="152.4">s</text>
	<text fill="#af875f" x="933.6" y="152.4">a</text>
	<text fill="#af875f" x="942.0" y="152.4">g</text>
	<text fill="#af875f" x="950.4" y="152.4">e</text>
	<text fill="#af875f" x="958.8" y="152.4">:</text>
	<text fill="#d7af5f" x="975.6" y="152.4">6</text>
	<text fill="#d7af5f" x="984.0" y="152.4">3</text>
	<text fill="#d7af5f" x="992.4" y="152.4">%</text>
	<text fill="#d7af5f" x="1009.2" y="152.4">(</text>
	<text fill="#d7af5f" x="1017.6" y="152.4">3</text>
	<text fill="#d7af5f" x="1026.0" y="152.4">d</text>
	<text fill="#d7af5f" x="1042.8" y="152.4">4</text>
	<text fill="#d7af5f" x="1051.2" y="152.4">h</text>
	<text fill="#d7af5f" x="1068.0" y="152.4">l</text>
	<text fill="#d7af5f" x="1076.4" y="152.4">e</text>
	<text fill="#d7af5f" x="1084.8" y="152.4">f</text>
	<text fill="#d7af5f" x="1093.2" y="152.4">t</text>
	<text fill="#d7af5f" x="1101.6" y="152.4">)</text>
	<text fill="#87875f" x="34.8" y="170.4">⢀</text>
	<text fill="#afaf87" x="43.2" y="170.4">⣾</text>
	<text fill="#afaf87" x="51.6" y="170.4">⣿</text>
	<text fill="#d7d7af" x="60.0" y="170.4">⣿</text>
	<text fill="#d7d7af" x="68.4" y="170.4">⣿</text>
	<text fill="#ffffd7" x="76.8" y="170.4">⣿</text>
	<text fill="#ffffd7" x="85.2" y="170.4">⣶</text>
	<text fill="#ffffd7" x="93.6" y="170.4">⣤</text>
	<text fill="#ffffd7" x="102.0" y="170.4">⣀</text>
	<text fill="#d7d7af" x="135.6" y="170.4">⣿</text>
	<text fill="#d7d7af" x="144.0" y="170.4">⡶</text>
	<text fill="#afaf87" x="152.4" y="170.4">⠶</text>
	<text fill="#afaf87" x="160.8" y="170.4">⢶</text>
	<text fill="#afaf87" x="169.2" y="170.4">⡄</text>
	<text fill="#afaf87" x="186.0" y="170.4">⣀</text>
	<text fill="#afaf87" x="194.4" y="170.4">⣀</text>
	<text fill="#afaf87" x="202.8" y="170.4">⡀</text>
	<text fill="#afaf87" x="26.4" y="188.4">⠠</text>
	<text fill="#d7d7af" x="34.8" y="188.4">⣾</text>
	<text fill="#d7d7af" x="43.2" y="188.4">⣿</text>
	<text fill="#ffffd7" x="51.6" y="188.4">⣿</text>
	<text fill="#ffffd7" x="60.0" y="188.4">⣿</text>
	<text fill="#ffffd7" x="68.4" y="188.4">⣿</text>
	<text fill="#ffffd7" x="76.8" y="188.4">⣿</text>
	<text fill="#ffffd7" x="85.2" y="188.4">⣿</text>
	<text fill="#ffffd7" x="93.6" y="188.4">⣿</text>
	<text fill="#d7d7af" x="102.0" y="188.4">⣿</text>
	<text fill="#d7d7af" x="110.4" y="188.4">⣿</text>
	<text fill="#d7d7af" x="118.8" y="188.4">⣿</text>
	<text fill="#afaf87" x="127.2" y="188.4">⠚</text>
	<text fill="#afaf87" x="135.6" y="188.4">⠃</text>
	<text fill="#afaf87" x="169.2" y="188.4">⢻</text>
	<text fill="#afaf87" x="177.6" y="188.4">⣶</text>
	<text fill="#afaf87" x="186.0" y="188.4">⣿</text>
	<text fill="#af8787" x="194.4" y="188.4">⣿</text>
	<text fill="#af8787" x="202.8" y="188.4">⡇</text>
	<text fill="#ffffd7" x="244.8" y="188.4">🕵</text>
	<text fill="#ffffd7" x="270.0" y="188.4">T</text>
	<text fill="#ffffd7" x="278.4" y="188.4">h</text>
	<text fill="#ffffd7" x="286.8" y="188.4">e</text>
	<text fill="#ffffd7" x="303.6" y="188.4">h</text>
	<text fill="#ffffd7" x="312.0" y="188.4">o</text>
	<text fill="#ffffd7" x="320.4" y="188.4">u</text>
	<text fill="#ffffd7" x="328.8" y="188.4">r</text>
	<text fill="#ffffd7" x="345.6" y="188.4">g</text>
	<text fill="#ffffd7" x="354.0" y="188.4">r</text>
	<text fill="#ffffd7" x="362.4" y="188.4">o</text>
	<text fill="#ffffd7" x="370.8" y="188.4">w</text>
	<text fill="#ffffd7" x="379.2" y="188.4">s</text>
	<text fill="#dadada" x="396.0" y="188.4">l</text>
	<text fill="#d7d7af" x="404.4" y="188.4">a</text>
	<text fill="#d7d7af" x="412.8" y="188.4">t</text>
	<text fill="#d7d7af" x="421.2" y="188.4">e</text>
	<text fill="#d7d7af" x="438.0" y="188.4">i</text>
	<text fill="#d7d7af" x="446.4" y="188.4">n</text>
	<text fill="#d7d7af" x="463.2" y="188.4">t</text>
	<text fill="#d7d7af" x="471.6" y="188.4">h</text>
	<text fill="#d7d7af" x="480.0" y="188.4">i</text>
	<text fill="#d7d7af" x="488.4" y="188.4">s</text>
	<text fill="#d7d7af" x="505.2" y="188.4">s</text>
	<text fill="#d7d7af" x="513.6" y="188.4">i</text>
	<text fill="#d7d7af" x="522.0" y="188.4">t</text>
	<text fill="#d7d7af" x="530.4" y="188.4">t</text>
	<text fill="#d7d7af" x="538.8" y="188.4">i</text>
	<text fill="#d7d7af" x="547.2" y="188.4">n</text>
	<text fill="#d7d7af" x="555.6" y="188.4">g</text>
	<text fill="#d7d7af" x="564.0" y="188.4">.</text>
	<text fill="#d7d7af" x="580.8" y="188.4">I</text>
	<text fill="#d7d7af" x="597.6" y="188.4">h</text>
	<text fill="#d7d7af" x="606.0" y="188.4">u</text>
	<text fill="#d7d7af" x="614.4" y="188.4">s</text>
	<text fill="#d7d7af" x="622.8" y="188.4">b</text>
	<text fill="#d7d7af" x="631.2" y="188.4">a</text>
	<text fill="#b2b2b2" x="639.6" y="188.4">n</text>
	<text fill="#afaf87" x="648.0" y="188.4">d</text>
	<text fill="#afaf87" x="664.8" y="188.4">m</text>
	<text fill="#afaf87" x="673.2" y="188.4">y</text>
	<text fill="#afaf87" x="690.0" y="188.4">f</text>
	<text fill="#afaf87" x="698.4" y="188.4">a</text>
	<text fill="#afaf87" x="706.8" y="188.4">c</text>
	<text fill="#afaf87" x="715.2" y="188.4">u</text>
	<text fill="#afaf87" x="723.6" y="188.4">l</text>
	<text fill="#afaf87" x="732.0" y="188.4">t</text>
	<text fill="#afaf87" x="740.4" y="188.4">i</text>
	<text fill="#afaf87" x="748.8" y="188.4">e</text>
	<text fill="#afaf87" x="757.2" y="188.4">s</text>
	<text fill="#afaf87" x="765.6" y="188.4">.</text>
	<text fill="#ffffd7" x="43.2" y="206.4">⠉</text>
	<text fill="#ffffd7" x="51.6" y="206.4">⠉</text>
	<text fill="#ffffd7" x="60.0" y="206.4">⠉</text>
	<text fill="#ffffd7" x="68.4" y="206.4">⠛</text>
	<text fill="#d7d7af" x="76.8" y="206.4">⠛</text>
	<text fill="#d7d7af" x="85.2" y="206.4">⠻</text>
	<text fill="#d7d7af" x="93.6" y="206.4">⠿</text>
	<text fill="#afaf87" x="102.0" y="206.4">⢿</text>
	<text fill="#afaf87" x="110.4" y="206.4">⣿</text>
	<text fill="#afaf87" x="118.8" y="206.4">⣿</text>
	<text fill="#afaf87" x="127.2" y="206.4">⣷</text>
	<text fill="#afaf87" x="135.6" y="206.4">⣄</text>
	<text fill="#af8787" x="177.6" y="206.4">⠉</text>
	<text fill="#af8787" x="186.0" y="206.4">⠉</text>
	<text fill="#af8787" x="194.4" y="206.4">⠉</text>
</svg>
