<svg xmlns="http://www.w3.org/2000/svg" xmlns:xlink="http://www.w3.org/1999/xlink" width="1128" height="228" viewBox="0 0 1128 228" font-family="ui-monospace, 'SF Mono', Menlo, Consolas, 'DejaVu Sans Mono', monospace" font-size="14">
<rect width="1128" height="228" rx="10" fill="#0d1117"/>
<path d="M0 30 V10 a10 10 0 0 1 10 -10 H1118 a10 10 0 0 1 10 10 V30 Z" fill="#161b22"/>
<circle cx="18" cy="15" r="5.5" fill="#ff5f56"/>
<circle cx="36" cy="15" r="5.5" fill="#ffbd2e"/>
<circle cx="54" cy="15" r="5.5" fill="#27c93f"/>
<text x="564" y="19" text-anchor="middle" fill="#8b949e" font-size="12">Joker — ccsidekick</text>
<text x="26.4" y="62.4" fill="#5f8787">⢸</text>
<text x="34.8" y="62.4" fill="#5f87af">⣿</text>
<text x="43.2" y="62.4" fill="#875fd7">⣿</text>
<text x="51.6" y="62.4" fill="#875fff">⣿</text>
<text x="60.0" y="62.4" fill="#875fff">⣿</text>
<text x="68.4" y="62.4" fill="#875fff">⣿</text>
<text x="76.8" y="62.4" fill="#875fff">⣿</text>
<text x="85.2" y="62.4" fill="#875fff">⣶</text>
<text x="93.6" y="62.4" fill="#875fff">⣶</text>
<text x="102.0" y="62.4" fill="#af87ff">⣶</text>
<text x="110.4" y="62.4" fill="#af87ff">⣶</text>
<text x="118.8" y="62.4" fill="#af87ff">⣿</text>
<text x="127.2" y="62.4" fill="#af87ff">⣿</text>
<text x="135.6" y="62.4" fill="#af87ff">⣿</text>
<text x="144.0" y="62.4" fill="#af87ff">⣿</text>
<text x="152.4" y="62.4" fill="#af87ff">⣿</text>
<text x="160.8" y="62.4" fill="#d787ff">⣶</text>
<text x="169.2" y="62.4" fill="#d787ff">⣦</text>
<text x="177.6" y="62.4" fill="#d787ff">⣄</text>
<text x="244.8" y="62.4" fill="#c9d1d9">⚠️</text>
<text x="270.0" y="62.4" fill="#ffffff">5</text>
<text x="278.4" y="62.4" fill="#ffffff">h</text>
<text x="295.2" y="62.4" fill="#ffffff">l</text>
<text x="303.6" y="62.4" fill="#ffffff">i</text>
<text x="312.0" y="62.4" fill="#ffffff">m</text>
<text x="320.4" y="62.4" fill="#ffffff">i</text>
<text x="328.8" y="62.4" fill="#ffffff">t</text>
<text x="345.6" y="62.4" fill="#ffffff">a</text>
<text x="354.0" y="62.4" fill="#ffffff">t</text>
<text x="370.8" y="62.4" fill="#ffffff">8</text>
<text x="379.2" y="62.4" fill="#ffffff">6</text>
<text x="387.6" y="62.4" fill="#ffffff">%</text>
<text x="396.0" y="62.4" fill="#ffffff">,</text>
<text x="412.8" y="62.4" fill="#ffffff">2</text>
<text x="421.2" y="62.4" fill="#ffffff">h</text>
<text x="438.0" y="62.4" fill="#ffffff">1</text>
<text x="446.4" y="62.4" fill="#ffffff">3</text>
<text x="454.8" y="62.4" fill="#ffffff">m</text>
<text x="471.6" y="62.4" fill="#ffffff">t</text>
<text x="480.0" y="62.4" fill="#ffffff">o</text>
<text x="496.8" y="62.4" fill="#ffffff">r</text>
<text x="505.2" y="62.4" fill="#ffffff">e</text>
<text x="513.6" y="62.4" fill="#ffffff">s</text>
<text x="522.0" y="62.4" fill="#ffffff">e</text>
<text x="530.4" y="62.4" fill="#ffffff">t</text>
<text x="538.8" y="62.4" fill="#ffffff">.</text>
<text x="555.6" y="62.4" fill="#ffffff">S</text>
<text x="564.0" y="62.4" fill="#ffffff">a</text>
<text x="572.4" y="62.4" fill="#ffffff">v</text>
<text x="580.8" y="62.4" fill="#ffffff">e</text>
<text x="597.6" y="62.4" fill="#ffffff">h</text>
<text x="606.0" y="62.4" fill="#ffffff">e</text>
<text x="614.4" y="62.4" fill="#ffffff">a</text>
<text x="622.8" y="62.4" fill="#ffffff">v</text>
<text x="631.2" y="62.4" fill="#ffffff">y</text>
<text x="648.0" y="62.4" fill="#ffffff">a</text>
<text x="656.4" y="62.4" fill="#ffffff">s</text>
<text x="664.8" y="62.4" fill="#ffffff">k</text>
<text x="673.2" y="62.4" fill="#ffffff">s</text>
<text x="690.0" y="62.4" fill="#ffffff">f</text>
<text x="698.4" y="62.4" fill="#ffffff">o</text>
<text x="706.8" y="62.4" fill="#ffffff">r</text>
<text x="723.6" y="62.4" fill="#ffffff">a</text>
<text x="732.0" y="62.4" fill="#ffffff">f</text>
<text x="740.4" y="62.4" fill="#ffffff">t</text>
<text x="748.8" y="62.4" fill="#ffffff">e</text>
<text x="757.2" y="62.4" fill="#ffffff">r</text>
<text x="765.6" y="62.4" fill="#ffffff">.</text>
<text x="26.4" y="80.4" fill="#875fff">⢾</text>
<text x="34.8" y="80.4" fill="#875fff">⣿</text>
<text x="43.2" y="80.4" fill="#875fff">⣿</text>
<text x="51.6" y="80.4" fill="#875fff">⣿</text>
<text x="60.0" y="80.4" fill="#875fff">⣿</text>
<text x="68.4" y="80.4" fill="#875fff">⣿</text>
<text x="76.8" y="80.4" fill="#af87ff">⣿</text>
<text x="85.2" y="80.4" fill="#af87ff">⣿</text>
<text x="93.6" y="80.4" fill="#af87ff">⣿</text>
<text x="102.0" y="80.4" fill="#af87ff">⣿</text>
<text x="110.4" y="80.4" fill="#af87ff">⣿</text>
<text x="118.8" y="80.4" fill="#af87ff">⣿</text>
<text x="127.2" y="80.4" fill="#af87ff">⣿</text>
<text x="135.6" y="80.4" fill="#d787ff">⣿</text>
<text x="144.0" y="80.4" fill="#d787ff">⣿</text>
<text x="152.4" y="80.4" fill="#d787ff">⣿</text>
<text x="160.8" y="80.4" fill="#ff87ff">⣿</text>
<text x="169.2" y="80.4" fill="#ff87ff">⣿</text>
<text x="177.6" y="80.4" fill="#ff87ff">⣿</text>
<text x="186.0" y="80.4" fill="#ff87ff">⣷</text>
<text x="194.4" y="80.4" fill="#ff87d7">⡀</text>
<text x="26.4" y="98.4" fill="#875fff">⠸</text>
<text x="34.8" y="98.4" fill="#875fff">⣿</text>
<text x="43.2" y="98.4" fill="#875fff">⣿</text>
<text x="51.6" y="98.4" fill="#af87ff">⣿</text>
<text x="60.0" y="98.4" fill="#af87ff">⣿</text>
<text x="68.4" y="98.4" fill="#af87ff">⣿</text>
<text x="76.8" y="98.4" fill="#af87ff">⣿</text>
<text x="85.2" y="98.4" fill="#af87ff">⡟</text>
<text x="93.6" y="98.4" fill="#af87ff">⣿</text>
<text x="102.0" y="98.4" fill="#af87ff">⣿</text>
<text x="110.4" y="98.4" fill="#d787ff">⣿</text>
<text x="118.8" y="98.4" fill="#d787ff">⣿</text>
<text x="127.2" y="98.4" fill="#d787ff">⣿</text>
<text x="135.6" y="98.4" fill="#ff87ff">⣿</text>
<text x="144.0" y="98.4" fill="#ff87ff">⣿</text>
<text x="152.4" y="98.4" fill="#ff87ff">⣿</text>
<text x="160.8" y="98.4" fill="#ff87ff">⠿</text>
<text x="169.2" y="98.4" fill="#ff87d7">⠛</text>
<text x="177.6" y="98.4" fill="#ff87d7">⠋</text>
<text x="186.0" y="98.4" fill="#ffafaf">⠙</text>
<text x="194.4" y="98.4" fill="#ffaf5f">⣿</text>
<text x="202.8" y="98.4" fill="#ffaf5f">⣦</text>
<text x="244.8" y="98.4" fill="#af87ff">📁</text>
<text x="270.0" y="98.4" fill="#af87ff">~</text>
<text x="278.4" y="98.4" fill="#af87ff">/</text>
<text x="286.8" y="98.4" fill="#af87ff">d</text>
<text x="295.2" y="98.4" fill="#af87ff">e</text>
<text x="303.6" y="98.4" fill="#af87ff">v</text>
<text x="312.0" y="98.4" fill="#af87ff">/</text>
<text x="320.4" y="98.4" fill="#af87ff">c</text>
<text x="328.8" y="98.4" fill="#af87ff">c</text>
<text x="337.2" y="98.4" fill="#af87ff">s</text>
<text x="345.6" y="98.4" fill="#af87ff">i</text>
<text x="354.0" y="98.4" fill="#af87ff">d</text>
<text x="362.4" y="98.4" fill="#af87ff">e</text>
<text x="370.8" y="98.4" fill="#af87ff">k</text>
<text x="379.2" y="98.4" fill="#af87ff">i</text>
<text x="387.6" y="98.4" fill="#af87ff">c</text>
<text x="396.0" y="98.4" fill="#af87ff">k</text>
<text x="412.8" y="98.4" fill="#af87ff">│</text>
<text x="429.6" y="98.4" fill="#af87ff">O</text>
<text x="438.0" y="98.4" fill="#af87ff">p</text>
<text x="446.4" y="98.4" fill="#af87ff">u</text>
<text x="454.8" y="98.4" fill="#af87ff">s</text>
<text x="471.6" y="98.4" fill="#af87ff">4</text>
<text x="480.0" y="98.4" fill="#af87ff">.</text>
<text x="488.4" y="98.4" fill="#af87ff">8</text>
<text x="505.2" y="98.4" fill="#af87ff">(</text>
<text x="513.6" y="98.4" fill="#af87ff">1</text>
<text x="522.0" y="98.4" fill="#af87ff">M</text>
<text x="530.4" y="98.4" fill="#af87ff">)</text>
<text x="547.2" y="98.4" fill="#af87ff">✦</text>
<text x="564.0" y="98.4" fill="#af87ff">h</text>
<text x="572.4" y="98.4" fill="#af87ff">i</text>
<text x="580.8" y="98.4" fill="#af87ff">g</text>
<text x="589.2" y="98.4" fill="#af87ff">h</text>
<text x="606.0" y="98.4" fill="#af87ff">│</text>
<text x="622.8" y="98.4" fill="#af87ff">⚡</text>
<text x="648.0" y="98.4" fill="#af87ff">F</text>
<text x="656.4" y="98.4" fill="#af87ff">a</text>
<text x="664.8" y="98.4" fill="#af87ff">s</text>
<text x="673.2" y="98.4" fill="#af87ff">t</text>
<text x="34.8" y="116.4" fill="#af87ff">⢻</text>
<text x="43.2" y="116.4" fill="#af87ff">⣿</text>
<text x="51.6" y="116.4" fill="#af87ff">⡟</text>
<text x="60.0" y="116.4" fill="#af87ff">⠉</text>
<text x="68.4" y="116.4" fill="#af87ff">⠛</text>
<text x="76.8" y="116.4" fill="#af87ff">⠻</text>
<text x="85.2" y="116.4" fill="#af87ff">⠿</text>
<text x="93.6" y="116.4" fill="#d787ff">⠿</text>
<text x="102.0" y="116.4" fill="#d787ff">⢿</text>
<text x="110.4" y="116.4" fill="#d787ff">⣿</text>
<text x="118.8" y="116.4" fill="#ff87ff">⣿</text>
<text x="127.2" y="116.4" fill="#ff87ff">⣿</text>
<text x="135.6" y="116.4" fill="#ff87ff">⠟</text>
<text x="144.0" y="116.4" fill="#ff87ff">⠛</text>
<text x="152.4" y="116.4" fill="#ff87d7">⠁</text>
<text x="169.2" y="116.4" fill="#ffaf87">⠒</text>
<text x="186.0" y="116.4" fill="#ffd700">⣀</text>
<text x="194.4" y="116.4" fill="#ffd700">⣻</text>
<text x="202.8" y="116.4" fill="#ffd700">⣿</text>
<text x="244.8" y="116.4" fill="#ff87ff">🌿</text>
<text x="270.0" y="116.4" fill="#ff87ff">f</text>
<text x="278.4" y="116.4" fill="#ff87ff">e</text>
<text x="286.8" y="116.4" fill="#ff87ff">a</text>
<text x="295.2" y="116.4" fill="#ff87ff">t</text>
<text x="303.6" y="116.4" fill="#ff87ff">/</text>
<text x="312.0" y="116.4" fill="#ff87ff">w</text>
<text x="320.4" y="116.4" fill="#ff87ff">i</text>
<text x="328.8" y="116.4" fill="#ff87ff">d</text>
<text x="337.2" y="116.4" fill="#ff87ff">g</text>
<text x="345.6" y="116.4" fill="#ff87ff">e</text>
<text x="354.0" y="116.4" fill="#ff87ff">t</text>
<text x="362.4" y="116.4" fill="#ff87ff">-</text>
<text x="370.8" y="116.4" fill="#ff87ff">l</text>
<text x="379.2" y="116.4" fill="#ff87ff">a</text>
<text x="387.6" y="116.4" fill="#ff87ff">y</text>
<text x="396.0" y="116.4" fill="#ff87ff">e</text>
<text x="404.4" y="116.4" fill="#ff87ff">r</text>
<text x="421.2" y="116.4" fill="#af87ff">│</text>
<text x="438.0" y="116.4" fill="#ff87ff">🔗</text>
<text x="463.2" y="116.4" fill="#ff87ff">P</text>
<text x="471.6" y="116.4" fill="#ff87ff">R</text>
<text x="480.0" y="116.4" fill="#ff87ff">:</text>
<a xlink:href="https://github.com/krayong/ccsidekick/pull/42"><text x="496.8" y="116.4" fill="#ff87ff">#</text></a>
<a xlink:href="https://github.com/krayong/ccsidekick/pull/42"><text x="505.2" y="116.4" fill="#ff87ff">4</text></a>
<a xlink:href="https://github.com/krayong/ccsidekick/pull/42"><text x="513.6" y="116.4" fill="#ff87ff">2</text></a>
<text x="530.4" y="116.4" fill="#ff87ff">·</text>
<text x="547.2" y="116.4" fill="#00d700">a</text>
<text x="555.6" y="116.4" fill="#00d700">p</text>
<text x="564.0" y="116.4" fill="#00d700">p</text>
<text x="572.4" y="116.4" fill="#00d700">r</text>
<text x="580.8" y="116.4" fill="#00d700">o</text>
<text x="589.2" y="116.4" fill="#00d700">v</text>
<text x="597.6" y="116.4" fill="#00d700">e</text>
<text x="606.0" y="116.4" fill="#00d700">d</text>
<text x="622.8" y="116.4" fill="#af87ff">│</text>
<text x="639.6" y="116.4" fill="#00d700">+</text>
<text x="648.0" y="116.4" fill="#00d700">3</text>
<text x="664.8" y="116.4" fill="#ffd700">2</text>
<text x="681.6" y="116.4" fill="#ffd700">f</text>
<text x="690.0" y="116.4" fill="#ffd700">i</text>
<text x="698.4" y="116.4" fill="#ffd700">l</text>
<text x="706.8" y="116.4" fill="#ffd700">e</text>
<text x="715.2" y="116.4" fill="#ffd700">s</text>
<text x="732.0" y="116.4" fill="#af87ff">│</text>
<text x="748.8" y="116.4" fill="#00d700">↑</text>
<text x="757.2" y="116.4" fill="#00d700">1</text>
<text x="774.0" y="116.4" fill="#af87ff">│</text>
<text x="790.8" y="116.4" fill="#ff87ff">(</text>
<text x="799.2" y="116.4" fill="#ff87ff">+</text>
<text x="807.6" y="116.4" fill="#ff87ff">1</text>
<text x="824.4" y="116.4" fill="#ff87ff">!</text>
<text x="832.8" y="116.4" fill="#ff87ff">1</text>
<text x="849.6" y="116.4" fill="#ff87ff">?</text>
<text x="858.0" y="116.4" fill="#ff87ff">1</text>
<text x="866.4" y="116.4" fill="#ff87ff">)</text>
<text x="34.8" y="134.4" fill="#af87ff">⠘</text>
<text x="43.2" y="134.4" fill="#af87ff">⣿</text>
<text x="51.6" y="134.4" fill="#af87ff">⣇</text>
<text x="60.0" y="134.4" fill="#af87ff">⣀</text>
<text x="76.8" y="134.4" fill="#d787ff">⠐</text>
<text x="85.2" y="134.4" fill="#d787ff">⠒</text>
<text x="93.6" y="134.4" fill="#ff87ff">⠒</text>
<text x="110.4" y="134.4" fill="#ff87ff">⣀</text>
<text x="118.8" y="134.4" fill="#ff87ff">⣹</text>
<text x="127.2" y="134.4" fill="#ff87d7">⣿</text>
<text x="135.6" y="134.4" fill="#ffafaf">⣦</text>
<text x="144.0" y="134.4" fill="#ffaf87">⡄</text>
<text x="152.4" y="134.4" fill="#ffaf5f">⣀</text>
<text x="160.8" y="134.4" fill="#ffd75f">⣀</text>
<text x="169.2" y="134.4" fill="#ffd700">⢠</text>
<text x="177.6" y="134.4" fill="#ffd700">⣾</text>
<text x="186.0" y="134.4" fill="#ffd700">⣿</text>
<text x="194.4" y="134.4" fill="#ffd700">⡟</text>
<text x="202.8" y="134.4" fill="#d7d700">⣱</text>
<text x="244.8" y="134.4" fill="#ffd700">🧾</text>
<text x="270.0" y="134.4" fill="#ffd700">C</text>
<text x="278.4" y="134.4" fill="#ffd700">h</text>
<text x="286.8" y="134.4" fill="#ffd700">a</text>
<text x="295.2" y="134.4" fill="#ffd700">t</text>
<text x="312.0" y="134.4" fill="#ffd700">C</text>
<text x="320.4" y="134.4" fill="#ffd700">o</text>
<text x="328.8" y="134.4" fill="#ffd700">s</text>
<text x="337.2" y="134.4" fill="#ffd700">t</text>
<text x="345.6" y="134.4" fill="#ffd700">:</text>
<text x="362.4" y="134.4" fill="#ffd700">$</text>
<text x="370.8" y="134.4" fill="#ffd700">0</text>
<text x="379.2" y="134.4" fill="#ffd700">.</text>
<text x="387.6" y="134.4" fill="#ffd700">4</text>
<text x="396.0" y="134.4" fill="#ffd700">8</text>
<text x="412.8" y="134.4" fill="#af87ff">│</text>
<text x="429.6" y="134.4" fill="#ffd700">🏗️</text>
<text x="454.8" y="134.4" fill="#ffd700">P</text>
<text x="463.2" y="134.4" fill="#ffd700">r</text>
<text x="471.6" y="134.4" fill="#ffd700">o</text>
<text x="480.0" y="134.4" fill="#ffd700">j</text>
<text x="488.4" y="134.4" fill="#ffd700">e</text>
<text x="496.8" y="134.4" fill="#ffd700">c</text>
<text x="505.2" y="134.4" fill="#ffd700">t</text>
<text x="522.0" y="134.4" fill="#ffd700">C</text>
<text x="530.4" y="134.4" fill="#ffd700">o</text>
<text x="538.8" y="134.4" fill="#ffd700">s</text>
<text x="547.2" y="134.4" fill="#ffd700">t</text>
<text x="555.6" y="134.4" fill="#ffd700">:</text>
<text x="572.4" y="134.4" fill="#ffd700">$</text>
<text x="580.8" y="134.4" fill="#ffd700">1</text>
<text x="589.2" y="134.4" fill="#ffd700">.</text>
<text x="597.6" y="134.4" fill="#ffd700">1</text>
<text x="606.0" y="134.4" fill="#ffd700">8</text>
<text x="622.8" y="134.4" fill="#af87ff">│</text>
<text x="639.6" y="134.4" fill="#ffd700">🏦</text>
<text x="664.8" y="134.4" fill="#ffd700">T</text>
<text x="673.2" y="134.4" fill="#ffd700">o</text>
<text x="681.6" y="134.4" fill="#ffd700">t</text>
<text x="690.0" y="134.4" fill="#ffd700">a</text>
<text x="698.4" y="134.4" fill="#ffd700">l</text>
<text x="715.2" y="134.4" fill="#ffd700">C</text>
<text x="723.6" y="134.4" fill="#ffd700">o</text>
<text x="732.0" y="134.4" fill="#ffd700">s</text>
<text x="740.4" y="134.4" fill="#ffd700">t</text>
<text x="748.8" y="134.4" fill="#ffd700">:</text>
<text x="765.6" y="134.4" fill="#ffd700">$</text>
<text x="774.0" y="134.4" fill="#ffd700">1</text>
<text x="782.4" y="134.4" fill="#ffd700">.</text>
<text x="790.8" y="134.4" fill="#ffd700">5</text>
<text x="799.2" y="134.4" fill="#ffd700">8</text>
<text x="43.2" y="152.4" fill="#d787ff">⠸</text>
<text x="51.6" y="152.4" fill="#d787ff">⣿</text>
<text x="60.0" y="152.4" fill="#d787ff">⡿</text>
<text x="68.4" y="152.4" fill="#ff87ff">⠷</text>
<text x="76.8" y="152.4" fill="#ff87ff">⣶</text>
<text x="85.2" y="152.4" fill="#ff87ff">⣤</text>
<text x="93.6" y="152.4" fill="#ff87ff">⣴</text>
<text x="102.0" y="152.4" fill="#ff87ff">⣷</text>
<text x="110.4" y="152.4" fill="#ff87d7">⣽</text>
<text x="118.8" y="152.4" fill="#ffafaf">⣿</text>
<text x="127.2" y="152.4" fill="#ffaf87">⣿</text>
<text x="135.6" y="152.4" fill="#ffaf5f">⣿</text>
<text x="144.0" y="152.4" fill="#ffd700">⣿</text>
<text x="152.4" y="152.4" fill="#ffd700">⣿</text>
<text x="160.8" y="152.4" fill="#ffd700">⣿</text>
<text x="169.2" y="152.4" fill="#ffd700">⣿</text>
<text x="177.6" y="152.4" fill="#d7d700">⣿</text>
<text x="186.0" y="152.4" fill="#afd700">⡿</text>
<text x="194.4" y="152.4" fill="#87d700">⠇</text>
<text x="202.8" y="152.4" fill="#5fd700">⠟</text>
<text x="244.8" y="152.4" fill="#00d700">📊</text>
<text x="270.0" y="152.4" fill="#00d700">C</text>
<text x="278.4" y="152.4" fill="#00d700">o</text>
<text x="286.8" y="152.4" fill="#00d700">n</text>
<text x="295.2" y="152.4" fill="#00d700">t</text>
<text x="303.6" y="152.4" fill="#00d700">e</text>
<text x="312.0" y="152.4" fill="#00d700">x</text>
<text x="320.4" y="152.4" fill="#00d700">t</text>
<text x="337.2" y="152.4" fill="#00d700">U</text>
<text x="345.6" y="152.4" fill="#00d700">s</text>
<text x="354.0" y="152.4" fill="#00d700">a</text>
<text x="362.4" y="152.4" fill="#00d700">g</text>
<text x="370.8" y="152.4" fill="#00d700">e</text>
<text x="379.2" y="152.4" fill="#00d700">:</text>
<text x="396.0" y="152.4" fill="#ffd700">4</text>
<text x="404.4" y="152.4" fill="#ffd700">3</text>
<text x="412.8" y="152.4" fill="#ffd700">%</text>
<text x="429.6" y="152.4" fill="#ffd700">(</text>
<text x="438.0" y="152.4" fill="#ffd700">4</text>
<text x="446.4" y="152.4" fill="#ffd700">3</text>
<text x="454.8" y="152.4" fill="#ffd700">0</text>
<text x="463.2" y="152.4" fill="#ffd700">k</text>
<text x="471.6" y="152.4" fill="#ffd700">/</text>
<text x="480.0" y="152.4" fill="#ffd700">1</text>
<text x="488.4" y="152.4" fill="#ffd700">M</text>
<text x="496.8" y="152.4" fill="#ffd700">)</text>
<text x="513.6" y="152.4" fill="#af87ff">│</text>
<text x="530.4" y="152.4" fill="#00d700">⏱️</text>
<text x="555.6" y="152.4" fill="#00d700">B</text>
<text x="564.0" y="152.4" fill="#00d700">l</text>
<text x="572.4" y="152.4" fill="#00d700">o</text>
<text x="580.8" y="152.4" fill="#00d700">c</text>
<text x="589.2" y="152.4" fill="#00d700">k</text>
<text x="606.0" y="152.4" fill="#00d700">U</text>
<text x="614.4" y="152.4" fill="#00d700">s</text>
<text x="622.8" y="152.4" fill="#00d700">a</text>
<text x="631.2" y="152.4" fill="#00d700">g</text>
<text x="639.6" y="152.4" fill="#00d700">e</text>
<text x="648.0" y="152.4" fill="#00d700">:</text>
<text x="664.8" y="152.4" fill="#ff5f5f">8</text>
<text x="673.2" y="152.4" fill="#ff5f5f">6</text>
<text x="681.6" y="152.4" fill="#ff5f5f">%</text>
<text x="698.4" y="152.4" fill="#ff5f5f">(</text>
<text x="706.8" y="152.4" fill="#ff5f5f">2</text>
<text x="715.2" y="152.4" fill="#ff5f5f">h</text>
<text x="732.0" y="152.4" fill="#ff5f5f">1</text>
<text x="740.4" y="152.4" fill="#ff5f5f">3</text>
<text x="748.8" y="152.4" fill="#ff5f5f">m</text>
<text x="765.6" y="152.4" fill="#ff5f5f">l</text>
<text x="774.0" y="152.4" fill="#ff5f5f">e</text>
<text x="782.4" y="152.4" fill="#ff5f5f">f</text>
<text x="790.8" y="152.4" fill="#ff5f5f">t</text>
<text x="799.2" y="152.4" fill="#ff5f5f">)</text>
<text x="816.0" y="152.4" fill="#af87ff">│</text>
<text x="832.8" y="152.4" fill="#00d700">📅</text>
<text x="858.0" y="152.4" fill="#00d700">W</text>
<text x="866.4" y="152.4" fill="#00d700">e</text>
<text x="874.8" y="152.4" fill="#00d700">e</text>
<text x="883.2" y="152.4" fill="#00d700">k</text>
<text x="891.6" y="152.4" fill="#00d700">l</text>
<text x="900.0" y="152.4" fill="#00d700">y</text>
<text x="916.8" y="152.4" fill="#00d700">U</text>
<text x="925.2" y="152.4" fill="#00d700">s</text>
<text x="933.6" y="152.4" fill="#00d700">a</text>
<text x="942.0" y="152.4" fill="#00d700">g</text>
<text x="950.4" y="152.4" fill="#00d700">e</text>
<text x="958.8" y="152.4" fill="#00d700">:</text>
<text x="975.6" y="152.4" fill="#ffd700">6</text>
<text x="984.0" y="152.4" fill="#ffd700">3</text>
<text x="992.4" y="152.4" fill="#ffd700">%</text>
<text x="1009.2" y="152.4" fill="#ffd700">(</text>
<text x="1017.6" y="152.4" fill="#ffd700">3</text>
<text x="1026.0" y="152.4" fill="#ffd700">d</text>
<text x="1042.8" y="152.4" fill="#ffd700">4</text>
<text x="1051.2" y="152.4" fill="#ffd700">h</text>
<text x="1068.0" y="152.4" fill="#ffd700">l</text>
<text x="1076.4" y="152.4" fill="#ffd700">e</text>
<text x="1084.8" y="152.4" fill="#ffd700">f</text>
<text x="1093.2" y="152.4" fill="#ffd700">t</text>
<text x="1101.6" y="152.4" fill="#ffd700">)</text>
<text x="51.6" y="170.4" fill="#ff87ff">⠉</text>
<text x="60.0" y="170.4" fill="#ff87ff">⠻</text>
<text x="68.4" y="170.4" fill="#ff87ff">⡄</text>
<text x="76.8" y="170.4" fill="#ff87ff">⠻</text>
<text x="85.2" y="170.4" fill="#ff87d7">⢿</text>
<text x="93.6" y="170.4" fill="#ffafaf">⣿</text>
<text x="102.0" y="170.4" fill="#ffaf87">⣿</text>
<text x="110.4" y="170.4" fill="#ffaf5f">⣿</text>
<text x="118.8" y="170.4" fill="#ffd75f">⣌</text>
<text x="127.2" y="170.4" fill="#ffd700">⡙</text>
<text x="135.6" y="170.4" fill="#ffd700">⠋</text>
<text x="144.0" y="170.4" fill="#ffd700">⣉</text>
<text x="152.4" y="170.4" fill="#d7d700">⣼</text>
<text x="160.8" y="170.4" fill="#afd700">⣿</text>
<text x="169.2" y="170.4" fill="#87d700">⠟</text>
<text x="177.6" y="170.4" fill="#5fd700">⠛</text>
<text x="186.0" y="170.4" fill="#5fd700">⢃</text>
<text x="194.4" y="170.4" fill="#00d700">⠟</text>
<text x="68.4" y="188.4" fill="#ff87af">⠘</text>
<text x="76.8" y="188.4" fill="#ffaf87">⠆</text>
<text x="85.2" y="188.4" fill="#ffaf5f">⠈</text>
<text x="93.6" y="188.4" fill="#ffaf5f">⣉</text>
<text x="102.0" y="188.4" fill="#ffd700">⣉</text>
<text x="110.4" y="188.4" fill="#ffd700">⣛</text>
<text x="118.8" y="188.4" fill="#ffd700">⡛</text>
<text x="127.2" y="188.4" fill="#ffd700">⢛</text>
<text x="135.6" y="188.4" fill="#d7d700">⣓</text>
<text x="144.0" y="188.4" fill="#afd700">⠋</text>
<text x="152.4" y="188.4" fill="#87d700">⠁</text>
<text x="160.8" y="188.4" fill="#5fd700">⣠</text>
<text x="169.2" y="188.4" fill="#00d700">⣴</text>
<text x="177.6" y="188.4" fill="#00d700">⡿</text>
<text x="186.0" y="188.4" fill="#00d700">⠁</text>
<text x="244.8" y="188.4" fill="#ff87ff">🤡</text>
<text x="270.0" y="188.4" fill="#ff87ff">F</text>
<text x="278.4" y="188.4" fill="#ff87ff">u</text>
<text x="286.8" y="188.4" fill="#ff87ff">e</text>
<text x="295.2" y="188.4" fill="#ff87ff">l</text>
<text x="303.6" y="188.4" fill="#ff87ff">'</text>
<text x="312.0" y="188.4" fill="#ff87ff">s</text>
<text x="328.8" y="188.4" fill="#d787ff">r</text>
<text x="337.2" y="188.4" fill="#d787ff">u</text>
<text x="345.6" y="188.4" fill="#d787ff">n</text>
<text x="354.0" y="188.4" fill="#d787ff">n</text>
<text x="362.4" y="188.4" fill="#d787ff">i</text>
<text x="370.8" y="188.4" fill="#d787ff">n</text>
<text x="379.2" y="188.4" fill="#d787ff">g</text>
<text x="396.0" y="188.4" fill="#d787ff">h</text>
<text x="404.4" y="188.4" fill="#d787ff">o</text>
<text x="412.8" y="188.4" fill="#d787ff">t</text>
<text x="421.2" y="188.4" fill="#d787ff">.</text>
<text x="438.0" y="188.4" fill="#d787ff">L</text>
<text x="446.4" y="188.4" fill="#af87ff">e</text>
<text x="454.8" y="188.4" fill="#af87ff">t</text>
<text x="463.2" y="188.4" fill="#af87ff">'</text>
<text x="471.6" y="188.4" fill="#af87ff">s</text>
<text x="488.4" y="188.4" fill="#af87ff">m</text>
<text x="496.8" y="188.4" fill="#af87ff">a</text>
<text x="505.2" y="188.4" fill="#af87ff">k</text>
<text x="513.6" y="188.4" fill="#af87ff">e</text>
<text x="530.4" y="188.4" fill="#af87ff">t</text>
<text x="538.8" y="188.4" fill="#af87ff">h</text>
<text x="547.2" y="188.4" fill="#af87ff">e</text>
<text x="564.0" y="188.4" fill="#af87ff">l</text>
<text x="572.4" y="188.4" fill="#af87ff">a</text>
<text x="580.8" y="188.4" fill="#af87ff">s</text>
<text x="589.2" y="188.4" fill="#af87ff">t</text>
<text x="606.0" y="188.4" fill="#af87ff">m</text>
<text x="614.4" y="188.4" fill="#af87ff">i</text>
<text x="622.8" y="188.4" fill="#875fff">l</text>
<text x="631.2" y="188.4" fill="#875fff">e</text>
<text x="648.0" y="188.4" fill="#875fff">t</text>
<text x="656.4" y="188.4" fill="#875fff">h</text>
<text x="664.8" y="188.4" fill="#875fff">e</text>
<text x="681.6" y="188.4" fill="#875fff">l</text>
<text x="690.0" y="188.4" fill="#875fff">o</text>
<text x="698.4" y="188.4" fill="#875fff">u</text>
<text x="706.8" y="188.4" fill="#875fff">d</text>
<text x="715.2" y="188.4" fill="#875fff">e</text>
<text x="723.6" y="188.4" fill="#875fff">s</text>
<text x="732.0" y="188.4" fill="#875fff">t</text>
<text x="740.4" y="188.4" fill="#875fff">.</text>
<text x="93.6" y="206.4" fill="#ffd700">⠉</text>
<text x="102.0" y="206.4" fill="#ffd700">⠛</text>
<text x="110.4" y="206.4" fill="#d7d700">⢿</text>
<text x="118.8" y="206.4" fill="#afd700">⣿</text>
<text x="127.2" y="206.4" fill="#87d700">⣿</text>
<text x="135.6" y="206.4" fill="#5fd700">⣯</text>
<text x="144.0" y="206.4" fill="#5fd700">⣵</text>
<text x="152.4" y="206.4" fill="#00d700">⣾</text>
<text x="160.8" y="206.4" fill="#00d700">⡟</text>
<text x="169.2" y="206.4" fill="#00d700">⠛</text>
</svg>
