<svg xmlns:xlink="http://www.w3.org/1999/xlink"
     font-family="ui-monospace, 'SF Mono', Menlo, Consolas, 'DejaVu Sans Mono', monospace"
     font-size="14"
     height="228" viewBox="0 0 1128 228"
     width="1128"
     xmlns="http://www.w3.org/2000/svg">
	<rect fill="#0d1117" height="228" rx="10" width="1128"/>
	<path d="M0 30 V10 a10 10 0 0 1 10 -10 H1118 a10 10 0 0 1 10 10 V30 Z" fill="#161b22"/>
	<circle cx="18" cy="15" fill="#ff5f56" r="5.5"/>
	<circle cx="36" cy="15" fill="#ffbd2e" r="5.5"/>
	<circle cx="54" cy="15" fill="#27c93f" r="5.5"/>
	<text fill="#8b949e" font-size="12" text-anchor="middle" x="564" y="19">Batman — ccsidekick
	</text>
	<text fill="#c9d1d9" x="244.8" y="62.4">⚠️</text>
	<text fill="#ffffff" x="270.0" y="62.4">5</text>
	<text fill="#ffffff" x="278.4" y="62.4">h</text>
	<text fill="#ffffff" x="295.2" y="62.4">l</text>
	<text fill="#ffffff" x="303.6" y="62.4">i</text>
	<text fill="#ffffff" x="312.0" y="62.4">m</text>
	<text fill="#ffffff" x="320.4" y="62.4">i</text>
	<text fill="#ffffff" x="328.8" y="62.4">t</text>
	<text fill="#ffffff" x="345.6" y="62.4">a</text>
	<text fill="#ffffff" x="354.0" y="62.4">t</text>
	<text fill="#ffffff" x="370.8" y="62.4">8</text>
	<text fill="#ffffff" x="379.2" y="62.4">6</text>
	<text fill="#ffffff" x="387.6" y="62.4">%</text>
	<text fill="#ffffff" x="396.0" y="62.4">,</text>
	<text fill="#ffffff" x="412.8" y="62.4">2</text>
	<text fill="#ffffff" x="421.2" y="62.4">h</text>
	<text fill="#ffffff" x="438.0" y="62.4">1</text>
	<text fill="#ffffff" x="446.4" y="62.4">3</text>
	<text fill="#ffffff" x="454.8" y="62.4">m</text>
	<text fill="#ffffff" x="471.6" y="62.4">t</text>
	<text fill="#ffffff" x="480.0" y="62.4">o</text>
	<text fill="#ffffff" x="496.8" y="62.4">r</text>
	<text fill="#ffffff" x="505.2" y="62.4">e</text>
	<text fill="#ffffff" x="513.6" y="62.4">s</text>
	<text fill="#ffffff" x="522.0" y="62.4">e</text>
	<text fill="#ffffff" x="530.4" y="62.4">t</text>
	<text fill="#ffffff" x="538.8" y="62.4">.</text>
	<text fill="#ffffff" x="555.6" y="62.4">S</text>
	<text fill="#ffffff" x="564.0" y="62.4">a</text>
	<text fill="#ffffff" x="572.4" y="62.4">v</text>
	<text fill="#ffffff" x="580.8" y="62.4">e</text>
	<text fill="#ffffff" x="597.6" y="62.4">h</text>
	<text fill="#ffffff" x="606.0" y="62.4">e</text>
	<text fill="#ffffff" x="614.4" y="62.4">a</text>
	<text fill="#ffffff" x="622.8" y="62.4">v</text>
	<text fill="#ffffff" x="631.2" y="62.4">y</text>
	<text fill="#ffffff" x="648.0" y="62.4">a</text>
	<text fill="#ffffff" x="656.4" y="62.4">s</text>
	<text fill="#ffffff" x="664.8" y="62.4">k</text>
	<text fill="#ffffff" x="673.2" y="62.4">s</text>
	<text fill="#ffffff" x="690.0" y="62.4">f</text>
	<text fill="#ffffff" x="698.4" y="62.4">o</text>
	<text fill="#ffffff" x="706.8" y="62.4">r</text>
	<text fill="#ffffff" x="723.6" y="62.4">a</text>
	<text fill="#ffffff" x="732.0" y="62.4">f</text>
	<text fill="#ffffff" x="740.4" y="62.4">t</text>
	<text fill="#ffffff" x="748.8" y="62.4">e</text>
	<text fill="#ffffff" x="757.2" y="62.4">r</text>
	<text fill="#ffffff" x="765.6" y="62.4">.</text>
	<text fill="#d7af00" x="18.0" y="98.4">⠤</text>
	<text fill="#d7af00" x="26.4" y="98.4">⢤</text>
	<text fill="#afaf5f" x="34.8" y="98.4">⣤</text>
	<text fill="#afaf5f" x="43.2" y="98.4">⣤</text>
	<text fill="#afaf87" x="51.6" y="98.4">⣤</text>
	<text fill="#a8a8a8" x="60.0" y="98.4">⣤</text>
	<text fill="#afafaf" x="68.4" y="98.4">⣤</text>
	<text fill="#87afd7" x="76.8" y="98.4">⣤</text>
	<text fill="#87afff" x="102.0" y="98.4">⢰</text>
	<text fill="#87afff" x="110.4" y="98.4">⣀</text>
	<text fill="#87afff" x="118.8" y="98.4">⡆</text>
	<text fill="#87afff" x="144.0" y="98.4">⢠</text>
	<text fill="#5fafff" x="152.4" y="98.4">⣤</text>
	<text fill="#5fafff" x="160.8" y="98.4">⣤</text>
	<text fill="#5fafff" x="169.2" y="98.4">⣤</text>
	<text fill="#5fafff" x="177.6" y="98.4">⣤</text>
	<text fill="#5fafff" x="186.0" y="98.4">⣤</text>
	<text fill="#5fafff" x="194.4" y="98.4">⣤</text>
	<text fill="#5fafff" x="202.8" y="98.4">⡤</text>
	<text fill="#5fafff" x="211.2" y="98.4">⠤</text>
	<text fill="#ffd700" x="244.8" y="98.4">📁</text>
	<text fill="#ffd700" x="270.0" y="98.4">~</text>
	<text fill="#ffd700" x="278.4" y="98.4">/</text>
	<text fill="#ffd700" x="286.8" y="98.4">d</text>
	<text fill="#ffd700" x="295.2" y="98.4">e</text>
	<text fill="#ffd700" x="303.6" y="98.4">v</text>
	<text fill="#ffd700" x="312.0" y="98.4">/</text>
	<text fill="#ffd700" x="320.4" y="98.4">c</text>
	<text fill="#ffd700" x="328.8" y="98.4">c</text>
	<text fill="#ffd700" x="337.2" y="98.4">s</text>
	<text fill="#ffd700" x="345.6" y="98.4">i</text>
	<text fill="#ffd700" x="354.0" y="98.4">d</text>
	<text fill="#ffd700" x="362.4" y="98.4">e</text>
	<text fill="#ffd700" x="370.8" y="98.4">k</text>
	<text fill="#ffd700" x="379.2" y="98.4">i</text>
	<text fill="#ffd700" x="387.6" y="98.4">c</text>
	<text fill="#ffd700" x="396.0" y="98.4">k</text>
	<text fill="#87afff" x="412.8" y="98.4">│</text>
	<text fill="#ffd700" x="429.6" y="98.4">O</text>
	<text fill="#ffd700" x="438.0" y="98.4">p</text>
	<text fill="#ffd700" x="446.4" y="98.4">u</text>
	<text fill="#ffd700" x="454.8" y="98.4">s</text>
	<text fill="#ffd700" x="471.6" y="98.4">4</text>
	<text fill="#ffd700" x="480.0" y="98.4">.</text>
	<text fill="#ffd700" x="488.4" y="98.4">8</text>
	<text fill="#ffd700" x="505.2" y="98.4">(</text>
	<text fill="#ffd700" x="513.6" y="98.4">1</text>
	<text fill="#ffd700" x="522.0" y="98.4">M</text>
	<text fill="#ffd700" x="530.4" y="98.4">)</text>
	<text fill="#ffd700" x="547.2" y="98.4">✦</text>
	<text fill="#ffd700" x="564.0" y="98.4">h</text>
	<text fill="#ffd700" x="572.4" y="98.4">i</text>
	<text fill="#ffd700" x="580.8" y="98.4">g</text>
	<text fill="#ffd700" x="589.2" y="98.4">h</text>
	<text fill="#87afff" x="606.0" y="98.4">│</text>
	<text fill="#ffd700" x="622.8" y="98.4">🧠</text>
	<text fill="#ffd700" x="648.0" y="98.4">T</text>
	<text fill="#ffd700" x="656.4" y="98.4">h</text>
	<text fill="#ffd700" x="664.8" y="98.4">i</text>
	<text fill="#ffd700" x="673.2" y="98.4">n</text>
	<text fill="#ffd700" x="681.6" y="98.4">k</text>
	<text fill="#ffd700" x="690.0" y="98.4">i</text>
	<text fill="#ffd700" x="698.4" y="98.4">n</text>
	<text fill="#ffd700" x="706.8" y="98.4">g</text>
	<text fill="#ffd700" x="715.2" y="98.4">…</text>
	<text fill="#87afff" x="732.0" y="98.4">│</text>
	<text fill="#ffd700" x="748.8" y="98.4">⚡</text>
	<text fill="#ffd700" x="774.0" y="98.4">F</text>
	<text fill="#ffd700" x="782.4" y="98.4">a</text>
	<text fill="#ffd700" x="790.8" y="98.4">s</text>
	<text fill="#ffd700" x="799.2" y="98.4">t</text>
	<text fill="#87afd7" x="34.8" y="116.4">⠛</text>
	<text fill="#87afff" x="43.2" y="116.4">⣿</text>
	<text fill="#87afff" x="51.6" y="116.4">⣿</text>
	<text fill="#87afff" x="60.0" y="116.4">⣿</text>
	<text fill="#87afff" x="68.4" y="116.4">⣿</text>
	<text fill="#87afff" x="76.8" y="116.4">⣿</text>
	<text fill="#87afff" x="85.2" y="116.4">⣷</text>
	<text fill="#87afff" x="93.6" y="116.4">⣤</text>
	<text fill="#5fafff" x="102.0" y="116.4">⣼</text>
	<text fill="#5fafff" x="110.4" y="116.4">⣿</text>
	<text fill="#5fafff" x="118.8" y="116.4">⣧</text>
	<text fill="#5fafff" x="127.2" y="116.4">⣤</text>
	<text fill="#5fafff" x="135.6" y="116.4">⣤</text>
	<text fill="#5fafff" x="144.0" y="116.4">⣾</text>
	<text fill="#5fafff" x="152.4" y="116.4">⣿</text>
	<text fill="#5fafff" x="160.8" y="116.4">⣿</text>
	<text fill="#5fafff" x="169.2" y="116.4">⣿</text>
	<text fill="#87afd7" x="177.6" y="116.4">⣿</text>
	<text fill="#87afaf" x="186.0" y="116.4">⣿</text>
	<text fill="#a8a8a8" x="194.4" y="116.4">⠛</text>
	<text fill="#d7af00" x="244.8" y="116.4">🌿</text>
	<text fill="#d7af00" x="270.0" y="116.4">f</text>
	<text fill="#d7af00" x="278.4" y="116.4">e</text>
	<text fill="#d7af00" x="286.8" y="116.4">a</text>
	<text fill="#d7af00" x="295.2" y="116.4">t</text>
	<text fill="#d7af00" x="303.6" y="116.4">/</text>
	<text fill="#d7af00" x="312.0" y="116.4">w</text>
	<text fill="#d7af00" x="320.4" y="116.4">i</text>
	<text fill="#d7af00" x="328.8" y="116.4">d</text>
	<text fill="#d7af00" x="337.2" y="116.4">g</text>
	<text fill="#d7af00" x="345.6" y="116.4">e</text>
	<text fill="#d7af00" x="354.0" y="116.4">t</text>
	<text fill="#d7af00" x="362.4" y="116.4">-</text>
	<text fill="#d7af00" x="370.8" y="116.4">l</text>
	<text fill="#d7af00" x="379.2" y="116.4">a</text>
	<text fill="#d7af00" x="387.6" y="116.4">y</text>
	<text fill="#d7af00" x="396.0" y="116.4">e</text>
	<text fill="#d7af00" x="404.4" y="116.4">r</text>
	<text fill="#87afff" x="421.2" y="116.4">│</text>
	<text fill="#d7af00" x="438.0" y="116.4">🔗</text>
	<text fill="#d7af00" x="463.2" y="116.4">P</text>
	<text fill="#d7af00" x="471.6" y="116.4">R</text>
	<text fill="#d7af00" x="480.0" y="116.4">:</text>
	<a xlink:href="https://github.com/krayong/ccsidekick/pull/42">
		<text fill="#d7af00" x="496.8" y="116.4">#</text>
	</a>
	<a xlink:href="https://github.com/krayong/ccsidekick/pull/42">
		<text fill="#d7af00" x="505.2" y="116.4">4</text>
	</a>
	<a xlink:href="https://github.com/krayong/ccsidekick/pull/42">
		<text fill="#d7af00" x="513.6" y="116.4">2</text>
	</a>
	<text fill="#d7af00" x="530.4" y="116.4">·</text>
	<text fill="#00ff00" x="547.2" y="116.4">a</text>
	<text fill="#00ff00" x="555.6" y="116.4">p</text>
	<text fill="#00ff00" x="564.0" y="116.4">p</text>
	<text fill="#00ff00" x="572.4" y="116.4">r</text>
	<text fill="#00ff00" x="580.8" y="116.4">o</text>
	<text fill="#00ff00" x="589.2" y="116.4">v</text>
	<text fill="#00ff00" x="597.6" y="116.4">e</text>
	<text fill="#00ff00" x="606.0" y="116.4">d</text>
	<text fill="#87afff" x="622.8" y="116.4">│</text>
	<text fill="#00ff00" x="639.6" y="116.4">+</text>
	<text fill="#00ff00" x="648.0" y="116.4">3</text>
	<text fill="#ffaf00" x="664.8" y="116.4">2</text>
	<text fill="#ffaf00" x="681.6" y="116.4">f</text>
	<text fill="#ffaf00" x="690.0" y="116.4">i</text>
	<text fill="#ffaf00" x="698.4" y="116.4">l</text>
	<text fill="#ffaf00" x="706.8" y="116.4">e</text>
	<text fill="#ffaf00" x="715.2" y="116.4">s</text>
	<text fill="#87afff" x="732.0" y="116.4">│</text>
	<text fill="#00ff00" x="748.8" y="116.4">↑</text>
	<text fill="#00ff00" x="757.2" y="116.4">1</text>
	<text fill="#87afff" x="774.0" y="116.4">│</text>
	<text fill="#d7af00" x="790.8" y="116.4">(</text>
	<text fill="#d7af00" x="799.2" y="116.4">+</text>
	<text fill="#d7af00" x="807.6" y="116.4">1</text>
	<text fill="#d7af00" x="824.4" y="116.4">!</text>
	<text fill="#d7af00" x="832.8" y="116.4">1</text>
	<text fill="#d7af00" x="849.6" y="116.4">?</text>
	<text fill="#d7af00" x="858.0" y="116.4">1</text>
	<text fill="#d7af00" x="866.4" y="116.4">)</text>
	<text fill="#87afff" x="43.2" y="134.4">⣿</text>
	<text fill="#5fafff" x="51.6" y="134.4">⣿</text>
	<text fill="#5fafff" x="60.0" y="134.4">⣿</text>
	<text fill="#5fafff" x="68.4" y="134.4">⣿</text>
	<text fill="#5fafff" x="76.8" y="134.4">⣿</text>
	<text fill="#5fafff" x="85.2" y="134.4">⣿</text>
	<text fill="#5fafff" x="93.6" y="134.4">⣿</text>
	<text fill="#5fafff" x="102.0" y="134.4">⣿</text>
	<text fill="#5fafff" x="110.4" y="134.4">⣿</text>
	<text fill="#5fafff" x="118.8" y="134.4">⣿</text>
	<text fill="#87afd7" x="127.2" y="134.4">⣿</text>
	<text fill="#87afaf" x="135.6" y="134.4">⣿</text>
	<text fill="#a8a8a8" x="144.0" y="134.4">⣿</text>
	<text fill="#afaf87" x="152.4" y="134.4">⣿</text>
	<text fill="#afd75f" x="160.8" y="134.4">⣿</text>
	<text fill="#d7d75f" x="169.2" y="134.4">⣿</text>
	<text fill="#d7d700" x="177.6" y="134.4">⣿</text>
	<text fill="#87afff" x="244.8" y="134.4">🧾</text>
	<text fill="#87afff" x="270.0" y="134.4">C</text>
	<text fill="#87afff" x="278.4" y="134.4">h</text>
	<text fill="#87afff" x="286.8" y="134.4">a</text>
	<text fill="#87afff" x="295.2" y="134.4">t</text>
	<text fill="#87afff" x="312.0" y="134.4">C</text>
	<text fill="#87afff" x="320.4" y="134.4">o</text>
	<text fill="#87afff" x="328.8" y="134.4">s</text>
	<text fill="#87afff" x="337.2" y="134.4">t</text>
	<text fill="#87afff" x="345.6" y="134.4">:</text>
	<text fill="#87afff" x="362.4" y="134.4">$</text>
	<text fill="#87afff" x="370.8" y="134.4">0</text>
	<text fill="#87afff" x="379.2" y="134.4">.</text>
	<text fill="#87afff" x="387.6" y="134.4">8</text>
	<text fill="#87afff" x="396.0" y="134.4">7</text>
	<text fill="#87afff" x="412.8" y="134.4">│</text>
	<text fill="#87afff" x="429.6" y="134.4">🏗️</text>
	<text fill="#87afff" x="454.8" y="134.4">P</text>
	<text fill="#87afff" x="463.2" y="134.4">r</text>
	<text fill="#87afff" x="471.6" y="134.4">o</text>
	<text fill="#87afff" x="480.0" y="134.4">j</text>
	<text fill="#87afff" x="488.4" y="134.4">e</text>
	<text fill="#87afff" x="496.8" y="134.4">c</text>
	<text fill="#87afff" x="505.2" y="134.4">t</text>
	<text fill="#87afff" x="522.0" y="134.4">C</text>
	<text fill="#87afff" x="530.4" y="134.4">o</text>
	<text fill="#87afff" x="538.8" y="134.4">s</text>
	<text fill="#87afff" x="547.2" y="134.4">t</text>
	<text fill="#87afff" x="555.6" y="134.4">:</text>
	<text fill="#87afff" x="572.4" y="134.4">$</text>
	<text fill="#87afff" x="580.8" y="134.4">1</text>
	<text fill="#87afff" x="589.2" y="134.4">.</text>
	<text fill="#87afff" x="597.6" y="134.4">5</text>
	<text fill="#87afff" x="606.0" y="134.4">7</text>
	<text fill="#87afff" x="622.8" y="134.4">│</text>
	<text fill="#87afff" x="639.6" y="134.4">🏦</text>
	<text fill="#87afff" x="664.8" y="134.4">T</text>
	<text fill="#87afff" x="673.2" y="134.4">o</text>
	<text fill="#87afff" x="681.6" y="134.4">t</text>
	<text fill="#87afff" x="690.0" y="134.4">a</text>
	<text fill="#87afff" x="698.4" y="134.4">l</text>
	<text fill="#87afff" x="715.2" y="134.4">C</text>
	<text fill="#87afff" x="723.6" y="134.4">o</text>
	<text fill="#87afff" x="732.0" y="134.4">s</text>
	<text fill="#87afff" x="740.4" y="134.4">t</text>
	<text fill="#87afff" x="748.8" y="134.4">:</text>
	<text fill="#87afff" x="765.6" y="134.4">$</text>
	<text fill="#87afff" x="774.0" y="134.4">1</text>
	<text fill="#87afff" x="782.4" y="134.4">.</text>
	<text fill="#87afff" x="790.8" y="134.4">9</text>
	<text fill="#87afff" x="799.2" y="134.4">7</text>
	<text fill="#87afaf" x="85.2" y="152.4">⠉</text>
	<text fill="#a8a8a8" x="93.6" y="152.4">⠙</text>
	<text fill="#afaf87" x="102.0" y="152.4">⠿</text>
	<text fill="#afd75f" x="110.4" y="152.4">⣿</text>
	<text fill="#d7d75f" x="118.8" y="152.4">⠿</text>
	<text fill="#d7d700" x="127.2" y="152.4">⠋</text>
	<text fill="#ffd700" x="135.6" y="152.4">⠉</text>
	<text fill="#5fafff" x="244.8" y="152.4">📊</text>
	<text fill="#5fafff" x="270.0" y="152.4">C</text>
	<text fill="#5fafff" x="278.4" y="152.4">o</text>
	<text fill="#5fafff" x="286.8" y="152.4">n</text>
	<text fill="#5fafff" x="295.2" y="152.4">t</text>
	<text fill="#5fafff" x="303.6" y="152.4">e</text>
	<text fill="#5fafff" x="312.0" y="152.4">x</text>
	<text fill="#5fafff" x="320.4" y="152.4">t</text>
	<text fill="#5fafff" x="337.2" y="152.4">U</text>
	<text fill="#5fafff" x="345.6" y="152.4">s</text>
	<text fill="#5fafff" x="354.0" y="152.4">a</text>
	<text fill="#5fafff" x="362.4" y="152.4">g</text>
	<text fill="#5fafff" x="370.8" y="152.4">e</text>
	<text fill="#5fafff" x="379.2" y="152.4">:</text>
	<text fill="#ffaf00" x="396.0" y="152.4">4</text>
	<text fill="#ffaf00" x="404.4" y="152.4">3</text>
	<text fill="#ffaf00" x="412.8" y="152.4">%</text>
	<text fill="#ffaf00" x="429.6" y="152.4">(</text>
	<text fill="#ffaf00" x="438.0" y="152.4">4</text>
	<text fill="#ffaf00" x="446.4" y="152.4">3</text>
	<text fill="#ffaf00" x="454.8" y="152.4">0</text>
	<text fill="#ffaf00" x="463.2" y="152.4">k</text>
	<text fill="#ffaf00" x="471.6" y="152.4">/</text>
	<text fill="#ffaf00" x="480.0" y="152.4">1</text>
	<text fill="#ffaf00" x="488.4" y="152.4">M</text>
	<text fill="#ffaf00" x="496.8" y="152.4">)</text>
	<text fill="#87afff" x="513.6" y="152.4">│</text>
	<text fill="#5fafff" x="530.4" y="152.4">⏱️</text>
	<text fill="#5fafff" x="555.6" y="152.4">B</text>
	<text fill="#5fafff" x="564.0" y="152.4">l</text>
	<text fill="#5fafff" x="572.4" y="152.4">o</text>
	<text fill="#5fafff" x="580.8" y="152.4">c</text>
	<text fill="#5fafff" x="589.2" y="152.4">k</text>
	<text fill="#5fafff" x="606.0" y="152.4">U</text>
	<text fill="#5fafff" x="614.4" y="152.4">s</text>
	<text fill="#5fafff" x="622.8" y="152.4">a</text>
	<text fill="#5fafff" x="631.2" y="152.4">g</text>
	<text fill="#5fafff" x="639.6" y="152.4">e</text>
	<text fill="#5fafff" x="648.0" y="152.4">:</text>
	<text fill="#ff0000" x="664.8" y="152.4">8</text>
	<text fill="#ff0000" x="673.2" y="152.4">6</text>
	<text fill="#ff0000" x="681.6" y="152.4">%</text>
	<text fill="#ff0000" x="698.4" y="152.4">(</text>
	<text fill="#ff0000" x="706.8" y="152.4">2</text>
	<text fill="#ff0000" x="715.2" y="152.4">h</text>
	<text fill="#ff0000" x="732.0" y="152.4">1</text>
	<text fill="#ff0000" x="740.4" y="152.4">3</text>
	<text fill="#ff0000" x="748.8" y="152.4">m</text>
	<text fill="#ff0000" x="765.6" y="152.4">l</text>
	<text fill="#ff0000" x="774.0" y="152.4">e</text>
	<text fill="#ff0000" x="782.4" y="152.4">f</text>
	<text fill="#ff0000" x="790.8" y="152.4">t</text>
	<text fill="#ff0000" x="799.2" y="152.4">)</text>
	<text fill="#87afff" x="816.0" y="152.4">│</text>
	<text fill="#5fafff" x="832.8" y="152.4">📅</text>
	<text fill="#5fafff" x="858.0" y="152.4">W</text>
	<text fill="#5fafff" x="866.4" y="152.4">e</text>
	<text fill="#5fafff" x="874.8" y="152.4">e</text>
	<text fill="#5fafff" x="883.2" y="152.4">k</text>
	<text fill="#5fafff" x="891.6" y="152.4">l</text>
	<text fill="#5fafff" x="900.0" y="152.4">y</text>
	<text fill="#5fafff" x="916.8" y="152.4">U</text>
	<text fill="#5fafff" x="925.2" y="152.4">s</text>
	<text fill="#5fafff" x="933.6" y="152.4">a</text>
	<text fill="#5fafff" x="942.0" y="152.4">g</text>
	<text fill="#5fafff" x="950.4" y="152.4">e</text>
	<text fill="#5fafff" x="958.8" y="152.4">:</text>
	<text fill="#ffaf00" x="975.6" y="152.4">6</text>
	<text fill="#ffaf00" x="984.0" y="152.4">3</text>
	<text fill="#ffaf00" x="992.4" y="152.4">%</text>
	<text fill="#ffaf00" x="1009.2" y="152.4">(</text>
	<text fill="#ffaf00" x="1017.6" y="152.4">3</text>
	<text fill="#ffaf00" x="1026.0" y="152.4">d</text>
	<text fill="#ffaf00" x="1042.8" y="152.4">4</text>
	<text fill="#ffaf00" x="1051.2" y="152.4">h</text>
	<text fill="#ffaf00" x="1068.0" y="152.4">l</text>
	<text fill="#ffaf00" x="1076.4" y="152.4">e</text>
	<text fill="#ffaf00" x="1084.8" y="152.4">f</text>
	<text fill="#ffaf00" x="1093.2" y="152.4">t</text>
	<text fill="#ffaf00" x="1101.6" y="152.4">)</text>
	<text fill="#ffd700" x="110.4" y="170.4">⠿</text>
	<text fill="#87d7ff" x="244.8" y="188.4">🦇</text>
	<text fill="#87d7ff" x="270.0" y="188.4">T</text>
	<text fill="#87d7ff" x="278.4" y="188.4">h</text>
	<text fill="#87d7ff" x="286.8" y="188.4">e</text>
	<text fill="#87d7ff" x="303.6" y="188.4">b</text>
	<text fill="#afd7ff" x="312.0" y="188.4">l</text>
	<text fill="#afd7ff" x="320.4" y="188.4">o</text>
	<text fill="#afd7d7" x="328.8" y="188.4">c</text>
	<text fill="#afd7d7" x="337.2" y="188.4">k</text>
	<text fill="#afd7d7" x="354.0" y="188.4">r</text>
	<text fill="#afd7d7" x="362.4" y="188.4">u</text>
	<text fill="#afd7d7" x="370.8" y="188.4">n</text>
	<text fill="#afd7d7" x="379.2" y="188.4">s</text>
	<text fill="#d0d0d0" x="396.0" y="188.4">l</text>
	<text fill="#d0d0d0" x="404.4" y="188.4">o</text>
	<text fill="#d0d0d0" x="412.8" y="188.4">w</text>
	<text fill="#d0d0d0" x="421.2" y="188.4">.</text>
	<text fill="#d7d7d7" x="438.0" y="188.4">E</text>
	<text fill="#d7d7af" x="446.4" y="188.4">n</text>
	<text fill="#d7d7af" x="454.8" y="188.4">d</text>
	<text fill="#ffd7af" x="463.2" y="188.4">u</text>
	<text fill="#ffd7af" x="471.6" y="188.4">r</text>
	<text fill="#ffd7af" x="480.0" y="188.4">a</text>
	<text fill="#ffd7af" x="488.4" y="188.4">n</text>
	<text fill="#ffd7af" x="496.8" y="188.4">c</text>
	<text fill="#ffd7af" x="505.2" y="188.4">e</text>
	<text fill="#ffd7af" x="522.0" y="188.4">i</text>
	<text fill="#ffd787" x="530.4" y="188.4">s</text>
	<text fill="#ffd787" x="547.2" y="188.4">p</text>
	<text fill="#ffd787" x="555.6" y="188.4">a</text>
	<text fill="#ffd787" x="564.0" y="188.4">c</text>
	<text fill="#ffd787" x="572.4" y="188.4">i</text>
	<text fill="#ffd75f" x="580.8" y="188.4">n</text>
	<text fill="#ffd75f" x="589.2" y="188.4">g</text>
	<text fill="#ffd75f" x="597.6" y="188.4">,</text>
	<text fill="#d7af5f" x="614.4" y="188.4">n</text>
	<text fill="#d7af5f" x="622.8" y="188.4">o</text>
	<text fill="#d7af5f" x="631.2" y="188.4">t</text>
	<text fill="#d7af5f" x="648.0" y="188.4">s</text>
	<text fill="#d7af5f" x="656.4" y="188.4">p</text>
	<text fill="#d7af00" x="664.8" y="188.4">r</text>
	<text fill="#d7af00" x="673.2" y="188.4">i</text>
	<text fill="#d7af00" x="681.6" y="188.4">n</text>
	<text fill="#d7af00" x="690.0" y="188.4">t</text>
	<text fill="#d7af00" x="698.4" y="188.4">i</text>
	<text fill="#d7af00" x="706.8" y="188.4">n</text>
	<text fill="#d7af00" x="715.2" y="188.4">g</text>
	<text fill="#d7af00" x="723.6" y="188.4">.</text>
</svg>
