<svg xmlns="http://www.w3.org/2000/svg" xmlns:xlink="http://www.w3.org/1999/xlink" width="1128" height="228" viewBox="0 0 1128 228" font-family="ui-monospace, 'SF Mono', Menlo, Consolas, 'DejaVu Sans Mono', monospace" font-size="14">
<rect width="1128" height="228" rx="10" fill="#0d1117"/>
<path d="M0 30 V10 a10 10 0 0 1 10 -10 H1118 a10 10 0 0 1 10 10 V30 Z" fill="#161b22"/>
<circle cx="18" cy="15" r="5.5" fill="#ff5f56"/>
<circle cx="36" cy="15" r="5.5" fill="#ffbd2e"/>
<circle cx="54" cy="15" r="5.5" fill="#27c93f"/>
<text x="564" y="19" text-anchor="middle" fill="#8b949e" font-size="12">ccsidekick — statusLine</text>
<text x="244.8" y="62.4" fill="#c9d1d9">⚠️</text>
<text x="270.0" y="62.4" fill="#ffffff">5</text>
<text x="278.4" y="62.4" fill="#ffffff">h</text>
<text x="295.2" y="62.4" fill="#ffffff">l</text>
<text x="303.6" y="62.4" fill="#ffffff">i</text>
<text x="312.0" y="62.4" fill="#ffffff">m</text>
<text x="320.4" y="62.4" fill="#ffffff">i</text>
<text x="328.8" y="62.4" fill="#ffffff">t</text>
<text x="345.6" y="62.4" fill="#ffffff">a</text>
<text x="354.0" y="62.4" fill="#ffffff">t</text>
<text x="370.8" y="62.4" fill="#ffffff">8</text>
<text x="379.2" y="62.4" fill="#ffffff">6</text>
<text x="387.6" y="62.4" fill="#ffffff">%</text>
<text x="396.0" y="62.4" fill="#ffffff">,</text>
<text x="412.8" y="62.4" fill="#ffffff">2</text>
<text x="421.2" y="62.4" fill="#ffffff">h</text>
<text x="438.0" y="62.4" fill="#ffffff">1</text>
<text x="446.4" y="62.4" fill="#ffffff">3</text>
<text x="454.8" y="62.4" fill="#ffffff">m</text>
<text x="471.6" y="62.4" fill="#ffffff">t</text>
<text x="480.0" y="62.4" fill="#ffffff">o</text>
<text x="496.8" y="62.4" fill="#ffffff">r</text>
<text x="505.2" y="62.4" fill="#ffffff">e</text>
<text x="513.6" y="62.4" fill="#ffffff">s</text>
<text x="522.0" y="62.4" fill="#ffffff">e</text>
<text x="530.4" y="62.4" fill="#ffffff">t</text>
<text x="538.8" y="62.4" fill="#ffffff">.</text>
<text x="555.6" y="62.4" fill="#ffffff">S</text>
<text x="564.0" y="62.4" fill="#ffffff">a</text>
<text x="572.4" y="62.4" fill="#ffffff">v</text>
<text x="580.8" y="62.4" fill="#ffffff">e</text>
<text x="597.6" y="62.4" fill="#ffffff">h</text>
<text x="606.0" y="62.4" fill="#ffffff">e</text>
<text x="614.4" y="62.4" fill="#ffffff">a</text>
<text x="622.8" y="62.4" fill="#ffffff">v</text>
<text x="631.2" y="62.4" fill="#ffffff">y</text>
<text x="648.0" y="62.4" fill="#ffffff">a</text>
<text x="656.4" y="62.4" fill="#ffffff">s</text>
<text x="664.8" y="62.4" fill="#ffffff">k</text>
<text x="673.2" y="62.4" fill="#ffffff">s</text>
<text x="690.0" y="62.4" fill="#ffffff">f</text>
<text x="698.4" y="62.4" fill="#ffffff">o</text>
<text x="706.8" y="62.4" fill="#ffffff">r</text>
<text x="723.6" y="62.4" fill="#ffffff">a</text>
<text x="732.0" y="62.4" fill="#ffffff">f</text>
<text x="740.4" y="62.4" fill="#ffffff">t</text>
<text x="748.8" y="62.4" fill="#ffffff">e</text>
<text x="757.2" y="62.4" fill="#ffffff">r</text>
<text x="765.6" y="62.4" fill="#ffffff">.</text>
<text x="18.0" y="98.4" fill="#87d75f">⠤</text>
<text x="26.4" y="98.4" fill="#afd75f">⢤</text>
<text x="34.8" y="98.4" fill="#d7d787">⣤</text>
<text x="43.2" y="98.4" fill="#d7d787">⣤</text>
<text x="51.6" y="98.4" fill="#ffd787">⣤</text>
<text x="60.0" y="98.4" fill="#ffd787">⣤</text>
<text x="68.4" y="98.4" fill="#ffd787">⣤</text>
<text x="76.8" y="98.4" fill="#ffd787">⣤</text>
<text x="102.0" y="98.4" fill="#ffaf87">⢰</text>
<text x="110.4" y="98.4" fill="#ffaf87">⣀</text>
<text x="118.8" y="98.4" fill="#ffaf87">⡆</text>
<text x="144.0" y="98.4" fill="#ff8787">⢠</text>
<text x="152.4" y="98.4" fill="#ff8787">⣤</text>
<text x="160.8" y="98.4" fill="#ff8787">⣤</text>
<text x="169.2" y="98.4" fill="#d78787">⣤</text>
<text x="177.6" y="98.4" fill="#d787af">⣤</text>
<text x="186.0" y="98.4" fill="#af87af">⣤</text>
<text x="194.4" y="98.4" fill="#afafd7">⣤</text>
<text x="202.8" y="98.4" fill="#87afd7">⡤</text>
<text x="211.2" y="98.4" fill="#5fafff">⠤</text>
<text x="244.8" y="98.4" fill="#5fafff">📁</text>
<text x="270.0" y="98.4" fill="#5fafff">~</text>
<text x="278.4" y="98.4" fill="#5fafff">/</text>
<text x="286.8" y="98.4" fill="#5fafff">d</text>
<text x="295.2" y="98.4" fill="#5fafff">e</text>
<text x="303.6" y="98.4" fill="#5fafff">v</text>
<text x="312.0" y="98.4" fill="#5fafff">/</text>
<text x="320.4" y="98.4" fill="#5fafff">c</text>
<text x="328.8" y="98.4" fill="#5fafff">c</text>
<text x="337.2" y="98.4" fill="#5fafff">s</text>
<text x="345.6" y="98.4" fill="#5fafff">i</text>
<text x="354.0" y="98.4" fill="#5fafff">d</text>
<text x="362.4" y="98.4" fill="#5fafff">e</text>
<text x="370.8" y="98.4" fill="#5fafff">k</text>
<text x="379.2" y="98.4" fill="#5fafff">i</text>
<text x="387.6" y="98.4" fill="#5fafff">c</text>
<text x="396.0" y="98.4" fill="#5fafff">k</text>
<text x="412.8" y="98.4" fill="#afafff">│</text>
<text x="429.6" y="98.4" fill="#5fafff">O</text>
<text x="438.0" y="98.4" fill="#5fafff">p</text>
<text x="446.4" y="98.4" fill="#5fafff">u</text>
<text x="454.8" y="98.4" fill="#5fafff">s</text>
<text x="471.6" y="98.4" fill="#5fafff">4</text>
<text x="480.0" y="98.4" fill="#5fafff">.</text>
<text x="488.4" y="98.4" fill="#5fafff">8</text>
<text x="505.2" y="98.4" fill="#5fafff">(</text>
<text x="513.6" y="98.4" fill="#5fafff">1</text>
<text x="522.0" y="98.4" fill="#5fafff">M</text>
<text x="530.4" y="98.4" fill="#5fafff">)</text>
<text x="547.2" y="98.4" fill="#5fafff">✦</text>
<text x="564.0" y="98.4" fill="#5fafff">h</text>
<text x="572.4" y="98.4" fill="#5fafff">i</text>
<text x="580.8" y="98.4" fill="#5fafff">g</text>
<text x="589.2" y="98.4" fill="#5fafff">h</text>
<text x="606.0" y="98.4" fill="#afafff">│</text>
<text x="622.8" y="98.4" fill="#5fafff">🧠</text>
<text x="648.0" y="98.4" fill="#5fafff">T</text>
<text x="656.4" y="98.4" fill="#5fafff">h</text>
<text x="664.8" y="98.4" fill="#5fafff">i</text>
<text x="673.2" y="98.4" fill="#5fafff">n</text>
<text x="681.6" y="98.4" fill="#5fafff">k</text>
<text x="690.0" y="98.4" fill="#5fafff">i</text>
<text x="698.4" y="98.4" fill="#5fafff">n</text>
<text x="706.8" y="98.4" fill="#5fafff">g</text>
<text x="715.2" y="98.4" fill="#5fafff">…</text>
<text x="732.0" y="98.4" fill="#afafff">│</text>
<text x="748.8" y="98.4" fill="#5fafff">⚡</text>
<text x="774.0" y="98.4" fill="#5fafff">F</text>
<text x="782.4" y="98.4" fill="#5fafff">a</text>
<text x="790.8" y="98.4" fill="#5fafff">s</text>
<text x="799.2" y="98.4" fill="#5fafff">t</text>
<text x="34.8" y="116.4" fill="#ffd787">⠛</text>
<text x="43.2" y="116.4" fill="#ffd787">⣿</text>
<text x="51.6" y="116.4" fill="#ffaf87">⣿</text>
<text x="60.0" y="116.4" fill="#ffaf87">⣿</text>
<text x="68.4" y="116.4" fill="#ffaf87">⣿</text>
<text x="76.8" y="116.4" fill="#ff8787">⣿</text>
<text x="85.2" y="116.4" fill="#ff8787">⣷</text>
<text x="93.6" y="116.4" fill="#ff8787">⣤</text>
<text x="102.0" y="116.4" fill="#ff8787">⣼</text>
<text x="110.4" y="116.4" fill="#ff8787">⣿</text>
<text x="118.8" y="116.4" fill="#d78787">⣧</text>
<text x="127.2" y="116.4" fill="#d787af">⣤</text>
<text x="135.6" y="116.4" fill="#af87af">⣤</text>
<text x="144.0" y="116.4" fill="#afafd7">⣾</text>
<text x="152.4" y="116.4" fill="#87afd7">⣿</text>
<text x="160.8" y="116.4" fill="#5fafff">⣿</text>
<text x="169.2" y="116.4" fill="#5fafff">⣿</text>
<text x="177.6" y="116.4" fill="#5fafff">⣿</text>
<text x="186.0" y="116.4" fill="#5fafff">⣿</text>
<text x="194.4" y="116.4" fill="#5fafff">⠛</text>
<text x="244.8" y="116.4" fill="#afafff">🌿</text>
<text x="270.0" y="116.4" fill="#afafff">f</text>
<text x="278.4" y="116.4" fill="#afafff">e</text>
<text x="286.8" y="116.4" fill="#afafff">a</text>
<text x="295.2" y="116.4" fill="#afafff">t</text>
<text x="303.6" y="116.4" fill="#afafff">/</text>
<text x="312.0" y="116.4" fill="#afafff">w</text>
<text x="320.4" y="116.4" fill="#afafff">i</text>
<text x="328.8" y="116.4" fill="#afafff">d</text>
<text x="337.2" y="116.4" fill="#afafff">g</text>
<text x="345.6" y="116.4" fill="#afafff">e</text>
<text x="354.0" y="116.4" fill="#afafff">t</text>
<text x="362.4" y="116.4" fill="#afafff">-</text>
<text x="370.8" y="116.4" fill="#afafff">l</text>
<text x="379.2" y="116.4" fill="#afafff">a</text>
<text x="387.6" y="116.4" fill="#afafff">y</text>
<text x="396.0" y="116.4" fill="#afafff">e</text>
<text x="404.4" y="116.4" fill="#afafff">r</text>
<text x="421.2" y="116.4" fill="#afafff">│</text>
<text x="438.0" y="116.4" fill="#afafff">🔗</text>
<text x="463.2" y="116.4" fill="#afafff">P</text>
<text x="471.6" y="116.4" fill="#afafff">R</text>
<text x="480.0" y="116.4" fill="#afafff">:</text>
<a xlink:href="https://github.com/krayong/ccsidekick/pull/42"><text x="496.8" y="116.4" fill="#afafff">#</text></a>
<a xlink:href="https://github.com/krayong/ccsidekick/pull/42"><text x="505.2" y="116.4" fill="#afafff">4</text></a>
<a xlink:href="https://github.com/krayong/ccsidekick/pull/42"><text x="513.6" y="116.4" fill="#afafff">2</text></a>
<text x="530.4" y="116.4" fill="#afafff">·</text>
<text x="547.2" y="116.4" fill="#5fd75f">a</text>
<text x="555.6" y="116.4" fill="#5fd75f">p</text>
<text x="564.0" y="116.4" fill="#5fd75f">p</text>
<text x="572.4" y="116.4" fill="#5fd75f">r</text>
<text x="580.8" y="116.4" fill="#5fd75f">o</text>
<text x="589.2" y="116.4" fill="#5fd75f">v</text>
<text x="597.6" y="116.4" fill="#5fd75f">e</text>
<text x="606.0" y="116.4" fill="#5fd75f">d</text>
<text x="622.8" y="116.4" fill="#afafff">│</text>
<text x="639.6" y="116.4" fill="#5fd75f">+</text>
<text x="648.0" y="116.4" fill="#5fd75f">3</text>
<text x="664.8" y="116.4" fill="#ffaf00">2</text>
<text x="681.6" y="116.4" fill="#ffaf00">f</text>
<text x="690.0" y="116.4" fill="#ffaf00">i</text>
<text x="698.4" y="116.4" fill="#ffaf00">l</text>
<text x="706.8" y="116.4" fill="#ffaf00">e</text>
<text x="715.2" y="116.4" fill="#ffaf00">s</text>
<text x="732.0" y="116.4" fill="#afafff">│</text>
<text x="748.8" y="116.4" fill="#5fd75f">↑</text>
<text x="757.2" y="116.4" fill="#5fd75f">1</text>
<text x="774.0" y="116.4" fill="#afafff">│</text>
<text x="790.8" y="116.4" fill="#afafff">(</text>
<text x="799.2" y="116.4" fill="#afafff">+</text>
<text x="807.6" y="116.4" fill="#afafff">1</text>
<text x="824.4" y="116.4" fill="#afafff">!</text>
<text x="832.8" y="116.4" fill="#afafff">1</text>
<text x="849.6" y="116.4" fill="#afafff">?</text>
<text x="858.0" y="116.4" fill="#afafff">1</text>
<text x="866.4" y="116.4" fill="#afafff">)</text>
<text x="43.2" y="134.4" fill="#ff8787">⣿</text>
<text x="51.6" y="134.4" fill="#ff8787">⣿</text>
<text x="60.0" y="134.4" fill="#ff8787">⣿</text>
<text x="68.4" y="134.4" fill="#d78787">⣿</text>
<text x="76.8" y="134.4" fill="#d787af">⣿</text>
<text x="85.2" y="134.4" fill="#af87af">⣿</text>
<text x="93.6" y="134.4" fill="#afafd7">⣿</text>
<text x="102.0" y="134.4" fill="#87afd7">⣿</text>
<text x="110.4" y="134.4" fill="#5fafff">⣿</text>
<text x="118.8" y="134.4" fill="#5fafff">⣿</text>
<text x="127.2" y="134.4" fill="#5fafff">⣿</text>
<text x="135.6" y="134.4" fill="#5fafff">⣿</text>
<text x="144.0" y="134.4" fill="#5fafff">⣿</text>
<text x="152.4" y="134.4" fill="#5fafff">⣿</text>
<text x="160.8" y="134.4" fill="#87afff">⣿</text>
<text x="169.2" y="134.4" fill="#87afff">⣿</text>
<text x="177.6" y="134.4" fill="#87afff">⣿</text>
<text x="244.8" y="134.4" fill="#5fd75f">🧾</text>
<text x="270.0" y="134.4" fill="#5fd75f">C</text>
<text x="278.4" y="134.4" fill="#5fd75f">h</text>
<text x="286.8" y="134.4" fill="#5fd75f">a</text>
<text x="295.2" y="134.4" fill="#5fd75f">t</text>
<text x="312.0" y="134.4" fill="#5fd75f">C</text>
<text x="320.4" y="134.4" fill="#5fd75f">o</text>
<text x="328.8" y="134.4" fill="#5fd75f">s</text>
<text x="337.2" y="134.4" fill="#5fd75f">t</text>
<text x="345.6" y="134.4" fill="#5fd75f">:</text>
<text x="362.4" y="134.4" fill="#5fd75f">$</text>
<text x="370.8" y="134.4" fill="#5fd75f">0</text>
<text x="379.2" y="134.4" fill="#5fd75f">.</text>
<text x="387.6" y="134.4" fill="#5fd75f">8</text>
<text x="396.0" y="134.4" fill="#5fd75f">7</text>
<text x="412.8" y="134.4" fill="#afafff">│</text>
<text x="429.6" y="134.4" fill="#5fd75f">🏗️</text>
<text x="454.8" y="134.4" fill="#5fd75f">P</text>
<text x="463.2" y="134.4" fill="#5fd75f">r</text>
<text x="471.6" y="134.4" fill="#5fd75f">o</text>
<text x="480.0" y="134.4" fill="#5fd75f">j</text>
<text x="488.4" y="134.4" fill="#5fd75f">e</text>
<text x="496.8" y="134.4" fill="#5fd75f">c</text>
<text x="505.2" y="134.4" fill="#5fd75f">t</text>
<text x="522.0" y="134.4" fill="#5fd75f">C</text>
<text x="530.4" y="134.4" fill="#5fd75f">o</text>
<text x="538.8" y="134.4" fill="#5fd75f">s</text>
<text x="547.2" y="134.4" fill="#5fd75f">t</text>
<text x="555.6" y="134.4" fill="#5fd75f">:</text>
<text x="572.4" y="134.4" fill="#5fd75f">$</text>
<text x="580.8" y="134.4" fill="#5fd75f">1</text>
<text x="589.2" y="134.4" fill="#5fd75f">.</text>
<text x="597.6" y="134.4" fill="#5fd75f">5</text>
<text x="606.0" y="134.4" fill="#5fd75f">7</text>
<text x="622.8" y="134.4" fill="#afafff">│</text>
<text x="639.6" y="134.4" fill="#5fd75f">🏦</text>
<text x="664.8" y="134.4" fill="#5fd75f">T</text>
<text x="673.2" y="134.4" fill="#5fd75f">o</text>
<text x="681.6" y="134.4" fill="#5fd75f">t</text>
<text x="690.0" y="134.4" fill="#5fd75f">a</text>
<text x="698.4" y="134.4" fill="#5fd75f">l</text>
<text x="715.2" y="134.4" fill="#5fd75f">C</text>
<text x="723.6" y="134.4" fill="#5fd75f">o</text>
<text x="732.0" y="134.4" fill="#5fd75f">s</text>
<text x="740.4" y="134.4" fill="#5fd75f">t</text>
<text x="748.8" y="134.4" fill="#5fd75f">:</text>
<text x="765.6" y="134.4" fill="#5fd75f">$</text>
<text x="774.0" y="134.4" fill="#5fd75f">1</text>
<text x="782.4" y="134.4" fill="#5fd75f">.</text>
<text x="790.8" y="134.4" fill="#5fd75f">9</text>
<text x="799.2" y="134.4" fill="#5fd75f">7</text>
<text x="85.2" y="152.4" fill="#5fafff">⠉</text>
<text x="93.6" y="152.4" fill="#5fafff">⠙</text>
<text x="102.0" y="152.4" fill="#5fafff">⠿</text>
<text x="110.4" y="152.4" fill="#87afff">⣿</text>
<text x="118.8" y="152.4" fill="#87afff">⠿</text>
<text x="127.2" y="152.4" fill="#87afff">⠋</text>
<text x="135.6" y="152.4" fill="#afafff">⠉</text>
<text x="244.8" y="152.4" fill="#ffd787">📊</text>
<text x="270.0" y="152.4" fill="#ffd787">C</text>
<text x="278.4" y="152.4" fill="#ffd787">o</text>
<text x="286.8" y="152.4" fill="#ffd787">n</text>
<text x="295.2" y="152.4" fill="#ffd787">t</text>
<text x="303.6" y="152.4" fill="#ffd787">e</text>
<text x="312.0" y="152.4" fill="#ffd787">x</text>
<text x="320.4" y="152.4" fill="#ffd787">t</text>
<text x="337.2" y="152.4" fill="#ffd787">U</text>
<text x="345.6" y="152.4" fill="#ffd787">s</text>
<text x="354.0" y="152.4" fill="#ffd787">a</text>
<text x="362.4" y="152.4" fill="#ffd787">g</text>
<text x="370.8" y="152.4" fill="#ffd787">e</text>
<text x="379.2" y="152.4" fill="#ffd787">:</text>
<text x="396.0" y="152.4" fill="#ffaf00">4</text>
<text x="404.4" y="152.4" fill="#ffaf00">3</text>
<text x="412.8" y="152.4" fill="#ffaf00">%</text>
<text x="429.6" y="152.4" fill="#ffaf00">(</text>
<text x="438.0" y="152.4" fill="#ffaf00">4</text>
<text x="446.4" y="152.4" fill="#ffaf00">3</text>
<text x="454.8" y="152.4" fill="#ffaf00">0</text>
<text x="463.2" y="152.4" fill="#ffaf00">k</text>
<text x="471.6" y="152.4" fill="#ffaf00">/</text>
<text x="480.0" y="152.4" fill="#ffaf00">1</text>
<text x="488.4" y="152.4" fill="#ffaf00">M</text>
<text x="496.8" y="152.4" fill="#ffaf00">)</text>
<text x="513.6" y="152.4" fill="#afafff">│</text>
<text x="530.4" y="152.4" fill="#ffd787">⏱️</text>
<text x="555.6" y="152.4" fill="#ffd787">B</text>
<text x="564.0" y="152.4" fill="#ffd787">l</text>
<text x="572.4" y="152.4" fill="#ffd787">o</text>
<text x="580.8" y="152.4" fill="#ffd787">c</text>
<text x="589.2" y="152.4" fill="#ffd787">k</text>
<text x="606.0" y="152.4" fill="#ffd787">U</text>
<text x="614.4" y="152.4" fill="#ffd787">s</text>
<text x="622.8" y="152.4" fill="#ffd787">a</text>
<text x="631.2" y="152.4" fill="#ffd787">g</text>
<text x="639.6" y="152.4" fill="#ffd787">e</text>
<text x="648.0" y="152.4" fill="#ffd787">:</text>
<text x="664.8" y="152.4" fill="#ff5f5f">8</text>
<text x="673.2" y="152.4" fill="#ff5f5f">6</text>
<text x="681.6" y="152.4" fill="#ff5f5f">%</text>
<text x="698.4" y="152.4" fill="#ff5f5f">(</text>
<text x="706.8" y="152.4" fill="#ff5f5f">2</text>
<text x="715.2" y="152.4" fill="#ff5f5f">h</text>
<text x="732.0" y="152.4" fill="#ff5f5f">1</text>
<text x="740.4" y="152.4" fill="#ff5f5f">3</text>
<text x="748.8" y="152.4" fill="#ff5f5f">m</text>
<text x="765.6" y="152.4" fill="#ff5f5f">l</text>
<text x="774.0" y="152.4" fill="#ff5f5f">e</text>
<text x="782.4" y="152.4" fill="#ff5f5f">f</text>
<text x="790.8" y="152.4" fill="#ff5f5f">t</text>
<text x="799.2" y="152.4" fill="#ff5f5f">)</text>
<text x="816.0" y="152.4" fill="#afafff">│</text>
<text x="832.8" y="152.4" fill="#ffd787">📅</text>
<text x="858.0" y="152.4" fill="#ffd787">W</text>
<text x="866.4" y="152.4" fill="#ffd787">e</text>
<text x="874.8" y="152.4" fill="#ffd787">e</text>
<text x="883.2" y="152.4" fill="#ffd787">k</text>
<text x="891.6" y="152.4" fill="#ffd787">l</text>
<text x="900.0" y="152.4" fill="#ffd787">y</text>
<text x="916.8" y="152.4" fill="#ffd787">U</text>
<text x="925.2" y="152.4" fill="#ffd787">s</text>
<text x="933.6" y="152.4" fill="#ffd787">a</text>
<text x="942.0" y="152.4" fill="#ffd787">g</text>
<text x="950.4" y="152.4" fill="#ffd787">e</text>
<text x="958.8" y="152.4" fill="#ffd787">:</text>
<text x="975.6" y="152.4" fill="#ffaf00">6</text>
<text x="984.0" y="152.4" fill="#ffaf00">3</text>
<text x="992.4" y="152.4" fill="#ffaf00">%</text>
<text x="1009.2" y="152.4" fill="#ffaf00">(</text>
<text x="1017.6" y="152.4" fill="#ffaf00">3</text>
<text x="1026.0" y="152.4" fill="#ffaf00">d</text>
<text x="1042.8" y="152.4" fill="#ffaf00">4</text>
<text x="1051.2" y="152.4" fill="#ffaf00">h</text>
<text x="1068.0" y="152.4" fill="#ffaf00">l</text>
<text x="1076.4" y="152.4" fill="#ffaf00">e</text>
<text x="1084.8" y="152.4" fill="#ffaf00">f</text>
<text x="1093.2" y="152.4" fill="#ffaf00">t</text>
<text x="1101.6" y="152.4" fill="#ffaf00">)</text>
<text x="110.4" y="170.4" fill="#afafff">⠿</text>
<text x="244.8" y="188.4" fill="#5fafff">🦇</text>
<text x="270.0" y="188.4" fill="#5fafff">T</text>
<text x="278.4" y="188.4" fill="#5fafff">h</text>
<text x="286.8" y="188.4" fill="#5fafff">e</text>
<text x="303.6" y="188.4" fill="#5fafff">n</text>
<text x="312.0" y="188.4" fill="#5fafff">i</text>
<text x="320.4" y="188.4" fill="#5fafff">g</text>
<text x="328.8" y="188.4" fill="#5fafff">h</text>
<text x="337.2" y="188.4" fill="#87afff">t</text>
<text x="354.0" y="188.4" fill="#87afff">i</text>
<text x="362.4" y="188.4" fill="#87afff">s</text>
<text x="379.2" y="188.4" fill="#87afff">d</text>
<text x="387.6" y="188.4" fill="#87afff">a</text>
<text x="396.0" y="188.4" fill="#87afff">r</text>
<text x="404.4" y="188.4" fill="#87afff">k</text>
<text x="412.8" y="188.4" fill="#87afff">e</text>
<text x="421.2" y="188.4" fill="#87afff">s</text>
<text x="429.6" y="188.4" fill="#87afff">t</text>
<text x="446.4" y="188.4" fill="#87afff">j</text>
<text x="454.8" y="188.4" fill="#afafff">u</text>
<text x="463.2" y="188.4" fill="#afafff">s</text>
<text x="471.6" y="188.4" fill="#afafff">t</text>
<text x="488.4" y="188.4" fill="#afafff">b</text>
<text x="496.8" y="188.4" fill="#afafff">e</text>
<text x="505.2" y="188.4" fill="#afafff">f</text>
<text x="513.6" y="188.4" fill="#afafff">o</text>
<text x="522.0" y="188.4" fill="#afafff">r</text>
<text x="530.4" y="188.4" fill="#afafff">e</text>
<text x="547.2" y="188.4" fill="#afafff">t</text>
<text x="555.6" y="188.4" fill="#afafd7">h</text>
<text x="564.0" y="188.4" fill="#afafd7">e</text>
<text x="580.8" y="188.4" fill="#d7afd7">d</text>
<text x="589.2" y="188.4" fill="#d7afd7">a</text>
<text x="597.6" y="188.4" fill="#c6c6c6">w</text>
<text x="606.0" y="188.4" fill="#c6c6c6">n</text>
<text x="614.4" y="188.4" fill="#c6c6c6">.</text>
<text x="631.2" y="188.4" fill="#c6c6c6">T</text>
<text x="639.6" y="188.4" fill="#c6c6c6">h</text>
<text x="648.0" y="188.4" fill="#d7d7af">e</text>
<text x="664.8" y="188.4" fill="#d7d7af">d</text>
<text x="673.2" y="188.4" fill="#d7d7af">a</text>
<text x="681.6" y="188.4" fill="#d7d7af">w</text>
<text x="690.0" y="188.4" fill="#d7d7af">n</text>
<text x="706.8" y="188.4" fill="#ffd7af">c</text>
<text x="715.2" y="188.4" fill="#ffd787">o</text>
<text x="723.6" y="188.4" fill="#ffd787">m</text>
<text x="732.0" y="188.4" fill="#ffd787">e</text>
<text x="740.4" y="188.4" fill="#ffd787">s</text>
<text x="748.8" y="188.4" fill="#ffd787">.</text>
</svg>
